SEKUYA.ufo
<glyph name="exclam" format="2">
  <advance width="297"/>
  <unicode hex="0021"/>
  <outline>
    <contour>
      <point x="84" y="231" type="line"/>
      <point x="36" y="721" type="line"/>
      <point x="259" y="721" type="line"/>
      <point x="211" y="231" type="line"/>
    </contour>
    <contour>
      <point x="99" y="152" type="qcurve" smooth="yes"/>
      <point x="165" y="161"/>
      <point x="211" y="147" type="qcurve" smooth="yes"/>
      <point x="231" y="144"/>
      <point x="260" y="115"/>
      <point x="265" y="94" type="qcurve" smooth="yes"/>
      <point x="275" y="71"/>
      <point x="266" y="14"/>
      <point x="243" y="-2" type="qcurve" smooth="yes"/>
      <point x="231" y="-11"/>
      <point x="197" y="-20"/>
      <point x="174" y="-21"/>
      <point x="153" y="-21" type="qcurve" smooth="yes"/>
      <point x="87" y="-21"/>
      <point x="57" y="-7" type="qcurve"/>
      <point x="25" y="15"/>
      <point x="25" y="47" type="qcurve" smooth="yes"/>
      <point x="25" y="99"/>
      <point x="41" y="120" type="qcurve" smooth="yes"/>
      <point x="58" y="144"/>
    </contour>
  </outline>
</glyph>
<glyph name="dollar" format="2">
  <advance width="665"/>
  <unicode hex="0024"/>
  <outline>
    <contour>
      <point x="299" y="679" type="qcurve"/>
      <point x="299" y="784" type="line"/>
      <point x="389" y="784" type="line"/>
      <point x="389" y="684" type="line"/>
      <point x="434" y="681"/>
      <point x="489" y="675"/>
      <point x="569" y="656"/>
      <point x="601" y="641" type="qcurve"/>
      <point x="601" y="465" type="line"/>
      <point x="477" y="558"/>
      <point x="330" y="550" type="qcurve" smooth="yes"/>
      <point x="318" y="547"/>
      <point x="308" y="544"/>
      <point x="290" y="536"/>
      <point x="283" y="523"/>
      <point x="283" y="513" type="qcurve" smooth="yes"/>
      <point x="283" y="487"/>
      <point x="325" y="465" type="qcurve" smooth="yes"/>
      <point x="345" y="457"/>
      <point x="500" y="412"/>
      <point x="537" y="391" type="qcurve"/>
      <point x="571" y="379"/>
      <point x="620" y="332"/>
      <point x="628" y="301" type="qcurve" smooth="yes"/>
      <point x="644" y="258"/>
      <point x="634" y="176"/>
      <point x="612" y="143" type="qcurve" smooth="yes"/>
      <point x="546" y="47"/>
      <point x="389" y="25" type="qcurve"/>
      <point x="389" y="-71" type="line"/>
      <point x="299" y="-71" type="line"/>
      <point x="299" y="25" type="line"/>
      <point x="155" y="25"/>
      <point x="38" y="62" type="qcurve"/>
      <point x="38" y="247" type="line"/>
      <point x="155" y="170"/>
      <point x="309" y="152" type="qcurve"/>
      <point x="359" y="152"/>
      <point x="378" y="162" type="qcurve" smooth="yes"/>
      <point x="391" y="166"/>
      <point x="402" y="188"/>
      <point x="394" y="199" type="qcurve" smooth="yes"/>
      <point x="387" y="216"/>
      <point x="357" y="226" type="qcurve" smooth="yes"/>
      <point x="325" y="238"/>
      <point x="189" y="276"/>
      <point x="155" y="291" type="qcurve" smooth="yes"/>
      <point x="64" y="331"/>
      <point x="38" y="396" type="qcurve" smooth="yes"/>
      <point x="21" y="437"/>
      <point x="32" y="530"/>
      <point x="59" y="566" type="qcurve"/>
      <point x="87" y="615"/>
      <point x="155" y="646" type="qcurve"/>
      <point x="227" y="668"/>
    </contour>
  </outline>
</glyph>
<glyph name="quotesingle" format="2">
  <advance width="325"/>
  <unicode hex="0027"/>
  <outline>
    <contour>
      <point x="94" y="699" type="qcurve"/>
      <point x="300" y="699" type="line"/>
      <point x="213" y="519"/>
      <point x="140" y="386" type="qcurve"/>
      <point x="25" y="386" type="line"/>
      <point x="65" y="558"/>
      <point x="83" y="656" type="qcurve" smooth="yes"/>
      <point x="85" y="661"/>
      <point x="90" y="691"/>
    </contour>
  </outline>
</glyph>
<glyph name="parenright" format="2">
  <advance width="280"/>
  <unicode hex="0029"/>
  <outline>
    <contour>
      <point x="25" y="721" type="qcurve"/>
      <point x="99" y="721" type="line"/>
      <point x="169" y="624"/>
      <point x="209" y="513" type="qcurve" smooth="yes"/>
      <point x="246" y="416"/>
      <point x="261" y="204"/>
      <point x="236" y="104" type="qcurve" smooth="yes"/>
      <point x="199" y="-51"/>
      <point x="89" y="-198" type="qcurve"/>
      <point x="25" y="-198" type="line"/>
      <point x="116" y="22"/>
      <point x="115" y="500"/>
    </contour>
  </outline>
</glyph>
<glyph name="asterisk" format="2">
  <advance width="411"/>
  <unicode hex="002A"/>
  <outline>
    <contour>
      <point x="173" y="731" type="line"/>
      <point x="141" y="853" type="line"/>
      <point x="269" y="853" type="line"/>
      <point x="263" y="832"/>
      <point x="241" y="751"/>
      <point x="237" y="736" type="qcurve"/>
      <point x="253" y="750"/>
      <point x="312" y="808"/>
      <point x="328" y="821" type="qcurve"/>
      <point x="338" y="802"/>
      <point x="376" y="728"/>
      <point x="386" y="710" type="qcurve"/>
      <point x="375" y="706"/>
      <point x="298" y="688"/>
      <point x="280" y="679" type="qcurve"/>
      <point x="267" y="685"/>
      <point x="240" y="727"/>
      <point x="237" y="731" type="qcurve"/>
    </contour>
    <contour>
      <point x="25" y="710" type="qcurve"/>
      <point x="88" y="821" type="line"/>
      <point x="96" y="813"/>
      <point x="128" y="780"/>
      <point x="154" y="754"/>
      <point x="168" y="742" type="qcurve"/>
      <point x="170" y="730"/>
      <point x="163" y="709"/>
      <point x="144" y="684"/>
      <point x="141" y="679" type="qcurve"/>
      <point x="144" y="672"/>
      <point x="170" y="632"/>
      <point x="173" y="619" type="qcurve"/>
      <point x="164" y="610"/>
      <point x="129" y="577"/>
      <point x="100" y="548"/>
      <point x="88" y="534" type="qcurve"/>
      <point x="25" y="646" type="line"/>
      <point x="42" y="652"/>
      <point x="116" y="674"/>
      <point x="131" y="679" type="qcurve"/>
      <point x="123" y="681"/>
      <point x="43" y="704"/>
    </contour>
    <contour>
      <point x="269" y="673" type="line"/>
      <point x="263" y="679" type="line"/>
      <point x="287" y="679"/>
      <point x="296" y="673" type="qcurve" smooth="yes"/>
      <point x="312" y="667"/>
      <point x="372" y="652"/>
      <point x="386" y="646" type="qcurve"/>
      <point x="380" y="635"/>
      <point x="340" y="558"/>
      <point x="328" y="540" type="qcurve"/>
      <point x="312" y="554"/>
      <point x="253" y="606"/>
      <point x="237" y="619" type="qcurve"/>
      <point x="252" y="569"/>
      <point x="269" y="502" type="qcurve"/>
      <point x="141" y="502" type="line"/>
      <point x="145" y="517"/>
      <point x="167" y="598"/>
      <point x="173" y="619" type="qcurve"/>
      <point x="185" y="625"/>
      <point x="225" y="622"/>
      <point x="237" y="624" type="qcurve"/>
    </contour>
  </outline>
</glyph>
<glyph name="comma" format="2">
  <advance width="331"/>
  <unicode hex="002C"/>
  <outline>
    <contour>
      <point x="89" y="143" type="qcurve"/>
      <point x="306" y="143" type="line"/>
      <point x="280" y="85"/>
      <point x="176" y="-131"/>
      <point x="157" y="-171" type="qcurve"/>
      <point x="25" y="-171" type="line"/>
      <point x="29" y="-155"/>
      <point x="71" y="33"/>
      <point x="83" y="83" type="qcurve" smooth="yes"/>
      <point x="89" y="97"/>
      <point x="89" y="143" type="qcurve"/>
      <point x="306" y="143" type="line"/>
      <point x="280" y="85"/>
      <point x="176" y="-131"/>
      <point x="157" y="-171" type="qcurve"/>
      <point x="25" y="-171" type="line"/>
      <point x="29" y="-155"/>
      <point x="71" y="33"/>
      <point x="83" y="83" type="qcurve" smooth="yes"/>
      <point x="89" y="97"/>
      <point x="89" y="143" type="qcurve"/>
      <point x="306" y="143" type="line"/>
      <point x="280" y="85"/>
      <point x="176" y="-131"/>
      <point x="157" y="-171" type="qcurve"/>
      <point x="25" y="-171" type="line"/>
      <point x="29" y="-155"/>
      <point x="71" y="33"/>
      <point x="83" y="83" type="qcurve" smooth="yes"/>
      <point x="89" y="97"/>
    </contour>
  </outline>
</glyph>
<glyph name="period" format="2">
  <advance width="298"/>
  <unicode hex="002E"/>
  <outline>
    <contour>
      <point x="94" y="152" type="qcurve" smooth="yes"/>
      <point x="162" y="161"/>
      <point x="211" y="147" type="qcurve"/>
      <point x="254" y="141"/>
      <point x="269" y="94" type="qcurve"/>
      <point x="283" y="32"/>
      <point x="248" y="-2" type="qcurve"/>
      <point x="216" y="-21"/>
      <point x="146" y="-21" type="qcurve" smooth="yes"/>
      <point x="78" y="-21"/>
      <point x="51" y="-2" type="qcurve"/>
      <point x="32" y="17"/>
      <point x="21" y="76"/>
      <point x="30" y="99" type="qcurve" smooth="yes"/>
      <point x="34" y="118"/>
      <point x="73" y="148"/>
      <point x="94" y="152" type="qcurve" smooth="yes"/>
      <point x="162" y="161"/>
      <point x="211" y="147" type="qcurve"/>
      <point x="254" y="141"/>
      <point x="269" y="94" type="qcurve"/>
      <point x="283" y="32"/>
      <point x="248" y="-2" type="qcurve"/>
      <point x="216" y="-21"/>
      <point x="146" y="-21" type="qcurve" smooth="yes"/>
      <point x="78" y="-21"/>
      <point x="51" y="-2" type="qcurve"/>
      <point x="32" y="17"/>
      <point x="21" y="76"/>
      <point x="30" y="99" type="qcurve" smooth="yes"/>
      <point x="34" y="118"/>
      <point x="73" y="148"/>
      <point x="94" y="152" type="qcurve" smooth="yes"/>
      <point x="162" y="161"/>
      <point x="211" y="147" type="qcurve"/>
      <point x="254" y="141"/>
      <point x="269" y="94" type="qcurve"/>
      <point x="283" y="32"/>
      <point x="248" y="-2" type="qcurve"/>
      <point x="216" y="-21"/>
      <point x="146" y="-21" type="qcurve" smooth="yes"/>
      <point x="78" y="-21"/>
      <point x="51" y="-2" type="qcurve"/>
      <point x="32" y="17"/>
      <point x="21" y="76"/>
      <point x="30" y="99" type="qcurve" smooth="yes"/>
      <point x="34" y="118"/>
      <point x="73" y="148"/>
    </contour>
  </outline>
</glyph>
<glyph name="two" format="2">
  <advance width="756"/>
  <unicode hex="0032"/>
  <outline>
    <contour>
      <point x="227" y="711" type="qcurve" smooth="yes"/>
      <point x="361" y="729"/>
      <point x="465" y="715" type="qcurve" smooth="yes"/>
      <point x="579" y="698"/>
      <point x="636" y="646" type="qcurve" smooth="yes"/>
      <point x="674" y="613"/>
      <point x="704" y="511"/>
      <point x="692" y="462" type="qcurve" smooth="yes"/>
      <point x="675" y="395"/>
      <point x="605" y="330" type="qcurve" smooth="yes"/>
      <point x="524" y="254"/>
      <point x="388" y="192" type="qcurve"/>
      <point x="630" y="192"/>
      <point x="630" y="192" type="qcurve" smooth="yes"/>
      <point x="661" y="192"/>
      <point x="717" y="225"/>
      <point x="731" y="254" type="qcurve"/>
      <point x="731" y="0" type="line"/>
      <point x="25" y="0" type="line"/>
      <point x="25" y="191" type="line"/>
      <point x="171" y="251"/>
      <point x="243" y="296" type="qcurve" smooth="yes"/>
      <point x="317" y="342"/>
      <point x="347" y="390" type="qcurve" smooth="yes"/>
      <point x="384" y="447"/>
      <point x="357" y="496" type="qcurve" smooth="yes"/>
      <point x="338" y="530"/>
      <point x="282" y="538" type="qcurve" smooth="yes"/>
      <point x="147" y="558"/>
      <point x="30" y="479" type="qcurve"/>
      <point x="30" y="593"/>
      <point x="29" y="650" type="qcurve"/>
      <point x="99" y="690"/>
    </contour>
  </outline>
</glyph>
<glyph name="three" format="2">
  <advance width="766"/>
  <unicode hex="0033"/>
  <outline>
    <contour>
      <point x="54" y="484" type="qcurve"/>
      <point x="54" y="668" type="line"/>
      <point x="168" y="715"/>
      <point x="323" y="720" type="qcurve" smooth="yes"/>
      <point x="453" y="725"/>
      <point x="545" y="701" type="qcurve" smooth="yes"/>
      <point x="628" y="682"/>
      <point x="669" y="634" type="qcurve" smooth="yes"/>
      <point x="695" y="604"/>
      <point x="706" y="518"/>
      <point x="691" y="481" type="qcurve" smooth="yes"/>
      <point x="669" y="426"/>
      <point x="602" y="393" type="qcurve" smooth="yes"/>
      <point x="580" y="382"/>
      <point x="511" y="366" type="qcurve" smooth="yes"/>
      <point x="511" y="362"/>
      <point x="509" y="360" type="qcurve"/>
      <point x="571" y="357"/>
      <point x="665" y="333"/>
      <point x="699" y="301" type="qcurve" smooth="yes"/>
      <point x="740" y="262"/>
      <point x="742" y="138"/>
      <point x="703" y="96" type="qcurve" smooth="yes"/>
      <point x="656" y="40"/>
      <point x="559" y="9" type="qcurve" smooth="yes"/>
      <point x="452" y="-24"/>
      <point x="307" y="-24" type="qcurve" smooth="yes"/>
      <point x="132" y="-22"/>
      <point x="25" y="19" type="qcurve"/>
      <point x="25" y="210" type="line"/>
      <point x="133" y="137"/>
      <point x="302" y="142" type="qcurve" smooth="yes"/>
      <point x="306" y="142"/>
      <point x="329" y="144"/>
      <point x="339" y="145"/>
      <point x="359" y="149"/>
      <point x="372" y="153"/>
      <point x="387" y="159"/>
      <point x="394" y="164" type="qcurve" smooth="yes"/>
      <point x="418" y="178"/>
      <point x="419" y="244"/>
      <point x="396" y="260" type="qcurve" smooth="yes"/>
      <point x="371" y="276"/>
      <point x="317" y="278" type="qcurve" smooth="yes"/>
      <point x="317" y="278"/>
      <point x="169" y="278" type="qcurve"/>
      <point x="169" y="413" type="line"/>
      <point x="304" y="413"/>
      <point x="304" y="413" type="qcurve" smooth="yes"/>
      <point x="306" y="413"/>
      <point x="310" y="414" type="qcurve" smooth="yes"/>
      <point x="372" y="419"/>
      <point x="398" y="437" type="qcurve" smooth="yes"/>
      <point x="418" y="451"/>
      <point x="425" y="505"/>
      <point x="408" y="523" type="qcurve" smooth="yes"/>
      <point x="404" y="527"/>
      <point x="395" y="533"/>
      <point x="382" y="538"/>
      <point x="375" y="540"/>
      <point x="359" y="543"/>
      <point x="354" y="544"/>
      <point x="334" y="546"/>
      <point x="333" y="546" type="qcurve" smooth="yes"/>
      <point x="177" y="554"/>
    </contour>
  </outline>
</glyph>
<glyph name="five" format="2">
  <advance width="757"/>
  <unicode hex="0035"/>
  <outline>
    <contour>
      <point x="32" y="267" type="line"/>
      <point x="32" y="702" type="line"/>
      <point x="670" y="702" type="line"/>
      <point x="670" y="461" type="line"/>
      <point x="656" y="485"/>
      <point x="605" y="512"/>
      <point x="577" y="512" type="qcurve" smooth="yes"/>
      <point x="249" y="512" type="line"/>
      <point x="249" y="436" type="line"/>
      <point x="309" y="434"/>
      <point x="408" y="438"/>
      <point x="527" y="429"/>
      <point x="574" y="415" type="qcurve" smooth="yes"/>
      <point x="673" y="388"/>
      <point x="710" y="320" type="qcurve" smooth="yes"/>
      <point x="731" y="281"/>
      <point x="733" y="186"/>
      <point x="715" y="145" type="qcurve" smooth="yes"/>
      <point x="679" y="61"/>
      <point x="569" y="18" type="qcurve" smooth="yes"/>
      <point x="451" y="-25"/>
      <point x="263" y="-23" type="qcurve" smooth="yes"/>
      <point x="129" y="-23"/>
      <point x="25" y="27" type="qcurve"/>
      <point x="27" y="202" type="line"/>
      <point x="176" y="132"/>
      <point x="332" y="142" type="qcurve" smooth="yes"/>
      <point x="376" y="148"/>
      <point x="395" y="161" type="qcurve" smooth="yes"/>
      <point x="418" y="175"/>
      <point x="417" y="235"/>
      <point x="394" y="249" type="qcurve" smooth="yes"/>
      <point x="367" y="265"/>
      <point x="305" y="267" type="qcurve" smooth="yes"/>
    </contour>
  </outline>
</glyph>
<glyph name="six" format="2">
  <advance width="866"/>
  <unicode hex="0036"/>
  <outline>
    <contour>
      <point x="267" y="671" type="qcurve" smooth="yes"/>
      <point x="398" y="724"/>
      <point x="581" y="718" type="qcurve" smooth="yes"/>
      <point x="680" y="715"/>
      <point x="790" y="678" type="qcurve"/>
      <point x="789" y="618"/>
      <point x="789" y="501" type="qcurve"/>
      <point x="710" y="542"/>
      <point x="587" y="544" type="qcurve" smooth="yes"/>
      <point x="475" y="546"/>
      <point x="419" y="509" type="qcurve" smooth="yes"/>
      <point x="369" y="479"/>
      <point x="351" y="414" type="qcurve"/>
      <point x="463" y="477"/>
      <point x="630" y="454" type="qcurve" smooth="yes"/>
      <point x="739" y="438"/>
      <point x="798" y="372" type="qcurve" smooth="yes"/>
      <point x="830" y="331"/>
      <point x="847" y="221"/>
      <point x="832" y="171" type="qcurve" smooth="yes"/>
      <point x="819" y="124"/>
      <point x="753" y="51"/>
      <point x="708" y="28" type="qcurve" smooth="yes"/>
      <point x="599" y="-29"/>
      <point x="417" y="-22" type="qcurve" smooth="yes"/>
      <point x="228" y="-13"/>
      <point x="122" y="93" type="qcurve" smooth="yes"/>
      <point x="67" y="146"/>
      <point x="18" y="299"/>
      <point x="28" y="378" type="qcurve" smooth="yes"/>
      <point x="38" y="456"/>
      <point x="81" y="523" type="qcurve" smooth="yes"/>
      <point x="142" y="621"/>
    </contour>
    <contour>
      <point x="343" y="297" type="qcurve"/>
      <point x="343" y="208"/>
      <point x="373" y="165" type="qcurve" smooth="yes"/>
      <point x="395" y="131"/>
      <point x="487" y="109"/>
      <point x="524" y="126" type="qcurve" smooth="yes"/>
      <point x="553" y="140"/>
      <point x="576" y="205"/>
      <point x="568" y="238" type="qcurve" smooth="yes"/>
      <point x="560" y="263"/>
      <point x="517" y="297"/>
      <point x="491" y="304" type="qcurve" smooth="yes"/>
      <point x="422" y="322"/>
    </contour>
  </outline>
</glyph>
<glyph name="eight" format="2">
  <advance width="891"/>
  <unicode hex="0038"/>
  <outline>
    <contour>
      <point x="273" y="703" type="qcurve" smooth="yes"/>
      <point x="392" y="725"/>
      <point x="554" y="713" type="qcurve" smooth="yes"/>
      <point x="619" y="706"/>
      <point x="711" y="685"/>
      <point x="750" y="660" type="qcurve" smooth="yes"/>
      <point x="777" y="642"/>
      <point x="811" y="589"/>
      <point x="813" y="559" type="qcurve" smooth="yes"/>
      <point x="821" y="471"/>
      <point x="781" y="421" type="qcurve" smooth="yes"/>
      <point x="762" y="397"/>
      <point x="724" y="377" type="qcurve"/>
      <point x="809" y="348"/>
      <point x="844" y="291" type="qcurve" smooth="yes"/>
      <point x="865" y="256"/>
      <point x="867" y="165"/>
      <point x="852" y="127" type="qcurve" smooth="yes"/>
      <point x="821" y="49"/>
      <point x="720" y="13" type="qcurve" smooth="yes"/>
      <point x="617" y="-23"/>
      <point x="442" y="-23" type="qcurve" smooth="yes"/>
      <point x="381" y="-22"/>
      <point x="314" y="-20"/>
      <point x="212" y="-7"/>
      <point x="171" y="6" type="qcurve" smooth="yes"/>
      <point x="75" y="34"/>
      <point x="43" y="102" type="qcurve" smooth="yes"/>
      <point x="10" y="176"/>
      <point x="34" y="254" type="qcurve" smooth="yes"/>
      <point x="60" y="330"/>
      <point x="163" y="372" type="qcurve"/>
      <point x="133" y="384"/>
      <point x="91" y="428"/>
      <point x="84" y="457" type="qcurve" smooth="yes"/>
      <point x="59" y="564"/>
      <point x="111" y="625" type="qcurve" smooth="yes"/>
      <point x="160" y="682"/>
    </contour>
    <contour>
      <point x="406" y="594" type="qcurve" smooth="yes"/>
      <point x="385" y="590"/>
      <point x="354" y="559"/>
      <point x="351" y="538" type="qcurve" smooth="yes"/>
      <point x="342" y="483"/>
      <point x="360" y="450" type="qcurve" smooth="yes"/>
      <point x="379" y="417"/>
      <point x="437" y="415" type="qcurve" smooth="yes"/>
      <point x="456" y="415"/>
      <point x="478" y="417"/>
      <point x="510" y="427"/>
      <point x="520" y="438" type="qcurve" smooth="yes"/>
      <point x="545" y="465"/>
      <point x="539" y="521" type="qcurve" smooth="yes"/>
      <point x="537" y="571"/>
      <point x="503" y="587" type="qcurve" smooth="yes"/>
      <point x="463" y="606"/>
    </contour>
    <contour>
      <point x="402" y="310" type="qcurve" smooth="yes"/>
      <point x="379" y="306"/>
      <point x="346" y="275"/>
      <point x="340" y="252" type="qcurve" smooth="yes"/>
      <point x="328" y="194"/>
      <point x="350" y="153" type="qcurve" smooth="yes"/>
      <point x="372" y="117"/>
      <point x="437" y="115" type="qcurve" smooth="yes"/>
      <point x="504" y="115"/>
      <point x="530" y="141" type="qcurve" smooth="yes"/>
      <point x="555" y="171"/>
      <point x="549" y="234" type="qcurve" smooth="yes"/>
      <point x="547" y="286"/>
      <point x="510" y="303" type="qcurve" smooth="yes"/>
      <point x="465" y="322"/>
    </contour>
  </outline>
</glyph>
<glyph name="nine" format="2">
  <advance width="887"/>
  <unicode hex="0039"/>
  <outline>
    <contour>
      <point x="330" y="709" type="qcurve" smooth="yes"/>
      <point x="519" y="733"/>
      <point x="645" y="689" type="qcurve" smooth="yes"/>
      <point x="700" y="670"/>
      <point x="793" y="597"/>
      <point x="820" y="547" type="qcurve" smooth="yes"/>
      <point x="879" y="435"/>
      <point x="856" y="301" type="qcurve" smooth="yes"/>
      <point x="844" y="238"/>
      <point x="777" y="128"/>
      <point x="727" y="89" type="qcurve" smooth="yes"/>
      <point x="619" y="4"/>
      <point x="443" y="-17" type="qcurve" smooth="yes"/>
      <point x="247" y="-41"/>
      <point x="77" y="22" type="qcurve"/>
      <point x="77" y="206" type="line"/>
      <point x="227" y="142"/>
      <point x="364" y="147" type="qcurve" smooth="yes"/>
      <point x="447" y="152"/>
      <point x="494" y="195" type="qcurve" smooth="yes"/>
      <point x="524" y="220"/>
      <point x="538" y="267" type="qcurve"/>
      <point x="445" y="233"/>
      <point x="321" y="235" type="qcurve" smooth="yes"/>
      <point x="170" y="235"/>
      <point x="87" y="314" type="qcurve" smooth="yes"/>
      <point x="26" y="371"/>
      <point x="24" y="547"/>
      <point x="84" y="605" type="qcurve" smooth="yes"/>
      <point x="163" y="684"/>
    </contour>
    <contour>
      <point x="348" y="532" type="qcurve" smooth="yes"/>
      <point x="321" y="513"/>
      <point x="312" y="441"/>
      <point x="331" y="415" type="qcurve" smooth="yes"/>
      <point x="357" y="377"/>
      <point x="423" y="377" type="qcurve" smooth="yes"/>
      <point x="494" y="375"/>
      <point x="545" y="384" type="qcurve" smooth="yes"/>
      <point x="545" y="387"/>
      <point x="545" y="415"/>
      <point x="545" y="424"/>
      <point x="544" y="447"/>
      <point x="541" y="459"/>
      <point x="537" y="477"/>
      <point x="535" y="485" type="qcurve" smooth="yes"/>
      <point x="526" y="511"/>
      <point x="485" y="546"/>
      <point x="459" y="551" type="qcurve" smooth="yes"/>
      <point x="391" y="563"/>
    </contour>
  </outline>
</glyph>
<glyph name="colon" format="2">
  <advance width="298"/>
  <unicode hex="003A"/>
  <outline>
    <contour>
      <point x="84" y="492" type="qcurve" smooth="yes"/>
      <point x="111" y="497"/>
      <point x="175" y="497" type="qcurve" smooth="yes"/>
      <point x="179" y="496"/>
      <point x="210" y="492"/>
      <point x="222" y="489"/>
      <point x="242" y="478"/>
      <point x="249" y="470" type="qcurve" smooth="yes"/>
      <point x="280" y="443"/>
      <point x="271" y="386" type="qcurve" smooth="yes"/>
      <point x="263" y="348"/>
      <point x="234" y="333" type="qcurve" smooth="yes"/>
      <point x="201" y="317"/>
      <point x="138" y="317" type="qcurve" smooth="yes"/>
      <point x="133" y="318"/>
      <point x="105" y="321"/>
      <point x="91" y="324"/>
      <point x="69" y="331"/>
      <point x="53" y="341"/>
      <point x="47" y="349" type="qcurve" smooth="yes"/>
      <point x="11" y="377"/>
      <point x="32" y="438" type="qcurve" smooth="yes"/>
      <point x="36" y="459"/>
      <point x="64" y="488"/>
    </contour>
    <contour>
      <point x="96" y="152" type="qcurve" smooth="yes"/>
      <point x="163" y="161"/>
      <point x="213" y="147" type="qcurve" smooth="yes"/>
      <point x="234" y="144"/>
      <point x="263" y="117"/>
      <point x="266" y="94" type="qcurve"/>
      <point x="276" y="71"/>
      <point x="266" y="14"/>
      <point x="244" y="-2" type="qcurve" smooth="yes"/>
      <point x="213" y="-21"/>
      <point x="143" y="-21" type="qcurve" smooth="yes"/>
      <point x="121" y="-21"/>
      <point x="97" y="-19"/>
      <point x="60" y="-8"/>
      <point x="47" y="3" type="qcurve" smooth="yes"/>
      <point x="11" y="39"/>
      <point x="32" y="99" type="qcurve" smooth="yes"/>
      <point x="48" y="143"/>
    </contour>
    <contour>
      <point x="84" y="492" type="qcurve" smooth="yes"/>
      <point x="111" y="497"/>
      <point x="175" y="497" type="qcurve" smooth="yes"/>
      <point x="179" y="496"/>
      <point x="210" y="492"/>
      <point x="222" y="489"/>
      <point x="242" y="478"/>
      <point x="249" y="470" type="qcurve" smooth="yes"/>
      <point x="280" y="443"/>
      <point x="271" y="386" type="qcurve" smooth="yes"/>
      <point x="263" y="348"/>
      <point x="234" y="333" type="qcurve" smooth="yes"/>
      <point x="201" y="317"/>
      <point x="138" y="317" type="qcurve" smooth="yes"/>
      <point x="133" y="318"/>
      <point x="105" y="321"/>
      <point x="91" y="324"/>
      <point x="69" y="331"/>
      <point x="53" y="341"/>
      <point x="47" y="349" type="qcurve" smooth="yes"/>
      <point x="11" y="377"/>
      <point x="32" y="438" type="qcurve" smooth="yes"/>
      <point x="36" y="459"/>
      <point x="64" y="488"/>
    </contour>
    <contour>
      <point x="96" y="152" type="qcurve" smooth="yes"/>
      <point x="163" y="161"/>
      <point x="213" y="147" type="qcurve" smooth="yes"/>
      <point x="234" y="144"/>
      <point x="263" y="117"/>
      <point x="266" y="94" type="qcurve"/>
      <point x="276" y="71"/>
      <point x="266" y="14"/>
      <point x="244" y="-2" type="qcurve" smooth="yes"/>
      <point x="213" y="-21"/>
      <point x="143" y="-21" type="qcurve" smooth="yes"/>
      <point x="121" y="-21"/>
      <point x="97" y="-19"/>
      <point x="60" y="-8"/>
      <point x="47" y="3" type="qcurve" smooth="yes"/>
      <point x="11" y="39"/>
      <point x="32" y="99" type="qcurve" smooth="yes"/>
      <point x="48" y="143"/>
    </contour>
    <contour>
      <point x="84" y="492" type="qcurve" smooth="yes"/>
      <point x="111" y="497"/>
      <point x="175" y="497" type="qcurve" smooth="yes"/>
      <point x="179" y="496"/>
      <point x="210" y="492"/>
      <point x="222" y="489"/>
      <point x="242" y="478"/>
      <point x="249" y="470" type="qcurve" smooth="yes"/>
      <point x="280" y="443"/>
      <point x="271" y="386" type="qcurve" smooth="yes"/>
      <point x="263" y="348"/>
      <point x="234" y="333" type="qcurve" smooth="yes"/>
      <point x="201" y="317"/>
      <point x="138" y="317" type="qcurve" smooth="yes"/>
      <point x="133" y="318"/>
      <point x="105" y="321"/>
      <point x="91" y="324"/>
      <point x="69" y="331"/>
      <point x="53" y="341"/>
      <point x="47" y="349" type="qcurve" smooth="yes"/>
      <point x="11" y="377"/>
      <point x="32" y="438" type="qcurve" smooth="yes"/>
      <point x="36" y="459"/>
      <point x="64" y="488"/>
    </contour>
    <contour>
      <point x="96" y="152" type="qcurve" smooth="yes"/>
      <point x="163" y="161"/>
      <point x="213" y="147" type="qcurve" smooth="yes"/>
      <point x="234" y="144"/>
      <point x="263" y="117"/>
      <point x="266" y="94" type="qcurve"/>
      <point x="276" y="71"/>
      <point x="266" y="14"/>
      <point x="244" y="-2" type="qcurve" smooth="yes"/>
      <point x="213" y="-21"/>
      <point x="143" y="-21" type="qcurve" smooth="yes"/>
      <point x="121" y="-21"/>
      <point x="97" y="-19"/>
      <point x="60" y="-8"/>
      <point x="47" y="3" type="qcurve" smooth="yes"/>
      <point x="11" y="39"/>
      <point x="32" y="99" type="qcurve" smooth="yes"/>
      <point x="48" y="143"/>
    </contour>
  </outline>
</glyph>
<glyph name="semicolon" format="2">
  <advance width="337"/>
  <unicode hex="003B"/>
  <outline>
    <contour>
      <point x="125" y="492" type="qcurve"/>
      <point x="152" y="497"/>
      <point x="215" y="497" type="qcurve"/>
      <point x="270" y="487"/>
      <point x="290" y="470" type="qcurve"/>
      <point x="312" y="444"/>
      <point x="312" y="396" type="qcurve" smooth="yes"/>
      <point x="312" y="363"/>
      <point x="285" y="338" type="qcurve" smooth="yes"/>
      <point x="273" y="331"/>
      <point x="243" y="323"/>
      <point x="200" y="318"/>
      <point x="194" y="317" type="qcurve" smooth="yes"/>
      <point x="131" y="317"/>
      <point x="99" y="333" type="qcurve"/>
      <point x="68" y="354"/>
      <point x="68" y="386" type="qcurve"/>
      <point x="59" y="420"/>
      <point x="78" y="460" type="qcurve"/>
      <point x="93" y="481"/>
    </contour>
    <contour>
      <point x="83" y="143" type="qcurve"/>
      <point x="302" y="143" type="line"/>
      <point x="207" y="-51"/>
      <point x="152" y="-171" type="qcurve"/>
      <point x="25" y="-171" type="line"/>
      <point x="34" y="-123"/>
      <point x="71" y="45"/>
      <point x="78" y="79" type="qcurve" smooth="yes"/>
      <point x="83" y="99"/>
    </contour>
    <contour>
      <point x="125" y="492" type="qcurve"/>
      <point x="152" y="497"/>
      <point x="215" y="497" type="qcurve"/>
      <point x="270" y="487"/>
      <point x="290" y="470" type="qcurve"/>
      <point x="312" y="444"/>
      <point x="312" y="396" type="qcurve" smooth="yes"/>
      <point x="312" y="363"/>
      <point x="285" y="338" type="qcurve" smooth="yes"/>
      <point x="273" y="331"/>
      <point x="243" y="323"/>
      <point x="200" y="318"/>
      <point x="194" y="317" type="qcurve" smooth="yes"/>
      <point x="131" y="317"/>
      <point x="99" y="333" type="qcurve"/>
      <point x="68" y="354"/>
      <point x="68" y="386" type="qcurve"/>
      <point x="59" y="420"/>
      <point x="78" y="460" type="qcurve"/>
      <point x="93" y="481"/>
    </contour>
    <contour>
      <point x="83" y="143" type="qcurve"/>
      <point x="302" y="143" type="line"/>
      <point x="207" y="-51"/>
      <point x="152" y="-171" type="qcurve"/>
      <point x="25" y="-171" type="line"/>
      <point x="34" y="-123"/>
      <point x="71" y="45"/>
      <point x="78" y="79" type="qcurve" smooth="yes"/>
      <point x="83" y="99"/>
    </contour>
    <contour>
      <point x="125" y="492" type="qcurve"/>
      <point x="152" y="497"/>
      <point x="215" y="497" type="qcurve"/>
      <point x="270" y="487"/>
      <point x="290" y="470" type="qcurve"/>
      <point x="312" y="444"/>
      <point x="312" y="396" type="qcurve" smooth="yes"/>
      <point x="312" y="363"/>
      <point x="285" y="338" type="qcurve" smooth="yes"/>
      <point x="273" y="331"/>
      <point x="243" y="323"/>
      <point x="200" y="318"/>
      <point x="194" y="317" type="qcurve" smooth="yes"/>
      <point x="131" y="317"/>
      <point x="99" y="333" type="qcurve"/>
      <point x="68" y="354"/>
      <point x="68" y="386" type="qcurve"/>
      <point x="59" y="420"/>
      <point x="78" y="460" type="qcurve"/>
      <point x="93" y="481"/>
    </contour>
    <contour>
      <point x="83" y="143" type="qcurve"/>
      <point x="302" y="143" type="line"/>
      <point x="207" y="-51"/>
      <point x="152" y="-171" type="qcurve"/>
      <point x="25" y="-171" type="line"/>
      <point x="34" y="-123"/>
      <point x="71" y="45"/>
      <point x="78" y="79" type="qcurve" smooth="yes"/>
      <point x="83" y="99"/>
    </contour>
  </outline>
</glyph>
<glyph name="K" format="2">
  <advance width="1036"/>
  <unicode hex="004B"/>
  <outline>
    <contour>
      <point x="556" y="114" type="qcurve" smooth="yes"/>
      <point x="425" y="263" type="line"/>
      <point x="331" y="183" type="line"/>
      <point x="338" y="34"/>
      <point x="385" y="0" type="qcurve"/>
      <point x="25" y="0" type="line"/>
      <point x="79" y="40"/>
      <point x="79" y="214" type="qcurve" smooth="yes"/>
      <point x="79" y="486" type="line" smooth="yes"/>
      <point x="79" y="660"/>
      <point x="25" y="700" type="qcurve"/>
      <point x="385" y="700" type="line"/>
      <point x="331" y="662"/>
      <point x="331" y="486" type="qcurve" smooth="yes"/>
      <point x="331" y="417" type="line"/>
      <point x="513" y="573" type="line" smooth="yes"/>
      <point x="515" y="575"/>
      <point x="542" y="601"/>
      <point x="557" y="617"/>
      <point x="578" y="641"/>
      <point x="588" y="660"/>
      <point x="588" y="667" type="qcurve" smooth="yes"/>
      <point x="588" y="686"/>
      <point x="574" y="700" type="qcurve"/>
      <point x="936" y="700" type="line"/>
      <point x="926" y="694"/>
      <point x="904" y="676"/>
      <point x="878" y="653"/>
      <point x="871" y="647" type="qcurve" smooth="yes"/>
      <point x="605" y="419" type="line"/>
      <point x="773" y="227" type="line" smooth="yes"/>
      <point x="825" y="166"/>
      <point x="886" y="101"/>
      <point x="976" y="34"/>
      <point x="1011" y="29" type="qcurve"/>
      <point x="948" y="-11"/>
      <point x="848" y="-11" type="qcurve" smooth="yes"/>
      <point x="747" y="-11"/>
      <point x="617" y="43"/>
    </contour>
  </outline>
</glyph>
<glyph name="O" format="2">
  <advance width="1085"/>
  <unicode hex="004F"/>
  <outline>
    <contour>
      <point x="443" y="712" type="qcurve" smooth="yes"/>
      <point x="645" y="728"/>
      <point x="784" y="684" type="qcurve" smooth="yes"/>
      <point x="919" y="642"/>
      <point x="978" y="537" type="qcurve" smooth="yes"/>
      <point x="1042" y="425"/>
      <point x="1019" y="260" type="qcurve" smooth="yes"/>
      <point x="1009" y="196"/>
      <point x="943" y="88"/>
      <point x="890" y="55" type="qcurve" smooth="yes"/>
      <point x="775" y="-18"/>
      <point x="567" y="-24" type="qcurve" smooth="yes"/>
      <point x="467" y="-24"/>
      <point x="307" y="-3"/>
      <point x="236" y="28" type="qcurve" smooth="yes"/>
      <point x="183" y="52"/>
      <point x="104" y="133"/>
      <point x="84" y="186" type="qcurve" smooth="yes"/>
      <point x="51" y="277"/>
      <point x="63" y="403" type="qcurve" smooth="yes"/>
      <point x="77" y="540"/>
      <point x="166" y="614" type="qcurve" smooth="yes"/>
      <point x="262" y="697"/>
    </contour>
    <contour>
      <point x="506" y="563" type="qcurve" smooth="yes"/>
      <point x="442" y="551"/>
      <point x="413" y="499" type="qcurve" smooth="yes"/>
      <point x="392" y="462"/>
      <point x="380" y="376"/>
      <point x="381" y="319" type="qcurve" smooth="yes"/>
      <point x="383" y="286"/>
      <point x="389" y="244"/>
      <point x="408" y="189"/>
      <point x="424" y="170" type="qcurve" smooth="yes"/>
      <point x="468" y="123"/>
      <point x="562" y="129" type="qcurve" smooth="yes"/>
      <point x="641" y="135"/>
      <point x="672" y="187" type="qcurve" smooth="yes"/>
      <point x="693" y="222"/>
      <point x="704" y="304"/>
      <point x="703" y="361" type="qcurve" smooth="yes"/>
      <point x="700" y="415"/>
      <point x="681" y="493"/>
      <point x="655" y="523" type="qcurve" smooth="yes"/>
      <point x="630" y="552"/>
      <point x="549" y="570"/>
    </contour>
    <contour>
      <point x="540" y="454" type="line"/>
      <point x="630" y="337" type="line"/>
      <point x="618" y="323"/>
      <point x="585" y="279" type="qcurve" smooth="yes"/>
      <point x="554" y="239" type="line"/>
      <point x="540" y="221" type="line" smooth="yes"/>
      <point x="540" y="220"/>
      <point x="527" y="237"/>
      <point x="506" y="265"/>
      <point x="496" y="279" type="qcurve" smooth="yes"/>
      <point x="452" y="338" type="line"/>
    </contour>
  </outline>
</glyph>
<glyph name="S" format="2">
  <advance width="732"/>
  <unicode hex="0053"/>
  <outline>
    <contour>
      <point x="149" y="667" type="qcurve" smooth="yes"/>
      <point x="259" y="721"/>
      <point x="428" y="716" type="qcurve" smooth="yes"/>
      <point x="569" y="714"/>
      <point x="668" y="674" type="qcurve"/>
      <point x="668" y="471" type="line"/>
      <point x="552" y="562"/>
      <point x="407" y="567" type="qcurve" smooth="yes"/>
      <point x="348" y="569"/>
      <point x="325" y="555" type="qcurve" smooth="yes"/>
      <point x="308" y="544"/>
      <point x="313" y="497"/>
      <point x="331" y="487" type="qcurve" smooth="yes"/>
      <point x="343" y="479"/>
      <point x="373" y="468"/>
      <point x="413" y="456"/>
      <point x="423" y="453" type="qcurve" smooth="yes"/>
      <point x="432" y="450"/>
      <point x="490" y="434"/>
      <point x="514" y="426"/>
      <point x="563" y="409"/>
      <point x="593" y="395"/>
      <point x="631" y="374"/>
      <point x="647" y="362" type="qcurve" smooth="yes"/>
      <point x="706" y="318"/>
      <point x="711" y="239" type="qcurve" smooth="yes"/>
      <point x="716" y="189"/>
      <point x="678" y="97"/>
      <point x="641" y="64" type="qcurve" smooth="yes"/>
      <point x="558" y="-10"/>
      <point x="397" y="-23" type="qcurve"/>
      <point x="190" y="-30"/>
      <point x="36" y="23" type="qcurve"/>
      <point x="36" y="227" type="line"/>
      <point x="188" y="128"/>
      <point x="344" y="121" type="qcurve" smooth="yes"/>
      <point x="359" y="121"/>
      <point x="386" y="120"/>
      <point x="416" y="127"/>
      <point x="428" y="134" type="qcurve" smooth="yes"/>
      <point x="440" y="143"/>
      <point x="445" y="171"/>
      <point x="434" y="180" type="qcurve" smooth="yes"/>
      <point x="427" y="185"/>
      <point x="413" y="193"/>
      <point x="390" y="202"/>
      <point x="387" y="203" type="qcurve" smooth="yes"/>
      <point x="354" y="214"/>
      <point x="223" y="256"/>
      <point x="191" y="268" type="qcurve" smooth="yes"/>
      <point x="95" y="304"/>
      <point x="56" y="355" type="qcurve" smooth="yes"/>
      <point x="3" y="428"/>
      <point x="29" y="531" type="qcurve" smooth="yes"/>
      <point x="40" y="575"/>
      <point x="105" y="646"/>
    </contour>
  </outline>
</glyph>
<glyph name="bracketleft" format="2">
  <advance width="295"/>
  <unicode hex="005B"/>
  <outline>
    <contour>
      <point x="25" y="-150" type="line"/>
      <point x="25" y="779" type="line"/>
      <point x="270" y="779" type="line"/>
      <point x="270" y="684" type="line"/>
      <point x="125" y="684" type="line"/>
      <point x="125" y="-53" type="line"/>
      <point x="270" y="-53" type="line"/>
      <point x="270" y="-150" type="line"/>
      <point x="25" y="-150" type="line"/>
      <point x="25" y="779" type="line"/>
      <point x="270" y="779" type="line"/>
      <point x="270" y="684" type="line"/>
      <point x="125" y="684" type="line"/>
      <point x="125" y="-53" type="line"/>
      <point x="270" y="-53" type="line"/>
      <point x="270" y="-150" type="line"/>
      <point x="25" y="-150" type="line"/>
      <point x="25" y="779" type="line"/>
      <point x="270" y="779" type="line"/>
      <point x="270" y="684" type="line"/>
      <point x="125" y="684" type="line"/>
      <point x="125" y="-53" type="line"/>
      <point x="270" y="-53" type="line"/>
      <point x="270" y="-150" type="line"/>
    </contour>
  </outline>
</glyph>
<glyph name="backslash" format="2">
  <advance width="480"/>
  <unicode hex="005C"/>
  <outline>
    <contour>
      <point x="25" y="752" type="qcurve"/>
      <point x="146" y="752" type="line"/>
      <point x="185" y="640"/>
      <point x="398" y="46"/>
      <point x="455" y="-118" type="qcurve"/>
      <point x="332" y="-118" type="line"/>
      <point x="282" y="29"/>
      <point x="75" y="605"/>
      <point x="25" y="752" type="qcurve"/>
      <point x="146" y="752" type="line"/>
      <point x="185" y="640"/>
      <point x="398" y="46"/>
      <point x="455" y="-118" type="qcurve"/>
      <point x="332" y="-118" type="line"/>
      <point x="282" y="29"/>
      <point x="75" y="605"/>
      <point x="25" y="752" type="qcurve"/>
      <point x="146" y="752" type="line"/>
      <point x="185" y="640"/>
      <point x="398" y="46"/>
      <point x="455" y="-118" type="qcurve"/>
      <point x="332" y="-118" type="line"/>
      <point x="282" y="29"/>
      <point x="75" y="605"/>
    </contour>
  </outline>
</glyph>
<glyph name="bracketright" format="2">
  <advance width="295"/>
  <unicode hex="005D"/>
  <outline>
    <contour>
      <point x="25" y="684" type="qcurve"/>
      <point x="25" y="779" type="line"/>
      <point x="270" y="779" type="line"/>
      <point x="270" y="-150" type="line"/>
      <point x="25" y="-150" type="line"/>
      <point x="25" y="-53" type="line"/>
      <point x="174" y="-53" type="line"/>
      <point x="174" y="684" type="line"/>
      <point x="153" y="682"/>
      <point x="102" y="682"/>
      <point x="41" y="684"/>
      <point x="25" y="684" type="qcurve"/>
      <point x="25" y="779" type="line"/>
      <point x="270" y="779" type="line"/>
      <point x="270" y="-150" type="line"/>
      <point x="25" y="-150" type="line"/>
      <point x="25" y="-53" type="line"/>
      <point x="174" y="-53" type="line"/>
      <point x="174" y="684" type="line"/>
      <point x="153" y="682"/>
      <point x="102" y="682"/>
      <point x="41" y="684"/>
      <point x="25" y="684" type="qcurve"/>
      <point x="25" y="779" type="line"/>
      <point x="270" y="779" type="line"/>
      <point x="270" y="-150" type="line"/>
      <point x="25" y="-150" type="line"/>
      <point x="25" y="-53" type="line"/>
      <point x="174" y="-53" type="line"/>
      <point x="174" y="684" type="line"/>
      <point x="153" y="682"/>
      <point x="102" y="682"/>
      <point x="41" y="684"/>
    </contour>
  </outline>
</glyph>
<glyph name="asciicircum" format="2">
  <advance width="652"/>
  <unicode hex="005E"/>
  <outline>
    <contour>
      <point x="254" y="779" type="qcurve"/>
      <point x="259" y="779" type="line"/>
      <point x="392" y="779" type="line"/>
      <point x="627" y="322" type="line"/>
      <point x="461" y="322" type="line"/>
      <point x="439" y="364"/>
      <point x="348" y="544"/>
      <point x="323" y="592" type="qcurve"/>
      <point x="307" y="562"/>
      <point x="213" y="375"/>
      <point x="185" y="322" type="qcurve"/>
      <point x="25" y="322" type="line"/>
      <point x="58" y="389"/>
      <point x="213" y="694"/>
      <point x="254" y="779" type="qcurve"/>
      <point x="259" y="779" type="line"/>
      <point x="392" y="779" type="line"/>
      <point x="627" y="322" type="line"/>
      <point x="461" y="322" type="line"/>
      <point x="439" y="364"/>
      <point x="348" y="544"/>
      <point x="323" y="592" type="qcurve"/>
      <point x="307" y="562"/>
      <point x="213" y="375"/>
      <point x="185" y="322" type="qcurve"/>
      <point x="25" y="322" type="line"/>
      <point x="58" y="389"/>
      <point x="213" y="694"/>
      <point x="254" y="779" type="qcurve"/>
      <point x="259" y="779" type="line"/>
      <point x="392" y="779" type="line"/>
      <point x="627" y="322" type="line"/>
      <point x="461" y="322" type="line"/>
      <point x="439" y="364"/>
      <point x="348" y="544"/>
      <point x="323" y="592" type="qcurve"/>
      <point x="307" y="562"/>
      <point x="213" y="375"/>
      <point x="185" y="322" type="qcurve"/>
      <point x="25" y="322" type="line"/>
      <point x="58" y="389"/>
      <point x="213" y="694"/>
    </contour>
  </outline>
</glyph>
<glyph name="grave" format="2">
  <advance width="447"/>
  <unicode hex="0060"/>
  <outline>
    <contour>
      <point x="25" y="779" type="qcurve"/>
      <point x="322" y="779" type="line"/>
      <point x="324" y="771"/>
      <point x="334" y="744"/>
      <point x="337" y="736" type="qcurve" smooth="yes"/>
      <point x="422" y="587" type="line"/>
      <point x="249" y="587" type="line"/>
      <point x="204" y="624"/>
      <point x="44" y="763"/>
      <point x="25" y="779" type="qcurve"/>
      <point x="322" y="779" type="line"/>
      <point x="324" y="771"/>
      <point x="334" y="744"/>
      <point x="337" y="736" type="qcurve" smooth="yes"/>
      <point x="422" y="587" type="line"/>
      <point x="249" y="587" type="line"/>
      <point x="204" y="624"/>
      <point x="44" y="763"/>
      <point x="25" y="779" type="qcurve"/>
      <point x="322" y="779" type="line"/>
      <point x="324" y="771"/>
      <point x="334" y="744"/>
      <point x="337" y="736" type="qcurve" smooth="yes"/>
      <point x="422" y="587" type="line"/>
      <point x="249" y="587" type="line"/>
      <point x="204" y="624"/>
      <point x="44" y="763"/>
    </contour>
  </outline>
</glyph>
<glyph name="m" format="2">
  <advance width="1291"/>
  <unicode hex="006D"/>
  <outline>
    <contour>
      <point x="25" y="699" type="qcurve"/>
      <point x="25" y="699"/>
      <point x="477" y="699" type="qcurve"/>
      <point x="507" y="628"/>
      <point x="620" y="347"/>
      <point x="650" y="276" type="qcurve"/>
      <point x="670" y="326"/>
      <point x="790" y="618"/>
      <point x="822" y="699" type="qcurve"/>
      <point x="1266" y="699"/>
      <point x="1266" y="699" type="qcurve"/>
      <point x="1242" y="685"/>
      <point x="1215" y="633"/>
      <point x="1216" y="605" type="qcurve" smooth="yes"/>
      <point x="1216" y="90" type="line" smooth="yes"/>
      <point x="1216" y="30"/>
      <point x="1265" y="0" type="qcurve"/>
      <point x="894" y="0"/>
      <point x="894" y="0" type="qcurve"/>
      <point x="931" y="19"/>
      <point x="933" y="85" type="qcurve" smooth="yes"/>
      <point x="933" y="479" type="line"/>
      <point x="898" y="392"/>
      <point x="765" y="70"/>
      <point x="737" y="0" type="qcurve"/>
      <point x="494" y="0" type="line"/>
      <point x="300" y="472" type="line"/>
      <point x="300" y="85" type="line" smooth="yes"/>
      <point x="302" y="20"/>
      <point x="339" y="0" type="qcurve"/>
      <point x="25" y="0" type="line"/>
      <point x="75" y="31"/>
      <point x="75" y="90" type="qcurve" smooth="yes"/>
      <point x="75" y="605" type="line" smooth="yes"/>
      <point x="76" y="633"/>
      <point x="49" y="685"/>
    </contour>
  </outline>
</glyph>
<glyph name="p" format="2">
  <advance width="931"/>
  <unicode hex="0070"/>
  <outline>
    <contour>
      <point x="25" y="698" type="qcurve"/>
      <point x="611" y="698" type="line" smooth="yes"/>
      <point x="743" y="696"/>
      <point x="818" y="648" type="qcurve" smooth="yes"/>
      <point x="887" y="605"/>
      <point x="901" y="526" type="qcurve" smooth="yes"/>
      <point x="913" y="466"/>
      <point x="884" y="348"/>
      <point x="843" y="305" type="qcurve" smooth="yes"/>
      <point x="764" y="220"/>
      <point x="615" y="215" type="qcurve"/>
      <point x="358" y="215" type="line"/>
      <point x="358" y="90" type="line" smooth="yes"/>
      <point x="358" y="63"/>
      <point x="385" y="14"/>
      <point x="409" y="0" type="qcurve"/>
      <point x="25" y="0" type="line"/>
      <point x="49" y="14"/>
      <point x="77" y="66"/>
      <point x="76" y="96" type="qcurve" smooth="yes"/>
      <point x="76" y="96"/>
      <point x="76" y="605" type="qcurve" smooth="yes"/>
      <point x="76" y="634"/>
      <point x="49" y="684"/>
    </contour>
    <contour>
      <point x="500" y="552" type="qcurve" smooth="yes"/>
      <point x="358" y="552" type="line"/>
      <point x="358" y="358" type="line"/>
      <point x="505" y="358" type="line" smooth="yes"/>
      <point x="563" y="358"/>
      <point x="591" y="386" type="qcurve" smooth="yes"/>
      <point x="623" y="418"/>
      <point x="618" y="472" type="qcurve" smooth="yes"/>
      <point x="616" y="510"/>
      <point x="588" y="529" type="qcurve" smooth="yes"/>
      <point x="560" y="550"/>
    </contour>
  </outline>
</glyph>
<glyph name="q" format="2">
  <advance width="1016"/>
  <unicode hex="0071"/>
  <outline>
    <contour>
      <point x="280" y="690" type="qcurve" smooth="yes"/>
      <point x="414" y="726"/>
      <point x="592" y="714" type="qcurve" smooth="yes"/>
      <point x="783" y="699"/>
      <point x="884" y="611" type="qcurve" smooth="yes"/>
      <point x="930" y="570"/>
      <point x="983" y="453"/>
      <point x="989" y="388" type="qcurve" smooth="yes"/>
      <point x="1004" y="212"/>
      <point x="920" y="113" type="qcurve" smooth="yes"/>
      <point x="844" y="20"/>
      <point x="674" y="-10" type="qcurve"/>
      <point x="782" y="-175" type="line"/>
      <point x="509" y="-175" type="line"/>
      <point x="476" y="-24" type="line"/>
      <point x="376" y="-21"/>
      <point x="212" y="14"/>
      <point x="147" y="59" type="qcurve" smooth="yes"/>
      <point x="96" y="94"/>
      <point x="36" y="207"/>
      <point x="30" y="272" type="qcurve" smooth="yes"/>
      <point x="10" y="447"/>
      <point x="80" y="554" type="qcurve" smooth="yes"/>
      <point x="138" y="649"/>
    </contour>
    <contour>
      <point x="472" y="564" type="qcurve" smooth="yes"/>
      <point x="415" y="552"/>
      <point x="387" y="513" type="qcurve" smooth="yes"/>
      <point x="353" y="464"/>
      <point x="348" y="382" type="qcurve" smooth="yes"/>
      <point x="343" y="303"/>
      <point x="354" y="247" type="qcurve" smooth="yes"/>
      <point x="369" y="180"/>
      <point x="410" y="153" type="qcurve" smooth="yes"/>
      <point x="455" y="122"/>
      <point x="539" y="130" type="qcurve" smooth="yes"/>
      <point x="571" y="133"/>
      <point x="626" y="164"/>
      <point x="641" y="191" type="qcurve" smooth="yes"/>
      <point x="660" y="226"/>
      <point x="670" y="307"/>
      <point x="669" y="361" type="qcurve" smooth="yes"/>
      <point x="663" y="473"/>
      <point x="621" y="523" type="qcurve" smooth="yes"/>
      <point x="595" y="552"/>
      <point x="515" y="571"/>
    </contour>
  </outline>
</glyph>
<glyph name="s" format="2">
  <advance width="741"/>
  <unicode hex="0073"/>
  <outline>
    <contour>
      <point x="153" y="667" type="qcurve" smooth="yes"/>
      <point x="263" y="721"/>
      <point x="432" y="716" type="qcurve" smooth="yes"/>
      <point x="573" y="714"/>
      <point x="672" y="674" type="qcurve"/>
      <point x="672" y="471" type="line"/>
      <point x="556" y="562"/>
      <point x="411" y="567" type="qcurve" smooth="yes"/>
      <point x="352" y="569"/>
      <point x="329" y="555" type="qcurve" smooth="yes"/>
      <point x="312" y="544"/>
      <point x="317" y="497"/>
      <point x="335" y="487" type="qcurve" smooth="yes"/>
      <point x="347" y="479"/>
      <point x="377" y="468"/>
      <point x="417" y="456"/>
      <point x="427" y="453" type="qcurve" smooth="yes"/>
      <point x="436" y="450"/>
      <point x="494" y="434"/>
      <point x="518" y="426"/>
      <point x="567" y="409"/>
      <point x="597" y="395"/>
      <point x="635" y="374"/>
      <point x="651" y="362" type="qcurve" smooth="yes"/>
      <point x="710" y="318"/>
      <point x="715" y="239" type="qcurve" smooth="yes"/>
      <point x="720" y="189"/>
      <point x="682" y="97"/>
      <point x="645" y="64" type="qcurve" smooth="yes"/>
      <point x="562" y="-10"/>
      <point x="401" y="-23" type="qcurve"/>
      <point x="194" y="-30"/>
      <point x="40" y="23" type="qcurve"/>
      <point x="40" y="227" type="line"/>
      <point x="192" y="128"/>
      <point x="348" y="121" type="qcurve" smooth="yes"/>
      <point x="363" y="121"/>
      <point x="390" y="120"/>
      <point x="420" y="127"/>
      <point x="432" y="134" type="qcurve" smooth="yes"/>
      <point x="444" y="143"/>
      <point x="449" y="171"/>
      <point x="438" y="180" type="qcurve" smooth="yes"/>
      <point x="431" y="185"/>
      <point x="417" y="193"/>
      <point x="394" y="202"/>
      <point x="391" y="203" type="qcurve" smooth="yes"/>
      <point x="358" y="214"/>
      <point x="227" y="256"/>
      <point x="195" y="268" type="qcurve" smooth="yes"/>
      <point x="99" y="304"/>
      <point x="60" y="355" type="qcurve" smooth="yes"/>
      <point x="7" y="428"/>
      <point x="33" y="531" type="qcurve" smooth="yes"/>
      <point x="44" y="575"/>
      <point x="109" y="646"/>
    </contour>
  </outline>
</glyph>
<glyph name="v" format="2">
  <advance width="1130"/>
  <unicode hex="0076"/>
  <outline>
    <contour>
      <point x="25" y="701" type="qcurve"/>
      <point x="461" y="701"/>
      <point x="461" y="701" type="qcurve"/>
      <point x="440" y="688"/>
      <point x="435" y="676" type="qcurve" smooth="yes"/>
      <point x="423" y="650"/>
      <point x="441" y="604" type="qcurve" smooth="yes"/>
      <point x="581" y="244" type="line"/>
      <point x="685" y="506"/>
      <point x="723" y="604" type="qcurve" smooth="yes"/>
      <point x="741" y="650"/>
      <point x="729" y="675" type="qcurve" smooth="yes"/>
      <point x="725" y="687"/>
      <point x="703" y="701" type="qcurve"/>
      <point x="703" y="701"/>
      <point x="1105" y="701" type="qcurve"/>
      <point x="1051" y="673"/>
      <point x="1028" y="644" type="qcurve" smooth="yes"/>
      <point x="1020" y="635"/>
      <point x="993" y="578" type="qcurve" smooth="yes"/>
      <point x="778" y="92" type="line" smooth="yes"/>
      <point x="752" y="42"/>
      <point x="751" y="1" type="qcurve"/>
      <point x="379" y="1" type="line"/>
      <point x="376" y="41"/>
      <point x="357" y="80" type="qcurve" smooth="yes"/>
      <point x="209" y="411"/>
      <point x="124" y="607" type="qcurve" smooth="yes"/>
      <point x="96" y="668"/>
    </contour>
  </outline>
</glyph>
<glyph name="braceleft" format="2">
  <advance width="399"/>
  <unicode hex="007B"/>
  <outline>
    <contour>
      <point x="200" y="752" type="qcurve" smooth="yes"/>
      <point x="211" y="760"/>
      <point x="234" y="771"/>
      <point x="263" y="778"/>
      <point x="282" y="782"/>
      <point x="317" y="784"/>
      <point x="330" y="784"/>
      <point x="370" y="784"/>
      <point x="374" y="784" type="qcurve"/>
      <point x="374" y="694" type="line"/>
      <point x="369" y="694"/>
      <point x="332" y="695"/>
      <point x="315" y="694"/>
      <point x="289" y="689"/>
      <point x="280" y="684" type="qcurve" smooth="yes"/>
      <point x="276" y="682"/>
      <point x="268" y="675"/>
      <point x="263" y="666"/>
      <point x="259" y="659"/>
      <point x="255" y="646"/>
      <point x="253" y="638"/>
      <point x="249" y="622"/>
      <point x="248" y="619" type="qcurve" smooth="yes"/>
      <point x="248" y="364" type="line" smooth="yes"/>
      <point x="248" y="315"/>
      <point x="222" y="284" type="qcurve"/>
      <point x="198" y="262"/>
      <point x="153" y="253" type="qcurve"/>
      <point x="156" y="252"/>
      <point x="179" y="246"/>
      <point x="189" y="243"/>
      <point x="207" y="236"/>
      <point x="220" y="227"/>
      <point x="227" y="221" type="qcurve" smooth="yes"/>
      <point x="248" y="189"/>
      <point x="248" y="136" type="qcurve" smooth="yes"/>
      <point x="248" y="-85" type="line" smooth="yes"/>
      <point x="248" y="-134"/>
      <point x="259" y="-155" type="qcurve" smooth="yes"/>
      <point x="267" y="-167"/>
      <point x="300" y="-182" type="qcurve" smooth="yes"/>
      <point x="312" y="-184"/>
      <point x="362" y="-184"/>
      <point x="374" y="-187" type="qcurve"/>
      <point x="374" y="-277" type="line"/>
      <point x="335" y="-277"/>
      <point x="292" y="-275"/>
      <point x="226" y="-260"/>
      <point x="200" y="-245" type="qcurve" smooth="yes"/>
      <point x="170" y="-232"/>
      <point x="137" y="-161"/>
      <point x="137" y="-125" type="qcurve" smooth="yes"/>
      <point x="137" y="125" type="line" smooth="yes"/>
      <point x="137" y="169"/>
      <point x="104" y="179" type="qcurve" smooth="yes"/>
      <point x="92" y="184"/>
      <point x="68" y="186"/>
      <point x="31" y="184"/>
      <point x="25" y="184" type="qcurve"/>
      <point x="25" y="322" type="line"/>
      <point x="31" y="322"/>
      <point x="57" y="321"/>
      <point x="73" y="321"/>
      <point x="95" y="324"/>
      <point x="104" y="328" type="qcurve" smooth="yes"/>
      <point x="137" y="344"/>
      <point x="137" y="381" type="qcurve" smooth="yes"/>
      <point x="137" y="624" type="line" smooth="yes"/>
      <point x="137" y="712"/>
      <point x="200" y="752" type="qcurve" smooth="yes"/>
      <point x="211" y="760"/>
      <point x="234" y="771"/>
      <point x="263" y="778"/>
      <point x="282" y="782"/>
      <point x="317" y="784"/>
      <point x="330" y="784"/>
      <point x="370" y="784"/>
      <point x="374" y="784" type="qcurve"/>
      <point x="374" y="694" type="line"/>
      <point x="369" y="694"/>
      <point x="332" y="695"/>
      <point x="315" y="694"/>
      <point x="289" y="689"/>
      <point x="280" y="684" type="qcurve" smooth="yes"/>
      <point x="276" y="682"/>
      <point x="268" y="675"/>
      <point x="263" y="666"/>
      <point x="259" y="659"/>
      <point x="255" y="646"/>
      <point x="253" y="638"/>
      <point x="249" y="622"/>
      <point x="248" y="619" type="qcurve" smooth="yes"/>
      <point x="248" y="364" type="line" smooth="yes"/>
      <point x="248" y="315"/>
      <point x="222" y="284" type="qcurve"/>
      <point x="198" y="262"/>
      <point x="153" y="253" type="qcurve"/>
      <point x="156" y="252"/>
      <point x="179" y="246"/>
      <point x="189" y="243"/>
      <point x="207" y="236"/>
      <point x="220" y="227"/>
      <point x="227" y="221" type="qcurve" smooth="yes"/>
      <point x="248" y="189"/>
      <point x="248" y="136" type="qcurve" smooth="yes"/>
      <point x="248" y="-85" type="line" smooth="yes"/>
      <point x="248" y="-134"/>
      <point x="259" y="-155" type="qcurve" smooth="yes"/>
      <point x="267" y="-167"/>
      <point x="300" y="-182" type="qcurve" smooth="yes"/>
      <point x="312" y="-184"/>
      <point x="362" y="-184"/>
      <point x="374" y="-187" type="qcurve"/>
      <point x="374" y="-277" type="line"/>
      <point x="335" y="-277"/>
      <point x="292" y="-275"/>
      <point x="226" y="-260"/>
      <point x="200" y="-245" type="qcurve" smooth="yes"/>
      <point x="170" y="-232"/>
      <point x="137" y="-161"/>
      <point x="137" y="-125" type="qcurve" smooth="yes"/>
      <point x="137" y="125" type="line" smooth="yes"/>
      <point x="137" y="169"/>
      <point x="104" y="179" type="qcurve" smooth="yes"/>
      <point x="92" y="184"/>
      <point x="68" y="186"/>
      <point x="31" y="184"/>
      <point x="25" y="184" type="qcurve"/>
      <point x="25" y="322" type="line"/>
      <point x="31" y="322"/>
      <point x="57" y="321"/>
      <point x="73" y="321"/>
      <point x="95" y="324"/>
      <point x="104" y="328" type="qcurve" smooth="yes"/>
      <point x="137" y="344"/>
      <point x="137" y="381" type="qcurve" smooth="yes"/>
      <point x="137" y="624" type="line" smooth="yes"/>
      <point x="137" y="712"/>
      <point x="200" y="752" type="qcurve" smooth="yes"/>
      <point x="211" y="760"/>
      <point x="234" y="771"/>
      <point x="263" y="778"/>
      <point x="282" y="782"/>
      <point x="317" y="784"/>
      <point x="330" y="784"/>
      <point x="370" y="784"/>
      <point x="374" y="784" type="qcurve"/>
      <point x="374" y="694" type="line"/>
      <point x="369" y="694"/>
      <point x="332" y="695"/>
      <point x="315" y="694"/>
      <point x="289" y="689"/>
      <point x="280" y="684" type="qcurve" smooth="yes"/>
      <point x="276" y="682"/>
      <point x="268" y="675"/>
      <point x="263" y="666"/>
      <point x="259" y="659"/>
      <point x="255" y="646"/>
      <point x="253" y="638"/>
      <point x="249" y="622"/>
      <point x="248" y="619" type="qcurve" smooth="yes"/>
      <point x="248" y="364" type="line" smooth="yes"/>
      <point x="248" y="315"/>
      <point x="222" y="284" type="qcurve"/>
      <point x="198" y="262"/>
      <point x="153" y="253" type="qcurve"/>
      <point x="156" y="252"/>
      <point x="179" y="246"/>
      <point x="189" y="243"/>
      <point x="207" y="236"/>
      <point x="220" y="227"/>
      <point x="227" y="221" type="qcurve" smooth="yes"/>
      <point x="248" y="189"/>
      <point x="248" y="136" type="qcurve" smooth="yes"/>
      <point x="248" y="-85" type="line" smooth="yes"/>
      <point x="248" y="-134"/>
      <point x="259" y="-155" type="qcurve" smooth="yes"/>
      <point x="267" y="-167"/>
      <point x="300" y="-182" type="qcurve" smooth="yes"/>
      <point x="312" y="-184"/>
      <point x="362" y="-184"/>
      <point x="374" y="-187" type="qcurve"/>
      <point x="374" y="-277" type="line"/>
      <point x="335" y="-277"/>
      <point x="292" y="-275"/>
      <point x="226" y="-260"/>
      <point x="200" y="-245" type="qcurve" smooth="yes"/>
      <point x="170" y="-232"/>
      <point x="137" y="-161"/>
      <point x="137" y="-125" type="qcurve" smooth="yes"/>
      <point x="137" y="125" type="line" smooth="yes"/>
      <point x="137" y="169"/>
      <point x="104" y="179" type="qcurve" smooth="yes"/>
      <point x="92" y="184"/>
      <point x="68" y="186"/>
      <point x="31" y="184"/>
      <point x="25" y="184" type="qcurve"/>
      <point x="25" y="322" type="line"/>
      <point x="31" y="322"/>
      <point x="57" y="321"/>
      <point x="73" y="321"/>
      <point x="95" y="324"/>
      <point x="104" y="328" type="qcurve" smooth="yes"/>
      <point x="137" y="344"/>
      <point x="137" y="381" type="qcurve" smooth="yes"/>
      <point x="137" y="624" type="line" smooth="yes"/>
      <point x="137" y="712"/>
    </contour>
  </outline>
</glyph>
<glyph name="cent" format="2">
  <advance width="467"/>
  <unicode hex="00A2"/>
  <outline>
    <contour>
      <point x="281" y="229" type="qcurve" smooth="yes"/>
      <point x="312" y="229"/>
      <point x="357" y="245"/>
      <point x="371" y="251" type="qcurve"/>
      <point x="441" y="159" type="line"/>
      <point x="427" y="146"/>
      <point x="362" y="119"/>
      <point x="321" y="113" type="qcurve"/>
      <point x="321" y="1" type="line"/>
      <point x="200" y="1" type="line"/>
      <point x="200" y="119" type="line"/>
      <point x="119" y="138"/>
      <point x="25" y="255"/>
      <point x="25" y="350" type="qcurve" smooth="yes"/>
      <point x="25" y="443"/>
      <point x="122" y="560"/>
      <point x="200" y="580" type="qcurve"/>
      <point x="200" y="697" type="line"/>
      <point x="321" y="697" type="line"/>
      <point x="321" y="587" type="line"/>
      <point x="366" y="582"/>
      <point x="425" y="556"/>
      <point x="442" y="539" type="qcurve"/>
      <point x="371" y="449" type="line"/>
      <point x="365" y="451"/>
      <point x="349" y="458"/>
      <point x="328" y="466"/>
      <point x="300" y="471"/>
      <point x="281" y="471" type="qcurve" smooth="yes"/>
      <point x="236" y="471"/>
      <point x="174" y="412"/>
      <point x="174" y="350" type="qcurve" smooth="yes"/>
      <point x="174" y="289"/>
      <point x="230" y="229"/>
    </contour>
  </outline>
</glyph>
<glyph name="currency" format="2">
  <advance width="560"/>
  <unicode hex="00A4"/>
  <outline>
    <contour>
      <point x="280" y="421" type="qcurve" smooth="yes"/>
      <point x="236" y="421"/>
      <point x="213" y="398" type="qcurve" smooth="yes"/>
      <point x="190" y="376"/>
      <point x="190" y="339" type="qcurve" smooth="yes"/>
      <point x="189" y="308"/>
      <point x="213" y="284" type="qcurve" smooth="yes"/>
      <point x="236" y="260"/>
      <point x="280" y="259" type="qcurve" smooth="yes"/>
      <point x="323" y="260"/>
      <point x="347" y="284" type="qcurve" smooth="yes"/>
      <point x="371" y="308"/>
      <point x="371" y="339" type="qcurve" smooth="yes"/>
      <point x="371" y="376"/>
      <point x="348" y="399" type="qcurve" smooth="yes"/>
      <point x="325" y="421"/>
    </contour>
    <contour>
      <point x="451" y="418" type="line"/>
      <point x="465" y="383"/>
      <point x="465" y="341" type="qcurve" smooth="yes"/>
      <point x="465" y="301"/>
      <point x="450" y="268" type="qcurve" smooth="yes"/>
      <point x="450" y="267"/>
      <point x="449" y="266" type="qcurve"/>
      <point x="529" y="186" type="line"/>
      <point x="433" y="90" type="line"/>
      <point x="348" y="175" type="line"/>
      <point x="317" y="164"/>
      <point x="281" y="163" type="qcurve" smooth="yes"/>
      <point x="241" y="164"/>
      <point x="209" y="175" type="qcurve"/>
      <point x="127" y="94" type="line"/>
      <point x="31" y="190" type="line"/>
      <point x="109" y="268" type="line"/>
      <point x="97" y="300"/>
      <point x="97" y="341" type="qcurve" smooth="yes"/>
      <point x="97" y="380"/>
      <point x="110" y="412" type="qcurve"/>
      <point x="110" y="412"/>
      <point x="110" y="413" type="qcurve" smooth="yes"/>
      <point x="25" y="498" type="line"/>
      <point x="121" y="594" type="line"/>
      <point x="208" y="507" type="line"/>
      <point x="240" y="518"/>
      <point x="281" y="519" type="qcurve" smooth="yes"/>
      <point x="319" y="518"/>
      <point x="350" y="509" type="qcurve"/>
      <point x="439" y="598" type="line"/>
      <point x="535" y="502" type="line"/>
    </contour>
  </outline>
</glyph>
<glyph name="dieresis" format="2">
  <advance width="544"/>
  <unicode hex="00A8"/>
  <outline>
    <contour>
      <point x="404" y="520" type="qcurve" smooth="yes"/>
      <point x="354" y="520"/>
      <point x="290" y="574"/>
      <point x="290" y="620" type="qcurve" smooth="yes"/>
      <point x="290" y="642"/>
      <point x="305" y="679"/>
      <point x="335" y="706"/>
      <point x="377" y="721"/>
      <point x="404" y="721" type="qcurve" smooth="yes"/>
      <point x="459" y="721"/>
      <point x="519" y="665"/>
      <point x="519" y="620" type="qcurve" smooth="yes"/>
      <point x="519" y="598"/>
      <point x="500" y="561"/>
      <point x="470" y="535"/>
      <point x="428" y="520"/>
    </contour>
    <contour>
      <point x="139" y="520" type="qcurve" smooth="yes"/>
      <point x="89" y="520"/>
      <point x="25" y="574"/>
      <point x="25" y="620" type="qcurve" smooth="yes"/>
      <point x="25" y="642"/>
      <point x="40" y="679"/>
      <point x="69" y="706"/>
      <point x="112" y="721"/>
      <point x="139" y="721" type="qcurve" smooth="yes"/>
      <point x="194" y="721"/>
      <point x="253" y="665"/>
      <point x="253" y="620" type="qcurve" smooth="yes"/>
      <point x="253" y="598"/>
      <point x="235" y="561"/>
      <point x="205" y="535"/>
      <point x="163" y="520"/>
    </contour>
  </outline>
</glyph>
<glyph name="copyright" format="2">
  <advance width="767"/>
  <unicode hex="00A9"/>
  <outline>
    <contour>
      <point x="742" y="337" type="qcurve" smooth="yes"/>
      <point x="742" y="273"/>
      <point x="689" y="152"/>
      <point x="594" y="57"/>
      <point x="463" y="0"/>
      <point x="383" y="0" type="qcurve" smooth="yes"/>
      <point x="304" y="0"/>
      <point x="172" y="57"/>
      <point x="77" y="152"/>
      <point x="25" y="273"/>
      <point x="25" y="337" type="qcurve" smooth="yes"/>
      <point x="25" y="401"/>
      <point x="77" y="522"/>
      <point x="172" y="617"/>
      <point x="304" y="674"/>
      <point x="383" y="674" type="qcurve" smooth="yes"/>
      <point x="463" y="674"/>
      <point x="594" y="617"/>
      <point x="689" y="522"/>
      <point x="742" y="401"/>
    </contour>
    <contour>
      <point x="186" y="337" type="qcurve" smooth="yes"/>
      <point x="186" y="295"/>
      <point x="217" y="221"/>
      <point x="269" y="165"/>
      <point x="342" y="134"/>
      <point x="383" y="134" type="qcurve" smooth="yes"/>
      <point x="425" y="134"/>
      <point x="497" y="165"/>
      <point x="550" y="221"/>
      <point x="581" y="295"/>
      <point x="581" y="337" type="qcurve" smooth="yes"/>
      <point x="581" y="379"/>
      <point x="550" y="453"/>
      <point x="497" y="508"/>
      <point x="425" y="540"/>
      <point x="383" y="540" type="qcurve" smooth="yes"/>
      <point x="342" y="540"/>
      <point x="269" y="508"/>
      <point x="217" y="453"/>
      <point x="186" y="379"/>
    </contour>
    <contour>
      <point x="490" y="235" type="line"/>
      <point x="477" y="218"/>
      <point x="423" y="189"/>
      <point x="377" y="189" type="qcurve" smooth="yes"/>
      <point x="348" y="189"/>
      <point x="297" y="210"/>
      <point x="259" y="250"/>
      <point x="237" y="305"/>
      <point x="237" y="339" type="qcurve" smooth="yes"/>
      <point x="237" y="372"/>
      <point x="259" y="427"/>
      <point x="297" y="467"/>
      <point x="348" y="488"/>
      <point x="377" y="488" type="qcurve" smooth="yes"/>
      <point x="425" y="488"/>
      <point x="473" y="462"/>
      <point x="490" y="442" type="qcurve"/>
      <point x="439" y="366" type="line"/>
      <point x="427" y="374"/>
      <point x="408" y="374" type="qcurve" smooth="yes"/>
      <point x="391" y="374"/>
      <point x="374" y="353"/>
      <point x="374" y="339" type="qcurve" smooth="yes"/>
      <point x="374" y="324"/>
      <point x="393" y="304"/>
      <point x="410" y="304" type="qcurve" smooth="yes"/>
      <point x="419" y="304"/>
      <point x="435" y="308"/>
      <point x="438" y="312" type="qcurve"/>
    </contour>
  </outline>
</glyph>
<glyph name="guillemotleft" format="2">
  <advance width="844"/>
  <unicode hex="00AB"/>
  <outline>
    <contour>
      <point x="420" y="302" type="qcurve"/>
      <point x="420" y="413" type="line"/>
      <point x="684" y="515"/>
      <point x="814" y="568" type="qcurve"/>
      <point x="814" y="556"/>
      <point x="817" y="515"/>
      <point x="817" y="483"/>
      <point x="814" y="470" type="qcurve"/>
      <point x="652" y="403"/>
      <point x="526" y="358" type="qcurve"/>
      <point x="571" y="340"/>
      <point x="764" y="266"/>
      <point x="814" y="245" type="qcurve"/>
      <point x="817" y="228"/>
      <point x="817" y="160"/>
      <point x="819" y="142" type="qcurve"/>
      <point x="746" y="171"/>
      <point x="477" y="279"/>
    </contour>
    <contour>
      <point x="25" y="302" type="qcurve"/>
      <point x="25" y="413" type="line"/>
      <point x="289" y="515"/>
      <point x="420" y="568" type="qcurve"/>
      <point x="420" y="556"/>
      <point x="422" y="515"/>
      <point x="422" y="483"/>
      <point x="420" y="470" type="qcurve"/>
      <point x="257" y="403"/>
      <point x="132" y="358" type="qcurve"/>
      <point x="177" y="340"/>
      <point x="370" y="266"/>
      <point x="420" y="245" type="qcurve"/>
      <point x="422" y="228"/>
      <point x="422" y="160"/>
      <point x="424" y="142" type="qcurve"/>
      <point x="351" y="171"/>
      <point x="82" y="279"/>
    </contour>
  </outline>
</glyph>
<glyph name="acute" format="2">
  <advance width="447"/>
  <unicode hex="00B4"/>
  <outline>
    <contour>
      <point x="422" y="717" type="qcurve"/>
      <point x="125" y="717" type="line"/>
      <point x="123" y="709"/>
      <point x="113" y="682"/>
      <point x="110" y="674" type="qcurve" smooth="yes"/>
      <point x="25" y="525" type="line"/>
      <point x="198" y="525" type="line"/>
      <point x="243" y="562"/>
      <point x="403" y="701"/>
      <point x="422" y="717" type="qcurve"/>
      <point x="125" y="717" type="line"/>
      <point x="123" y="709"/>
      <point x="113" y="682"/>
      <point x="110" y="674" type="qcurve" smooth="yes"/>
      <point x="25" y="525" type="line"/>
      <point x="198" y="525" type="line"/>
      <point x="243" y="562"/>
      <point x="403" y="701"/>
      <point x="422" y="717" type="qcurve"/>
      <point x="125" y="717" type="line"/>
      <point x="123" y="709"/>
      <point x="113" y="682"/>
      <point x="110" y="674" type="qcurve" smooth="yes"/>
      <point x="25" y="525" type="line"/>
      <point x="198" y="525" type="line"/>
      <point x="243" y="562"/>
      <point x="403" y="701"/>
    </contour>
  </outline>
</glyph>
<glyph name="paragraph" format="2">
  <advance width="450"/>
  <unicode hex="00B6"/>
  <outline>
    <contour>
      <point x="345" y="-100" type="line"/>
      <point x="345" y="587" type="line"/>
      <point x="277" y="587" type="line"/>
      <point x="277" y="-100" type="line"/>
      <point x="197" y="-100" type="line"/>
      <point x="197" y="323" type="line"/>
      <point x="126" y="323"/>
      <point x="75" y="373" type="qcurve" smooth="yes"/>
      <point x="25" y="424"/>
      <point x="25" y="495" type="qcurve" smooth="yes"/>
      <point x="25" y="566"/>
      <point x="75" y="617" type="qcurve" smooth="yes"/>
      <point x="126" y="667"/>
      <point x="197" y="667" type="qcurve" smooth="yes"/>
      <point x="425" y="667" type="line"/>
      <point x="425" y="-100" type="line"/>
    </contour>
  </outline>
</glyph>
<glyph name="ordmasculine" format="2">
  <advance width="277"/>
  <unicode hex="00BA"/>
  <outline>
    <contour>
      <point x="139" y="289" type="qcurve" smooth="yes"/>
      <point x="89" y="289"/>
      <point x="25" y="342"/>
      <point x="25" y="389" type="qcurve" smooth="yes"/>
      <point x="25" y="410"/>
      <point x="40" y="447"/>
      <point x="69" y="473"/>
      <point x="111" y="488"/>
      <point x="139" y="488" type="qcurve" smooth="yes"/>
      <point x="193" y="488"/>
      <point x="252" y="433"/>
      <point x="252" y="389" type="qcurve" smooth="yes"/>
      <point x="252" y="366"/>
      <point x="234" y="329"/>
      <point x="204" y="303"/>
      <point x="162" y="289"/>
    </contour>
    <contour>
      <point x="139" y="420" type="qcurve" smooth="yes"/>
      <point x="120" y="420"/>
      <point x="100" y="402"/>
      <point x="100" y="388" type="qcurve" smooth="yes"/>
      <point x="100" y="376"/>
      <point x="120" y="357"/>
      <point x="139" y="357" type="qcurve" smooth="yes"/>
      <point x="157" y="357"/>
      <point x="177" y="376"/>
      <point x="177" y="388" type="qcurve" smooth="yes"/>
      <point x="177" y="402"/>
      <point x="157" y="420"/>
    </contour>
  </outline>
</glyph>
<glyph name="guillemotright" format="2">
  <advance width="844"/>
  <unicode hex="00BB"/>
  <outline>
    <contour>
      <point x="424" y="302" type="qcurve"/>
      <point x="424" y="413" type="line"/>
      <point x="160" y="515"/>
      <point x="29" y="568" type="qcurve"/>
      <point x="29" y="556"/>
      <point x="27" y="515"/>
      <point x="27" y="483"/>
      <point x="29" y="470" type="qcurve"/>
      <point x="192" y="403"/>
      <point x="317" y="358" type="qcurve"/>
      <point x="272" y="340"/>
      <point x="79" y="266"/>
      <point x="29" y="245" type="qcurve"/>
      <point x="27" y="228"/>
      <point x="27" y="160"/>
      <point x="25" y="142" type="qcurve"/>
      <point x="98" y="171"/>
      <point x="367" y="279"/>
    </contour>
    <contour>
      <point x="819" y="302" type="qcurve"/>
      <point x="819" y="413" type="line"/>
      <point x="555" y="515"/>
      <point x="424" y="568" type="qcurve"/>
      <point x="424" y="556"/>
      <point x="422" y="515"/>
      <point x="422" y="483"/>
      <point x="424" y="470" type="qcurve"/>
      <point x="586" y="403"/>
      <point x="712" y="358" type="qcurve"/>
      <point x="667" y="340"/>
      <point x="474" y="266"/>
      <point x="424" y="245" type="qcurve"/>
      <point x="422" y="228"/>
      <point x="422" y="160"/>
      <point x="420" y="142" type="qcurve"/>
      <point x="493" y="171"/>
      <point x="761" y="279"/>
    </contour>
  </outline>
</glyph>
<glyph name="onequarter" format="2">
  <advance width="603"/>
  <unicode hex="00BC"/>
  <outline>
    <contour>
      <point x="428" y="338" type="qcurve"/>
      <point x="539" y="338" type="line"/>
      <point x="539" y="212" type="line"/>
      <point x="546" y="212"/>
      <point x="571" y="212"/>
      <point x="578" y="212" type="qcurve"/>
      <point x="578" y="159" type="line"/>
      <point x="539" y="159" type="line"/>
      <point x="539" y="140" type="line" smooth="yes"/>
      <point x="540" y="120"/>
      <point x="556" y="110" type="qcurve"/>
      <point x="493" y="111"/>
      <point x="431" y="110" type="qcurve"/>
      <point x="447" y="120"/>
      <point x="447" y="140" type="qcurve" smooth="yes"/>
      <point x="447" y="140"/>
      <point x="447" y="159" type="qcurve"/>
      <point x="310" y="159" type="line"/>
      <point x="310" y="194"/>
      <point x="311" y="212" type="qcurve"/>
      <point x="368" y="273"/>
    </contour>
    <contour>
      <point x="447" y="270" type="line"/>
      <point x="392" y="212" type="line"/>
      <point x="401" y="212"/>
      <point x="438" y="212"/>
      <point x="447" y="212" type="qcurve"/>
    </contour>
    <contour>
      <point x="323" y="680" type="qcurve"/>
      <point x="407" y="680" type="line"/>
      <point x="377" y="595"/>
      <point x="229" y="183"/>
      <point x="188" y="71" type="qcurve"/>
      <point x="103" y="71" type="line"/>
      <point x="321" y="674"/>
      <point x="323" y="680" type="qcurve"/>
      <point x="407" y="680" type="line"/>
      <point x="377" y="595"/>
      <point x="229" y="183"/>
      <point x="188" y="71" type="qcurve"/>
      <point x="103" y="71" type="line"/>
      <point x="321" y="674"/>
      <point x="323" y="680" type="qcurve"/>
      <point x="407" y="680" type="line"/>
      <point x="377" y="595"/>
      <point x="229" y="183"/>
      <point x="188" y="71" type="qcurve"/>
      <point x="103" y="71" type="line"/>
      <point x="321" y="674"/>
    </contour>
    <contour>
      <point x="94" y="635" type="qcurve" smooth="yes"/>
      <point x="96" y="636"/>
      <point x="99" y="636" type="qcurve" smooth="yes"/>
      <point x="151" y="636" type="line"/>
      <point x="151" y="466" type="line" smooth="yes"/>
      <point x="151" y="448"/>
      <point x="166" y="439" type="qcurve"/>
      <point x="166" y="439"/>
      <point x="57" y="439" type="qcurve"/>
      <point x="72" y="448"/>
      <point x="72" y="466" type="qcurve" smooth="yes"/>
      <point x="72" y="585" type="line"/>
      <point x="51" y="578"/>
      <point x="25" y="569" type="qcurve"/>
      <point x="25" y="604" type="line"/>
      <point x="61" y="620"/>
    </contour>
  </outline>
</glyph>
<glyph name="questiondown" format="2">
  <advance width="555"/>
  <unicode hex="00BF"/>
  <outline>
    <contour>
      <point x="530" y="229" type="qcurve"/>
      <point x="530" y="65" type="line"/>
      <point x="407" y="-11"/>
      <point x="235" y="1" type="qcurve" smooth="yes"/>
      <point x="111" y="12"/>
      <point x="63" y="65" type="qcurve" smooth="yes"/>
      <point x="28" y="100"/>
      <point x="22" y="208"/>
      <point x="48" y="251" type="qcurve" smooth="yes"/>
      <point x="62" y="280"/>
      <point x="104" y="332"/>
      <point x="161" y="391"/>
      <point x="176" y="410" type="qcurve" smooth="yes"/>
      <point x="208" y="459"/>
      <point x="208" y="485" type="qcurve"/>
      <point x="423" y="485" type="line"/>
      <point x="423" y="455"/>
      <point x="404" y="415" type="qcurve" smooth="yes"/>
      <point x="388" y="388"/>
      <point x="303" y="298"/>
      <point x="287" y="271" type="qcurve" smooth="yes"/>
      <point x="273" y="254"/>
      <point x="266" y="214"/>
      <point x="277" y="192" type="qcurve" smooth="yes"/>
      <point x="292" y="156"/>
      <point x="356" y="156" type="qcurve" smooth="yes"/>
      <point x="450" y="156"/>
    </contour>
    <contour>
      <point x="367" y="564" type="qcurve" smooth="yes"/>
      <point x="297" y="555"/>
      <point x="250" y="569" type="qcurve"/>
      <point x="202" y="575"/>
      <point x="191" y="628" type="qcurve" smooth="yes"/>
      <point x="187" y="654"/>
      <point x="199" y="705"/>
      <point x="218" y="718" type="qcurve" smooth="yes"/>
      <point x="233" y="727"/>
      <point x="272" y="736"/>
      <point x="299" y="737"/>
      <point x="324" y="737" type="qcurve" smooth="yes"/>
      <point x="346" y="737"/>
      <point x="370" y="735"/>
      <point x="404" y="724"/>
      <point x="414" y="713" type="qcurve" smooth="yes"/>
      <point x="451" y="676"/>
      <point x="429" y="617" type="qcurve" smooth="yes"/>
      <point x="424" y="597"/>
      <point x="390" y="568"/>
    </contour>
    <contour>
      <point x="530" y="229" type="qcurve"/>
      <point x="530" y="65" type="line"/>
      <point x="407" y="-11"/>
      <point x="235" y="1" type="qcurve" smooth="yes"/>
      <point x="111" y="12"/>
      <point x="63" y="65" type="qcurve" smooth="yes"/>
      <point x="28" y="100"/>
      <point x="22" y="208"/>
      <point x="48" y="251" type="qcurve" smooth="yes"/>
      <point x="62" y="280"/>
      <point x="104" y="332"/>
      <point x="161" y="391"/>
      <point x="176" y="410" type="qcurve" smooth="yes"/>
      <point x="208" y="459"/>
      <point x="208" y="485" type="qcurve"/>
      <point x="423" y="485" type="line"/>
      <point x="423" y="455"/>
      <point x="404" y="415" type="qcurve" smooth="yes"/>
      <point x="388" y="388"/>
      <point x="303" y="298"/>
      <point x="287" y="271" type="qcurve" smooth="yes"/>
      <point x="273" y="254"/>
      <point x="266" y="214"/>
      <point x="277" y="192" type="qcurve" smooth="yes"/>
      <point x="292" y="156"/>
      <point x="356" y="156" type="qcurve" smooth="yes"/>
      <point x="450" y="156"/>
    </contour>
    <contour>
      <point x="367" y="564" type="qcurve" smooth="yes"/>
      <point x="297" y="555"/>
      <point x="250" y="569" type="qcurve"/>
      <point x="202" y="575"/>
      <point x="191" y="628" type="qcurve" smooth="yes"/>
      <point x="187" y="654"/>
      <point x="199" y="705"/>
      <point x="218" y="718" type="qcurve" smooth="yes"/>
      <point x="233" y="727"/>
      <point x="272" y="736"/>
      <point x="299" y="737"/>
      <point x="324" y="737" type="qcurve" smooth="yes"/>
      <point x="346" y="737"/>
      <point x="370" y="735"/>
      <point x="404" y="724"/>
      <point x="414" y="713" type="qcurve" smooth="yes"/>
      <point x="451" y="676"/>
      <point x="429" y="617" type="qcurve" smooth="yes"/>
      <point x="424" y="597"/>
      <point x="390" y="568"/>
    </contour>
    <contour>
      <point x="530" y="229" type="qcurve"/>
      <point x="530" y="65" type="line"/>
      <point x="407" y="-11"/>
      <point x="235" y="1" type="qcurve" smooth="yes"/>
      <point x="111" y="12"/>
      <point x="63" y="65" type="qcurve" smooth="yes"/>
      <point x="28" y="100"/>
      <point x="22" y="208"/>
      <point x="48" y="251" type="qcurve" smooth="yes"/>
      <point x="62" y="280"/>
      <point x="104" y="332"/>
      <point x="161" y="391"/>
      <point x="176" y="410" type="qcurve" smooth="yes"/>
      <point x="208" y="459"/>
      <point x="208" y="485" type="qcurve"/>
      <point x="423" y="485" type="line"/>
      <point x="423" y="455"/>
      <point x="404" y="415" type="qcurve" smooth="yes"/>
      <point x="388" y="388"/>
      <point x="303" y="298"/>
      <point x="287" y="271" type="qcurve" smooth="yes"/>
      <point x="273" y="254"/>
      <point x="266" y="214"/>
      <point x="277" y="192" type="qcurve" smooth="yes"/>
      <point x="292" y="156"/>
      <point x="356" y="156" type="qcurve" smooth="yes"/>
      <point x="450" y="156"/>
    </contour>
    <contour>
      <point x="367" y="564" type="qcurve" smooth="yes"/>
      <point x="297" y="555"/>
      <point x="250" y="569" type="qcurve"/>
      <point x="202" y="575"/>
      <point x="191" y="628" type="qcurve" smooth="yes"/>
      <point x="187" y="654"/>
      <point x="199" y="705"/>
      <point x="218" y="718" type="qcurve" smooth="yes"/>
      <point x="233" y="727"/>
      <point x="272" y="736"/>
      <point x="299" y="737"/>
      <point x="324" y="737" type="qcurve" smooth="yes"/>
      <point x="346" y="737"/>
      <point x="370" y="735"/>
      <point x="404" y="724"/>
      <point x="414" y="713" type="qcurve" smooth="yes"/>
      <point x="451" y="676"/>
      <point x="429" y="617" type="qcurve" smooth="yes"/>
      <point x="424" y="597"/>
      <point x="390" y="568"/>
    </contour>
  </outline>
</glyph>
<glyph name="Atilde" format="2">
  <advance width="1134"/>
  <unicode hex="00C3"/>
  <outline>
    <contour>
      <point x="746" y="890" type="qcurve" smooth="yes"/>
      <point x="758" y="897"/>
      <point x="780" y="921"/>
      <point x="792" y="937"/>
      <point x="802" y="954" type="qcurve"/>
      <point x="791" y="853"/>
      <point x="758" y="806" type="qcurve" smooth="yes"/>
      <point x="742" y="785"/>
      <point x="692" y="764"/>
      <point x="665" y="767" type="qcurve" smooth="yes"/>
      <point x="625" y="773"/>
      <point x="459" y="813"/>
      <point x="414" y="819" type="qcurve" smooth="yes"/>
      <point x="411" y="819"/>
      <point x="385" y="821"/>
      <point x="369" y="819"/>
      <point x="364" y="815" type="qcurve" smooth="yes"/>
      <point x="326" y="799"/>
      <point x="304" y="754" type="qcurve"/>
      <point x="304" y="847"/>
      <point x="351" y="900" type="qcurve" smooth="yes"/>
      <point x="385" y="940"/>
      <point x="440" y="933" type="qcurve" smooth="yes"/>
      <point x="488" y="929"/>
      <point x="658" y="891"/>
      <point x="691" y="886" type="qcurve" smooth="yes"/>
      <point x="722" y="879"/>
      <point x="746" y="890" type="qcurve" smooth="yes"/>
      <point x="758" y="897"/>
      <point x="780" y="921"/>
      <point x="792" y="937"/>
      <point x="802" y="954" type="qcurve"/>
      <point x="791" y="853"/>
      <point x="758" y="806" type="qcurve" smooth="yes"/>
      <point x="742" y="785"/>
      <point x="692" y="764"/>
      <point x="665" y="767" type="qcurve" smooth="yes"/>
      <point x="625" y="773"/>
      <point x="459" y="813"/>
      <point x="414" y="819" type="qcurve" smooth="yes"/>
      <point x="411" y="819"/>
      <point x="385" y="821"/>
      <point x="369" y="819"/>
      <point x="364" y="815" type="qcurve" smooth="yes"/>
      <point x="326" y="799"/>
      <point x="304" y="754" type="qcurve"/>
      <point x="304" y="847"/>
      <point x="351" y="900" type="qcurve" smooth="yes"/>
      <point x="385" y="940"/>
      <point x="440" y="933" type="qcurve" smooth="yes"/>
      <point x="488" y="929"/>
      <point x="658" y="891"/>
      <point x="691" y="886" type="qcurve" smooth="yes"/>
      <point x="722" y="879"/>
      <point x="746" y="890" type="qcurve" smooth="yes"/>
      <point x="758" y="897"/>
      <point x="780" y="921"/>
      <point x="792" y="937"/>
      <point x="802" y="954" type="qcurve"/>
      <point x="791" y="853"/>
      <point x="758" y="806" type="qcurve" smooth="yes"/>
      <point x="742" y="785"/>
      <point x="692" y="764"/>
      <point x="665" y="767" type="qcurve" smooth="yes"/>
      <point x="625" y="773"/>
      <point x="459" y="813"/>
      <point x="414" y="819" type="qcurve" smooth="yes"/>
      <point x="411" y="819"/>
      <point x="385" y="821"/>
      <point x="369" y="819"/>
      <point x="364" y="815" type="qcurve" smooth="yes"/>
      <point x="326" y="799"/>
      <point x="304" y="754" type="qcurve"/>
      <point x="304" y="847"/>
      <point x="351" y="900" type="qcurve" smooth="yes"/>
      <point x="385" y="940"/>
      <point x="440" y="933" type="qcurve" smooth="yes"/>
      <point x="488" y="929"/>
      <point x="658" y="891"/>
      <point x="691" y="886" type="qcurve" smooth="yes"/>
      <point x="722" y="879"/>
    </contour>
    <contour>
      <point x="664" y="274" type="line"/>
      <point x="566" y="455" type="line"/>
      <point x="460" y="255" type="line"/>
    </contour>
    <contour>
      <point x="386" y="120" type="line"/>
      <point x="385" y="118" type="line" smooth="yes"/>
      <point x="365" y="77"/>
      <point x="365" y="50" type="qcurve" smooth="yes"/>
      <point x="365" y="14"/>
      <point x="384" y="0" type="qcurve"/>
      <point x="25" y="0" type="line"/>
      <point x="89" y="53"/>
      <point x="159" y="187" type="qcurve" smooth="yes"/>
      <point x="380" y="597" type="line" smooth="yes"/>
      <point x="400" y="638"/>
      <point x="400" y="652" type="qcurve" smooth="yes"/>
      <point x="400" y="683"/>
      <point x="381" y="700" type="qcurve"/>
      <point x="700" y="700" type="line"/>
      <point x="975" y="187" type="line" smooth="yes"/>
      <point x="1045" y="53"/>
      <point x="1109" y="0" type="qcurve"/>
      <point x="750" y="0" type="line"/>
      <point x="769" y="14"/>
      <point x="769" y="50" type="qcurve" smooth="yes"/>
      <point x="769" y="80"/>
      <point x="748" y="118" type="qcurve" smooth="yes"/>
      <point x="730" y="151" type="line"/>
    </contour>
  </outline>
</glyph>
<glyph name="Aring" format="2">
  <advance width="1134"/>
  <unicode hex="00C5"/>
  <outline>
    <contour>
      <point x="544" y="750" type="qcurve" smooth="yes"/>
      <point x="494" y="750"/>
      <point x="430" y="804"/>
      <point x="430" y="850" type="qcurve" smooth="yes"/>
      <point x="430" y="872"/>
      <point x="445" y="908"/>
      <point x="474" y="934"/>
      <point x="516" y="950"/>
      <point x="544" y="950" type="qcurve" smooth="yes"/>
      <point x="598" y="950"/>
      <point x="657" y="894"/>
      <point x="657" y="850" type="qcurve" smooth="yes"/>
      <point x="657" y="827"/>
      <point x="639" y="791"/>
      <point x="609" y="765"/>
      <point x="567" y="750"/>
    </contour>
    <contour>
      <point x="544" y="881" type="qcurve" smooth="yes"/>
      <point x="525" y="881"/>
      <point x="505" y="863"/>
      <point x="505" y="849" type="qcurve" smooth="yes"/>
      <point x="505" y="837"/>
      <point x="525" y="818"/>
      <point x="544" y="818" type="qcurve" smooth="yes"/>
      <point x="562" y="818"/>
      <point x="582" y="837"/>
      <point x="582" y="849" type="qcurve" smooth="yes"/>
      <point x="582" y="864"/>
      <point x="562" y="881"/>
    </contour>
    <contour>
      <point x="664" y="274" type="line"/>
      <point x="566" y="455" type="line"/>
      <point x="460" y="255" type="line"/>
    </contour>
    <contour>
      <point x="386" y="120" type="line"/>
      <point x="385" y="118" type="line" smooth="yes"/>
      <point x="365" y="77"/>
      <point x="365" y="50" type="qcurve" smooth="yes"/>
      <point x="365" y="14"/>
      <point x="384" y="0" type="qcurve"/>
      <point x="25" y="0" type="line"/>
      <point x="89" y="53"/>
      <point x="159" y="187" type="qcurve" smooth="yes"/>
      <point x="380" y="597" type="line" smooth="yes"/>
      <point x="400" y="638"/>
      <point x="400" y="652" type="qcurve" smooth="yes"/>
      <point x="400" y="683"/>
      <point x="381" y="700" type="qcurve"/>
      <point x="700" y="700" type="line"/>
      <point x="975" y="187" type="line" smooth="yes"/>
      <point x="1045" y="53"/>
      <point x="1109" y="0" type="qcurve"/>
      <point x="750" y="0" type="line"/>
      <point x="769" y="14"/>
      <point x="769" y="50" type="qcurve" smooth="yes"/>
      <point x="769" y="80"/>
      <point x="748" y="118" type="qcurve" smooth="yes"/>
      <point x="730" y="151" type="line"/>
    </contour>
  </outline>
</glyph>
<glyph name="Ccedilla" format="2">
  <advance width="914"/>
  <unicode hex="00C7"/>
  <outline>
    <contour>
      <point x="488" y="0" type="qcurve"/>
      <point x="503" y="-18"/>
      <point x="516" y="-30" type="qcurve" smooth="yes"/>
      <point x="543" y="-57"/>
      <point x="574" y="-102" type="qcurve" smooth="yes"/>
      <point x="589" y="-124"/>
      <point x="592" y="-139" type="qcurve" smooth="yes"/>
      <point x="592" y="-144"/>
      <point x="593" y="-149" type="qcurve" smooth="yes"/>
      <point x="593" y="-162"/>
      <point x="584" y="-181" type="qcurve" smooth="yes"/>
      <point x="568" y="-217"/>
      <point x="505" y="-217" type="qcurve" smooth="yes"/>
      <point x="411" y="-217"/>
      <point x="331" y="-144" type="qcurve"/>
      <point x="331" y="-308"/>
      <point x="331" y="-308" type="qcurve"/>
      <point x="437" y="-374"/>
      <point x="580" y="-374" type="qcurve" smooth="yes"/>
      <point x="603" y="-374"/>
      <point x="626" y="-372" type="qcurve" smooth="yes"/>
      <point x="745" y="-364"/>
      <point x="798" y="-308" type="qcurve" smooth="yes"/>
      <point x="833" y="-273"/>
      <point x="836" y="-219" type="qcurve" smooth="yes"/>
      <point x="836" y="-214"/>
      <point x="837" y="-208" type="qcurve" smooth="yes"/>
      <point x="838" y="-168"/>
      <point x="813" y="-122" type="qcurve" smooth="yes"/>
      <point x="792" y="-85"/>
      <point x="778" y="-67" type="qcurve" smooth="yes"/>
      <point x="757" y="-41"/>
      <point x="729" y="-12" type="qcurve" smooth="yes"/>
      <point x="705" y="11"/>
      <point x="707" y="11" type="qcurve" smooth="yes"/>
      <point x="710" y="12"/>
      <point x="760" y="20" type="qcurve" smooth="yes"/>
      <point x="824" y="31"/>
      <point x="889" y="65" type="qcurve"/>
      <point x="889" y="65"/>
      <point x="889" y="282" type="qcurve"/>
      <point x="822" y="227"/>
      <point x="654" y="181"/>
      <point x="565" y="189" type="qcurve" smooth="yes"/>
      <point x="451" y="199"/>
      <point x="399" y="250" type="qcurve" smooth="yes"/>
      <point x="367" y="281"/>
      <point x="343" y="370"/>
      <point x="349" y="417" type="qcurve" smooth="yes"/>
      <point x="354" y="452"/>
      <point x="398" y="511"/>
      <point x="431" y="529" type="qcurve" smooth="yes"/>
      <point x="503" y="567"/>
      <point x="629" y="558" type="qcurve" smooth="yes"/>
      <point x="757" y="549"/>
      <point x="877" y="463" type="qcurve"/>
      <point x="877" y="463"/>
      <point x="877" y="689" type="qcurve"/>
      <point x="719" y="748"/>
      <point x="517" y="741" type="qcurve" smooth="yes"/>
      <point x="314" y="734"/>
      <point x="186" y="657" type="qcurve" smooth="yes"/>
      <point x="130" y="624"/>
      <point x="50" y="521"/>
      <point x="36" y="459" type="qcurve" smooth="yes"/>
      <point x="5" y="320"/>
      <point x="58" y="206" type="qcurve" smooth="yes"/>
      <point x="109" y="98"/>
      <point x="243" y="45" type="qcurve" smooth="yes"/>
      <point x="340" y="6"/>
    </contour>
  </outline>
</glyph>
<glyph name="Egrave" format="2">
  <advance width="839"/>
  <unicode hex="00C8"/>
  <outline>
    <contour>
      <point x="158" y="948" type="qcurve"/>
      <point x="464" y="948" type="line"/>
      <point x="466" y="940"/>
      <point x="477" y="912"/>
      <point x="480" y="904" type="qcurve" smooth="yes"/>
      <point x="567" y="750" type="line"/>
      <point x="389" y="750" type="line"/>
      <point x="343" y="788"/>
      <point x="178" y="931"/>
      <point x="158" y="948" type="qcurve"/>
      <point x="464" y="948" type="line"/>
      <point x="466" y="940"/>
      <point x="477" y="912"/>
      <point x="480" y="904" type="qcurve" smooth="yes"/>
      <point x="567" y="750" type="line"/>
      <point x="389" y="750" type="line"/>
      <point x="343" y="788"/>
      <point x="178" y="931"/>
      <point x="158" y="948" type="qcurve"/>
      <point x="464" y="948" type="line"/>
      <point x="466" y="940"/>
      <point x="477" y="912"/>
      <point x="480" y="904" type="qcurve" smooth="yes"/>
      <point x="567" y="750" type="line"/>
      <point x="389" y="750" type="line"/>
      <point x="343" y="788"/>
      <point x="178" y="931"/>
    </contour>
    <contour>
      <point x="25" y="697" type="qcurve"/>
      <point x="285" y="696"/>
      <point x="801" y="696" type="qcurve"/>
      <point x="802" y="659"/>
      <point x="802" y="520"/>
      <point x="802" y="484" type="qcurve"/>
      <point x="769" y="526"/>
      <point x="707" y="526" type="qcurve" smooth="yes"/>
      <point x="358" y="526" type="line"/>
      <point x="358" y="424" type="line"/>
      <point x="722" y="424" type="line"/>
      <point x="722" y="274" type="line"/>
      <point x="358" y="274" type="line"/>
      <point x="358" y="157" type="line"/>
      <point x="412" y="158"/>
      <point x="627" y="158"/>
      <point x="681" y="158" type="qcurve" smooth="yes"/>
      <point x="734" y="158"/>
      <point x="751" y="164" type="qcurve" smooth="yes"/>
      <point x="798" y="184"/>
      <point x="814" y="221" type="qcurve"/>
      <point x="814" y="-11" type="line"/>
      <point x="25" y="-11" type="line"/>
      <point x="75" y="20"/>
      <point x="75" y="81" type="qcurve" smooth="yes"/>
      <point x="75" y="601" type="line" smooth="yes"/>
      <point x="76" y="629"/>
      <point x="49" y="682"/>
    </contour>
  </outline>
</glyph>
<glyph name="Ecircumflex" format="2">
  <advance width="839"/>
  <unicode hex="00CA"/>
  <outline>
    <contour>
      <point x="376" y="948" type="qcurve"/>
      <point x="379" y="948" type="line"/>
      <point x="460" y="948" type="line"/>
      <point x="604" y="751" type="line"/>
      <point x="502" y="751" type="line"/>
      <point x="489" y="769"/>
      <point x="433" y="847"/>
      <point x="418" y="867" type="qcurve"/>
      <point x="408" y="854"/>
      <point x="351" y="774"/>
      <point x="334" y="751" type="qcurve"/>
      <point x="236" y="751" type="line"/>
      <point x="256" y="780"/>
      <point x="351" y="911"/>
      <point x="376" y="948" type="qcurve"/>
      <point x="379" y="948" type="line"/>
      <point x="460" y="948" type="line"/>
      <point x="604" y="751" type="line"/>
      <point x="502" y="751" type="line"/>
      <point x="489" y="769"/>
      <point x="433" y="847"/>
      <point x="418" y="867" type="qcurve"/>
      <point x="408" y="854"/>
      <point x="351" y="774"/>
      <point x="334" y="751" type="qcurve"/>
      <point x="236" y="751" type="line"/>
      <point x="256" y="780"/>
      <point x="351" y="911"/>
      <point x="376" y="948" type="qcurve"/>
      <point x="379" y="948" type="line"/>
      <point x="460" y="948" type="line"/>
      <point x="604" y="751" type="line"/>
      <point x="502" y="751" type="line"/>
      <point x="489" y="769"/>
      <point x="433" y="847"/>
      <point x="418" y="867" type="qcurve"/>
      <point x="408" y="854"/>
      <point x="351" y="774"/>
      <point x="334" y="751" type="qcurve"/>
      <point x="236" y="751" type="line"/>
      <point x="256" y="780"/>
      <point x="351" y="911"/>
    </contour>
    <contour>
      <point x="25" y="701" type="qcurve"/>
      <point x="285" y="700"/>
      <point x="801" y="700" type="qcurve"/>
      <point x="802" y="664"/>
      <point x="802" y="526"/>
      <point x="802" y="490" type="qcurve"/>
      <point x="769" y="532"/>
      <point x="707" y="532" type="qcurve" smooth="yes"/>
      <point x="358" y="532" type="line"/>
      <point x="358" y="431" type="line"/>
      <point x="722" y="431" type="line"/>
      <point x="722" y="282" type="line"/>
      <point x="358" y="282" type="line"/>
      <point x="358" y="167" type="line"/>
      <point x="412" y="168"/>
      <point x="627" y="168"/>
      <point x="681" y="168" type="qcurve" smooth="yes"/>
      <point x="734" y="168"/>
      <point x="751" y="174" type="qcurve" smooth="yes"/>
      <point x="798" y="193"/>
      <point x="814" y="230" type="qcurve"/>
      <point x="814" y="0" type="line"/>
      <point x="25" y="0" type="line"/>
      <point x="75" y="31"/>
      <point x="75" y="91" type="qcurve" smooth="yes"/>
      <point x="75" y="606" type="line" smooth="yes"/>
      <point x="76" y="634"/>
      <point x="49" y="686"/>
    </contour>
  </outline>
</glyph>
<glyph name="glyph142" format="2">
  <advance width="839"/>
  <unicode hex="00CB"/>
  <outline>
    <contour>
      <point x="553" y="751" type="qcurve" smooth="yes"/>
      <point x="503" y="751"/>
      <point x="439" y="804"/>
      <point x="439" y="851" type="qcurve" smooth="yes"/>
      <point x="439" y="873"/>
      <point x="454" y="909"/>
      <point x="483" y="936"/>
      <point x="525" y="951"/>
      <point x="553" y="951" type="qcurve" smooth="yes"/>
      <point x="608" y="951"/>
      <point x="667" y="895"/>
      <point x="667" y="851" type="qcurve" smooth="yes"/>
      <point x="667" y="828"/>
      <point x="649" y="791"/>
      <point x="618" y="765"/>
      <point x="577" y="751"/>
    </contour>
    <contour>
      <point x="288" y="751" type="qcurve" smooth="yes"/>
      <point x="238" y="751"/>
      <point x="174" y="804"/>
      <point x="174" y="851" type="qcurve" smooth="yes"/>
      <point x="174" y="873"/>
      <point x="189" y="909"/>
      <point x="218" y="936"/>
      <point x="260" y="951"/>
      <point x="288" y="951" type="qcurve" smooth="yes"/>
      <point x="342" y="951"/>
      <point x="402" y="895"/>
      <point x="402" y="851" type="qcurve" smooth="yes"/>
      <point x="402" y="828"/>
      <point x="384" y="791"/>
      <point x="353" y="765"/>
      <point x="312" y="751"/>
    </contour>
    <contour>
      <point x="25" y="701" type="qcurve"/>
      <point x="285" y="700"/>
      <point x="801" y="700" type="qcurve"/>
      <point x="802" y="664"/>
      <point x="802" y="526"/>
      <point x="802" y="490" type="qcurve"/>
      <point x="769" y="532"/>
      <point x="707" y="532" type="qcurve" smooth="yes"/>
      <point x="358" y="532" type="line"/>
      <point x="358" y="431" type="line"/>
      <point x="722" y="431" type="line"/>
      <point x="722" y="282" type="line"/>
      <point x="358" y="282" type="line"/>
      <point x="358" y="167" type="line"/>
      <point x="412" y="168"/>
      <point x="627" y="168"/>
      <point x="681" y="168" type="qcurve" smooth="yes"/>
      <point x="734" y="168"/>
      <point x="751" y="174" type="qcurve" smooth="yes"/>
      <point x="798" y="193"/>
      <point x="814" y="230" type="qcurve"/>
      <point x="814" y="0" type="line"/>
      <point x="25" y="0" type="line"/>
      <point x="75" y="31"/>
      <point x="75" y="91" type="qcurve" smooth="yes"/>
      <point x="75" y="606" type="line" smooth="yes"/>
      <point x="76" y="634"/>
      <point x="49" y="686"/>
    </contour>
  </outline>
</glyph>
<glyph name="Igrave" format="2">
  <advance width="508"/>
  <unicode hex="00CC"/>
  <outline>
    <contour>
      <point x="25" y="948" type="qcurve"/>
      <point x="331" y="948" type="line"/>
      <point x="333" y="940"/>
      <point x="343" y="912"/>
      <point x="346" y="904" type="qcurve" smooth="yes"/>
      <point x="434" y="750" type="line"/>
      <point x="256" y="750" type="line"/>
      <point x="209" y="788"/>
      <point x="45" y="931"/>
      <point x="25" y="948" type="qcurve"/>
      <point x="331" y="948" type="line"/>
      <point x="333" y="940"/>
      <point x="343" y="912"/>
      <point x="346" y="904" type="qcurve" smooth="yes"/>
      <point x="434" y="750" type="line"/>
      <point x="256" y="750" type="line"/>
      <point x="209" y="788"/>
      <point x="45" y="931"/>
      <point x="25" y="948" type="qcurve"/>
      <point x="331" y="948" type="line"/>
      <point x="333" y="940"/>
      <point x="343" y="912"/>
      <point x="346" y="904" type="qcurve" smooth="yes"/>
      <point x="434" y="750" type="line"/>
      <point x="256" y="750" type="line"/>
      <point x="209" y="788"/>
      <point x="45" y="931"/>
    </contour>
    <contour>
      <point x="100" y="700" type="qcurve"/>
      <point x="483" y="700" type="line"/>
      <point x="459" y="686"/>
      <point x="432" y="634"/>
      <point x="433" y="606" type="qcurve" smooth="yes"/>
      <point x="433" y="95" type="line" smooth="yes"/>
      <point x="432" y="65"/>
      <point x="459" y="13"/>
      <point x="483" y="-1" type="qcurve"/>
      <point x="100" y="-1"/>
      <point x="100" y="-1" type="qcurve"/>
      <point x="150" y="30"/>
      <point x="150" y="90" type="qcurve" smooth="yes"/>
      <point x="150" y="605" type="line" smooth="yes"/>
      <point x="151" y="634"/>
      <point x="124" y="686"/>
    </contour>
  </outline>
</glyph>
<glyph name="Otilde" format="2">
  <advance width="1015"/>
  <unicode hex="00D5"/>
  <outline>
    <contour>
      <point x="706" y="890" type="qcurve" smooth="yes"/>
      <point x="718" y="897"/>
      <point x="741" y="921"/>
      <point x="752" y="937"/>
      <point x="762" y="954" type="qcurve"/>
      <point x="751" y="854"/>
      <point x="718" y="806" type="qcurve" smooth="yes"/>
      <point x="702" y="785"/>
      <point x="652" y="764"/>
      <point x="626" y="767" type="qcurve" smooth="yes"/>
      <point x="586" y="774"/>
      <point x="419" y="813"/>
      <point x="374" y="819" type="qcurve" smooth="yes"/>
      <point x="371" y="819"/>
      <point x="346" y="821"/>
      <point x="330" y="819"/>
      <point x="324" y="815" type="qcurve" smooth="yes"/>
      <point x="286" y="799"/>
      <point x="265" y="754" type="qcurve"/>
      <point x="265" y="847"/>
      <point x="311" y="900" type="qcurve" smooth="yes"/>
      <point x="346" y="940"/>
      <point x="400" y="934" type="qcurve" smooth="yes"/>
      <point x="448" y="929"/>
      <point x="618" y="891"/>
      <point x="651" y="886" type="qcurve" smooth="yes"/>
      <point x="682" y="879"/>
      <point x="706" y="890" type="qcurve" smooth="yes"/>
      <point x="718" y="897"/>
      <point x="741" y="921"/>
      <point x="752" y="937"/>
      <point x="762" y="954" type="qcurve"/>
      <point x="751" y="854"/>
      <point x="718" y="806" type="qcurve" smooth="yes"/>
      <point x="702" y="785"/>
      <point x="652" y="764"/>
      <point x="626" y="767" type="qcurve" smooth="yes"/>
      <point x="586" y="774"/>
      <point x="419" y="813"/>
      <point x="374" y="819" type="qcurve" smooth="yes"/>
      <point x="371" y="819"/>
      <point x="346" y="821"/>
      <point x="330" y="819"/>
      <point x="324" y="815" type="qcurve" smooth="yes"/>
      <point x="286" y="799"/>
      <point x="265" y="754" type="qcurve"/>
      <point x="265" y="847"/>
      <point x="311" y="900" type="qcurve" smooth="yes"/>
      <point x="346" y="940"/>
      <point x="400" y="934" type="qcurve" smooth="yes"/>
      <point x="448" y="929"/>
      <point x="618" y="891"/>
      <point x="651" y="886" type="qcurve" smooth="yes"/>
      <point x="682" y="879"/>
      <point x="706" y="890" type="qcurve" smooth="yes"/>
      <point x="718" y="897"/>
      <point x="741" y="921"/>
      <point x="752" y="937"/>
      <point x="762" y="954" type="qcurve"/>
      <point x="751" y="854"/>
      <point x="718" y="806" type="qcurve" smooth="yes"/>
      <point x="702" y="785"/>
      <point x="652" y="764"/>
      <point x="626" y="767" type="qcurve" smooth="yes"/>
      <point x="586" y="774"/>
      <point x="419" y="813"/>
      <point x="374" y="819" type="qcurve" smooth="yes"/>
      <point x="371" y="819"/>
      <point x="346" y="821"/>
      <point x="330" y="819"/>
      <point x="324" y="815" type="qcurve" smooth="yes"/>
      <point x="286" y="799"/>
      <point x="265" y="754" type="qcurve"/>
      <point x="265" y="847"/>
      <point x="311" y="900" type="qcurve" smooth="yes"/>
      <point x="346" y="940"/>
      <point x="400" y="934" type="qcurve" smooth="yes"/>
      <point x="448" y="929"/>
      <point x="618" y="891"/>
      <point x="651" y="886" type="qcurve" smooth="yes"/>
      <point x="682" y="879"/>
    </contour>
    <contour>
      <point x="408" y="712" type="qcurve" smooth="yes"/>
      <point x="610" y="728"/>
      <point x="749" y="684" type="qcurve" smooth="yes"/>
      <point x="884" y="642"/>
      <point x="943" y="537" type="qcurve" smooth="yes"/>
      <point x="1007" y="425"/>
      <point x="984" y="260" type="qcurve" smooth="yes"/>
      <point x="974" y="196"/>
      <point x="908" y="88"/>
      <point x="855" y="55" type="qcurve" smooth="yes"/>
      <point x="740" y="-18"/>
      <point x="532" y="-24" type="qcurve" smooth="yes"/>
      <point x="432" y="-24"/>
      <point x="272" y="-3"/>
      <point x="201" y="28" type="qcurve" smooth="yes"/>
      <point x="148" y="52"/>
      <point x="69" y="133"/>
      <point x="49" y="186" type="qcurve" smooth="yes"/>
      <point x="16" y="277"/>
      <point x="28" y="403" type="qcurve" smooth="yes"/>
      <point x="42" y="540"/>
      <point x="131" y="614" type="qcurve" smooth="yes"/>
      <point x="227" y="697"/>
    </contour>
    <contour>
      <point x="471" y="563" type="qcurve" smooth="yes"/>
      <point x="407" y="551"/>
      <point x="378" y="499" type="qcurve" smooth="yes"/>
      <point x="357" y="462"/>
      <point x="345" y="376"/>
      <point x="346" y="319" type="qcurve" smooth="yes"/>
      <point x="348" y="286"/>
      <point x="354" y="244"/>
      <point x="373" y="189"/>
      <point x="389" y="170" type="qcurve" smooth="yes"/>
      <point x="433" y="123"/>
      <point x="527" y="129" type="qcurve" smooth="yes"/>
      <point x="606" y="135"/>
      <point x="637" y="187" type="qcurve" smooth="yes"/>
      <point x="658" y="222"/>
      <point x="669" y="304"/>
      <point x="668" y="361" type="qcurve" smooth="yes"/>
      <point x="665" y="415"/>
      <point x="646" y="493"/>
      <point x="620" y="523" type="qcurve" smooth="yes"/>
      <point x="595" y="552"/>
      <point x="514" y="570"/>
    </contour>
    <contour>
      <point x="505" y="454" type="line"/>
      <point x="595" y="337" type="line"/>
      <point x="583" y="323"/>
      <point x="550" y="279" type="qcurve" smooth="yes"/>
      <point x="519" y="239" type="line"/>
      <point x="505" y="221" type="line" smooth="yes"/>
      <point x="505" y="220"/>
      <point x="492" y="237"/>
      <point x="471" y="265"/>
      <point x="461" y="279" type="qcurve" smooth="yes"/>
      <point x="417" y="338" type="line"/>
    </contour>
  </outline>
</glyph>
<glyph name="Thorn" format="2">
  <advance width="590"/>
  <unicode hex="00DE"/>
  <outline>
    <contour>
      <point x="198" y="96" type="line"/>
      <point x="200" y="60"/>
      <point x="202" y="21"/>
      <point x="204" y="12" type="qcurve" smooth="yes"/>
      <point x="206" y="1"/>
      <point x="207" y="0" type="qcurve"/>
      <point x="25" y="0" type="line"/>
      <point x="27" y="5"/>
      <point x="30" y="44" type="qcurve" smooth="yes"/>
      <point x="31" y="60"/>
      <point x="33" y="111"/>
      <point x="35" y="184"/>
      <point x="36" y="283"/>
      <point x="36" y="349" type="qcurve" smooth="yes"/>
      <point x="36" y="414"/>
      <point x="35" y="513"/>
      <point x="33" y="586"/>
      <point x="31" y="636"/>
      <point x="30" y="653" type="qcurve" smooth="yes"/>
      <point x="27" y="691"/>
      <point x="25" y="697" type="qcurve"/>
      <point x="207" y="697" type="line"/>
      <point x="206" y="695"/>
      <point x="204" y="683" type="qcurve" smooth="yes"/>
      <point x="202" y="672"/>
      <point x="199" y="629"/>
      <point x="198" y="588" type="qcurve"/>
      <point x="264" y="588" type="line" smooth="yes"/>
      <point x="330" y="588"/>
      <point x="440" y="561"/>
      <point x="519" y="503"/>
      <point x="564" y="408"/>
      <point x="565" y="341" type="qcurve" smooth="yes"/>
      <point x="567" y="222"/>
      <point x="413" y="96"/>
      <point x="255" y="96" type="qcurve" smooth="yes"/>
    </contour>
    <contour>
      <point x="195" y="349" type="line" smooth="yes"/>
      <point x="195" y="315"/>
      <point x="195" y="256"/>
      <point x="196" y="230" type="qcurve"/>
      <point x="267" y="230" type="line" smooth="yes"/>
      <point x="343" y="230"/>
      <point x="401" y="290"/>
      <point x="401" y="340" type="qcurve" smooth="yes"/>
      <point x="401" y="392"/>
      <point x="342" y="448"/>
      <point x="265" y="448" type="qcurve" smooth="yes"/>
      <point x="195" y="448" type="line"/>
    </contour>
  </outline>
</glyph>
<glyph name="glyph167" format="2">
  <advance width="1134"/>
  <unicode hex="00E4"/>
  <outline>
    <contour>
      <point x="681" y="751" type="qcurve" smooth="yes"/>
      <point x="631" y="751"/>
      <point x="567" y="804"/>
      <point x="567" y="851" type="qcurve" smooth="yes"/>
      <point x="567" y="873"/>
      <point x="582" y="909"/>
      <point x="611" y="936"/>
      <point x="653" y="951"/>
      <point x="681" y="951" type="qcurve" smooth="yes"/>
      <point x="736" y="951"/>
      <point x="795" y="895"/>
      <point x="795" y="851" type="qcurve" smooth="yes"/>
      <point x="795" y="828"/>
      <point x="777" y="791"/>
      <point x="746" y="765"/>
      <point x="705" y="751"/>
    </contour>
    <contour>
      <point x="416" y="751" type="qcurve" smooth="yes"/>
      <point x="366" y="751"/>
      <point x="302" y="804"/>
      <point x="302" y="851" type="qcurve" smooth="yes"/>
      <point x="302" y="873"/>
      <point x="317" y="909"/>
      <point x="346" y="936"/>
      <point x="388" y="951"/>
      <point x="416" y="951" type="qcurve" smooth="yes"/>
      <point x="470" y="951"/>
      <point x="530" y="895"/>
      <point x="530" y="851" type="qcurve" smooth="yes"/>
      <point x="530" y="828"/>
      <point x="512" y="791"/>
      <point x="481" y="765"/>
      <point x="440" y="751"/>
    </contour>
    <contour>
      <point x="664" y="274" type="line"/>
      <point x="566" y="455" type="line"/>
      <point x="460" y="255" type="line"/>
    </contour>
    <contour>
      <point x="386" y="120" type="line"/>
      <point x="385" y="118" type="line" smooth="yes"/>
      <point x="365" y="77"/>
      <point x="365" y="50" type="qcurve" smooth="yes"/>
      <point x="365" y="14"/>
      <point x="384" y="0" type="qcurve"/>
      <point x="25" y="0" type="line"/>
      <point x="89" y="53"/>
      <point x="159" y="187" type="qcurve" smooth="yes"/>
      <point x="380" y="597" type="line" smooth="yes"/>
      <point x="400" y="638"/>
      <point x="400" y="652" type="qcurve" smooth="yes"/>
      <point x="400" y="683"/>
      <point x="381" y="700" type="qcurve"/>
      <point x="700" y="700" type="line"/>
      <point x="975" y="187" type="line" smooth="yes"/>
      <point x="1045" y="53"/>
      <point x="1109" y="0" type="qcurve"/>
      <point x="750" y="0" type="line"/>
      <point x="769" y="14"/>
      <point x="769" y="50" type="qcurve" smooth="yes"/>
      <point x="769" y="80"/>
      <point x="748" y="118" type="qcurve" smooth="yes"/>
      <point x="730" y="151" type="line"/>
    </contour>
  </outline>
</glyph>
<glyph name="glyph178" format="2">
  <advance width="544"/>
  <unicode hex="00EF"/>
  <outline>
    <contour>
      <point x="404" y="751" type="qcurve" smooth="yes"/>
      <point x="354" y="751"/>
      <point x="290" y="804"/>
      <point x="290" y="851" type="qcurve" smooth="yes"/>
      <point x="290" y="873"/>
      <point x="305" y="909"/>
      <point x="335" y="936"/>
      <point x="377" y="951"/>
      <point x="404" y="951" type="qcurve" smooth="yes"/>
      <point x="459" y="951"/>
      <point x="519" y="895"/>
      <point x="519" y="851" type="qcurve" smooth="yes"/>
      <point x="519" y="828"/>
      <point x="500" y="791"/>
      <point x="470" y="765"/>
      <point x="428" y="751"/>
    </contour>
    <contour>
      <point x="139" y="751" type="qcurve" smooth="yes"/>
      <point x="89" y="751"/>
      <point x="25" y="804"/>
      <point x="25" y="851" type="qcurve" smooth="yes"/>
      <point x="25" y="873"/>
      <point x="40" y="909"/>
      <point x="69" y="936"/>
      <point x="112" y="951"/>
      <point x="139" y="951" type="qcurve" smooth="yes"/>
      <point x="194" y="951"/>
      <point x="253" y="895"/>
      <point x="253" y="851" type="qcurve" smooth="yes"/>
      <point x="253" y="828"/>
      <point x="235" y="791"/>
      <point x="205" y="765"/>
      <point x="163" y="751"/>
    </contour>
    <contour>
      <point x="80" y="700" type="qcurve"/>
      <point x="463" y="700" type="line"/>
      <point x="439" y="686"/>
      <point x="412" y="634"/>
      <point x="413" y="606" type="qcurve" smooth="yes"/>
      <point x="413" y="95" type="line" smooth="yes"/>
      <point x="412" y="65"/>
      <point x="439" y="13"/>
      <point x="463" y="-1" type="qcurve"/>
      <point x="80" y="-1"/>
      <point x="80" y="-1" type="qcurve"/>
      <point x="130" y="30"/>
      <point x="130" y="90" type="qcurve" smooth="yes"/>
      <point x="130" y="605" type="line" smooth="yes"/>
      <point x="131" y="634"/>
      <point x="104" y="686"/>
    </contour>
  </outline>
</glyph>
<glyph name="ntilde" format="2">
  <advance width="1009"/>
  <unicode hex="00F1"/>
  <outline>
    <contour>
      <point x="708" y="888" type="qcurve" smooth="yes"/>
      <point x="720" y="894"/>
      <point x="742" y="918"/>
      <point x="754" y="934"/>
      <point x="764" y="952" type="qcurve"/>
      <point x="753" y="851"/>
      <point x="720" y="804" type="qcurve" smooth="yes"/>
      <point x="704" y="782"/>
      <point x="654" y="761"/>
      <point x="627" y="764" type="qcurve" smooth="yes"/>
      <point x="587" y="771"/>
      <point x="421" y="810"/>
      <point x="376" y="816" type="qcurve" smooth="yes"/>
      <point x="373" y="816"/>
      <point x="347" y="818"/>
      <point x="331" y="816"/>
      <point x="326" y="812" type="qcurve" smooth="yes"/>
      <point x="288" y="796"/>
      <point x="266" y="752" type="qcurve"/>
      <point x="266" y="844"/>
      <point x="313" y="897" type="qcurve" smooth="yes"/>
      <point x="347" y="937"/>
      <point x="402" y="931" type="qcurve" smooth="yes"/>
      <point x="450" y="926"/>
      <point x="620" y="888"/>
      <point x="653" y="884" type="qcurve"/>
      <point x="684" y="876"/>
      <point x="708" y="888" type="qcurve" smooth="yes"/>
      <point x="720" y="894"/>
      <point x="742" y="918"/>
      <point x="754" y="934"/>
      <point x="764" y="952" type="qcurve"/>
      <point x="753" y="851"/>
      <point x="720" y="804" type="qcurve" smooth="yes"/>
      <point x="704" y="782"/>
      <point x="654" y="761"/>
      <point x="627" y="764" type="qcurve" smooth="yes"/>
      <point x="587" y="771"/>
      <point x="421" y="810"/>
      <point x="376" y="816" type="qcurve" smooth="yes"/>
      <point x="373" y="816"/>
      <point x="347" y="818"/>
      <point x="331" y="816"/>
      <point x="326" y="812" type="qcurve" smooth="yes"/>
      <point x="288" y="796"/>
      <point x="266" y="752" type="qcurve"/>
      <point x="266" y="844"/>
      <point x="313" y="897" type="qcurve" smooth="yes"/>
      <point x="347" y="937"/>
      <point x="402" y="931" type="qcurve" smooth="yes"/>
      <point x="450" y="926"/>
      <point x="620" y="888"/>
      <point x="653" y="884" type="qcurve"/>
      <point x="684" y="876"/>
      <point x="708" y="888" type="qcurve" smooth="yes"/>
      <point x="720" y="894"/>
      <point x="742" y="918"/>
      <point x="754" y="934"/>
      <point x="764" y="952" type="qcurve"/>
      <point x="753" y="851"/>
      <point x="720" y="804" type="qcurve" smooth="yes"/>
      <point x="704" y="782"/>
      <point x="654" y="761"/>
      <point x="627" y="764" type="qcurve" smooth="yes"/>
      <point x="587" y="771"/>
      <point x="421" y="810"/>
      <point x="376" y="816" type="qcurve" smooth="yes"/>
      <point x="373" y="816"/>
      <point x="347" y="818"/>
      <point x="331" y="816"/>
      <point x="326" y="812" type="qcurve" smooth="yes"/>
      <point x="288" y="796"/>
      <point x="266" y="752" type="qcurve"/>
      <point x="266" y="844"/>
      <point x="313" y="897" type="qcurve" smooth="yes"/>
      <point x="347" y="937"/>
      <point x="402" y="931" type="qcurve" smooth="yes"/>
      <point x="450" y="926"/>
      <point x="620" y="888"/>
      <point x="653" y="884" type="qcurve"/>
      <point x="684" y="876"/>
    </contour>
    <contour>
      <point x="25" y="699" type="qcurve"/>
      <point x="86" y="698"/>
      <point x="328" y="698"/>
      <point x="389" y="698" type="qcurve"/>
      <point x="662" y="354"/>
      <point x="720" y="280" type="qcurve"/>
      <point x="720" y="611" type="line" smooth="yes"/>
      <point x="720" y="675"/>
      <point x="681" y="699" type="qcurve"/>
      <point x="681" y="699"/>
      <point x="984" y="699" type="qcurve"/>
      <point x="960" y="685"/>
      <point x="932" y="633"/>
      <point x="933" y="605" type="qcurve" smooth="yes"/>
      <point x="933" y="90" type="line" smooth="yes"/>
      <point x="933" y="30"/>
      <point x="984" y="0" type="qcurve"/>
      <point x="615" y="0" type="line"/>
      <point x="289" y="411" type="line"/>
      <point x="289" y="90" type="line" smooth="yes"/>
      <point x="289" y="36"/>
      <point x="314" y="10" type="qcurve" smooth="yes"/>
      <point x="315" y="8"/>
      <point x="326" y="4"/>
      <point x="328" y="1" type="qcurve"/>
      <point x="320" y="0"/>
      <point x="303" y="0" type="qcurve" smooth="yes"/>
      <point x="25" y="0" type="line"/>
      <point x="75" y="31"/>
      <point x="75" y="90" type="qcurve" smooth="yes"/>
      <point x="75" y="605" type="line" smooth="yes"/>
      <point x="76" y="633"/>
      <point x="49" y="685"/>
    </contour>
  </outline>
</glyph>
<glyph name="oacute" format="2">
  <advance width="1015"/>
  <unicode hex="00F3"/>
  <outline>
    <contour>
      <point x="802" y="949" type="qcurve"/>
      <point x="496" y="949" type="line"/>
      <point x="494" y="941"/>
      <point x="484" y="913"/>
      <point x="480" y="904" type="qcurve" smooth="yes"/>
      <point x="393" y="751" type="line"/>
      <point x="571" y="751" type="line"/>
      <point x="617" y="789"/>
      <point x="782" y="932"/>
      <point x="802" y="949" type="qcurve"/>
      <point x="496" y="949" type="line"/>
      <point x="494" y="941"/>
      <point x="484" y="913"/>
      <point x="480" y="904" type="qcurve" smooth="yes"/>
      <point x="393" y="751" type="line"/>
      <point x="571" y="751" type="line"/>
      <point x="617" y="789"/>
      <point x="782" y="932"/>
      <point x="802" y="949" type="qcurve"/>
      <point x="496" y="949" type="line"/>
      <point x="494" y="941"/>
      <point x="484" y="913"/>
      <point x="480" y="904" type="qcurve" smooth="yes"/>
      <point x="393" y="751" type="line"/>
      <point x="571" y="751" type="line"/>
      <point x="617" y="789"/>
      <point x="782" y="932"/>
    </contour>
    <contour>
      <point x="408" y="712" type="qcurve" smooth="yes"/>
      <point x="610" y="728"/>
      <point x="749" y="684" type="qcurve" smooth="yes"/>
      <point x="884" y="642"/>
      <point x="943" y="537" type="qcurve" smooth="yes"/>
      <point x="1007" y="425"/>
      <point x="984" y="260" type="qcurve" smooth="yes"/>
      <point x="974" y="196"/>
      <point x="908" y="88"/>
      <point x="855" y="55" type="qcurve" smooth="yes"/>
      <point x="740" y="-18"/>
      <point x="532" y="-24" type="qcurve" smooth="yes"/>
      <point x="432" y="-24"/>
      <point x="272" y="-3"/>
      <point x="201" y="28" type="qcurve" smooth="yes"/>
      <point x="148" y="52"/>
      <point x="69" y="133"/>
      <point x="49" y="186" type="qcurve" smooth="yes"/>
      <point x="16" y="277"/>
      <point x="28" y="403" type="qcurve" smooth="yes"/>
      <point x="42" y="540"/>
      <point x="131" y="614" type="qcurve" smooth="yes"/>
      <point x="227" y="697"/>
    </contour>
    <contour>
      <point x="471" y="563" type="qcurve" smooth="yes"/>
      <point x="407" y="551"/>
      <point x="378" y="499" type="qcurve" smooth="yes"/>
      <point x="357" y="462"/>
      <point x="345" y="376"/>
      <point x="346" y="319" type="qcurve" smooth="yes"/>
      <point x="348" y="286"/>
      <point x="354" y="244"/>
      <point x="373" y="189"/>
      <point x="389" y="170" type="qcurve" smooth="yes"/>
      <point x="433" y="123"/>
      <point x="527" y="129" type="qcurve" smooth="yes"/>
      <point x="606" y="135"/>
      <point x="637" y="187" type="qcurve" smooth="yes"/>
      <point x="658" y="222"/>
      <point x="669" y="304"/>
      <point x="668" y="361" type="qcurve" smooth="yes"/>
      <point x="665" y="415"/>
      <point x="646" y="493"/>
      <point x="620" y="523" type="qcurve" smooth="yes"/>
      <point x="595" y="552"/>
      <point x="514" y="570"/>
    </contour>
    <contour>
      <point x="505" y="454" type="line"/>
      <point x="595" y="337" type="line"/>
      <point x="583" y="323"/>
      <point x="550" y="279" type="qcurve" smooth="yes"/>
      <point x="519" y="239" type="line"/>
      <point x="505" y="221" type="line" smooth="yes"/>
      <point x="505" y="220"/>
      <point x="492" y="237"/>
      <point x="471" y="265"/>
      <point x="461" y="279" type="qcurve" smooth="yes"/>
      <point x="417" y="338" type="line"/>
    </contour>
  </outline>
</glyph>
<glyph name="ocircumflex" format="2">
  <advance width="1015"/>
  <unicode hex="00F4"/>
  <outline>
    <contour>
      <point x="466" y="949" type="qcurve"/>
      <point x="469" y="949" type="line"/>
      <point x="550" y="949" type="line"/>
      <point x="694" y="752" type="line"/>
      <point x="592" y="752" type="line"/>
      <point x="579" y="770"/>
      <point x="523" y="848"/>
      <point x="508" y="868" type="qcurve"/>
      <point x="498" y="855"/>
      <point x="441" y="775"/>
      <point x="424" y="752" type="qcurve"/>
      <point x="326" y="752" type="line"/>
      <point x="346" y="781"/>
      <point x="441" y="912"/>
      <point x="466" y="949" type="qcurve"/>
      <point x="469" y="949" type="line"/>
      <point x="550" y="949" type="line"/>
      <point x="694" y="752" type="line"/>
      <point x="592" y="752" type="line"/>
      <point x="579" y="770"/>
      <point x="523" y="848"/>
      <point x="508" y="868" type="qcurve"/>
      <point x="498" y="855"/>
      <point x="441" y="775"/>
      <point x="424" y="752" type="qcurve"/>
      <point x="326" y="752" type="line"/>
      <point x="346" y="781"/>
      <point x="441" y="912"/>
      <point x="466" y="949" type="qcurve"/>
      <point x="469" y="949" type="line"/>
      <point x="550" y="949" type="line"/>
      <point x="694" y="752" type="line"/>
      <point x="592" y="752" type="line"/>
      <point x="579" y="770"/>
      <point x="523" y="848"/>
      <point x="508" y="868" type="qcurve"/>
      <point x="498" y="855"/>
      <point x="441" y="775"/>
      <point x="424" y="752" type="qcurve"/>
      <point x="326" y="752" type="line"/>
      <point x="346" y="781"/>
      <point x="441" y="912"/>
    </contour>
    <contour>
      <point x="408" y="712" type="qcurve" smooth="yes"/>
      <point x="610" y="728"/>
      <point x="749" y="684" type="qcurve" smooth="yes"/>
      <point x="884" y="642"/>
      <point x="943" y="537" type="qcurve" smooth="yes"/>
      <point x="1007" y="425"/>
      <point x="984" y="260" type="qcurve" smooth="yes"/>
      <point x="974" y="196"/>
      <point x="908" y="88"/>
      <point x="855" y="55" type="qcurve" smooth="yes"/>
      <point x="740" y="-18"/>
      <point x="532" y="-24" type="qcurve" smooth="yes"/>
      <point x="432" y="-24"/>
      <point x="272" y="-3"/>
      <point x="201" y="28" type="qcurve" smooth="yes"/>
      <point x="148" y="52"/>
      <point x="69" y="133"/>
      <point x="49" y="186" type="qcurve" smooth="yes"/>
      <point x="16" y="277"/>
      <point x="28" y="403" type="qcurve" smooth="yes"/>
      <point x="42" y="540"/>
      <point x="131" y="614" type="qcurve" smooth="yes"/>
      <point x="227" y="697"/>
    </contour>
    <contour>
      <point x="471" y="563" type="qcurve" smooth="yes"/>
      <point x="407" y="551"/>
      <point x="378" y="499" type="qcurve" smooth="yes"/>
      <point x="357" y="462"/>
      <point x="345" y="376"/>
      <point x="346" y="319" type="qcurve" smooth="yes"/>
      <point x="348" y="286"/>
      <point x="354" y="244"/>
      <point x="373" y="189"/>
      <point x="389" y="170" type="qcurve" smooth="yes"/>
      <point x="433" y="123"/>
      <point x="527" y="129" type="qcurve" smooth="yes"/>
      <point x="606" y="135"/>
      <point x="637" y="187" type="qcurve" smooth="yes"/>
      <point x="658" y="222"/>
      <point x="669" y="304"/>
      <point x="668" y="361" type="qcurve" smooth="yes"/>
      <point x="665" y="415"/>
      <point x="646" y="493"/>
      <point x="620" y="523" type="qcurve" smooth="yes"/>
      <point x="595" y="552"/>
      <point x="514" y="570"/>
    </contour>
    <contour>
      <point x="505" y="454" type="line"/>
      <point x="595" y="337" type="line"/>
      <point x="583" y="323"/>
      <point x="550" y="279" type="qcurve" smooth="yes"/>
      <point x="519" y="239" type="line"/>
      <point x="505" y="221" type="line" smooth="yes"/>
      <point x="505" y="220"/>
      <point x="492" y="237"/>
      <point x="471" y="265"/>
      <point x="461" y="279" type="qcurve" smooth="yes"/>
      <point x="417" y="338" type="line"/>
    </contour>
  </outline>
</glyph>
<glyph name="otilde" format="2">
  <advance width="1015"/>
  <unicode hex="00F5"/>
  <outline>
    <contour>
      <point x="706" y="905" type="qcurve" smooth="yes"/>
      <point x="718" y="912"/>
      <point x="741" y="936"/>
      <point x="752" y="952"/>
      <point x="762" y="969" type="qcurve"/>
      <point x="751" y="869"/>
      <point x="718" y="821" type="qcurve" smooth="yes"/>
      <point x="702" y="800"/>
      <point x="652" y="779"/>
      <point x="626" y="782" type="qcurve" smooth="yes"/>
      <point x="586" y="789"/>
      <point x="419" y="828"/>
      <point x="374" y="834" type="qcurve" smooth="yes"/>
      <point x="371" y="834"/>
      <point x="346" y="836"/>
      <point x="330" y="834"/>
      <point x="324" y="830" type="qcurve" smooth="yes"/>
      <point x="286" y="814"/>
      <point x="265" y="769" type="qcurve"/>
      <point x="265" y="862"/>
      <point x="311" y="915" type="qcurve" smooth="yes"/>
      <point x="346" y="955"/>
      <point x="400" y="949" type="qcurve" smooth="yes"/>
      <point x="448" y="944"/>
      <point x="618" y="906"/>
      <point x="651" y="901" type="qcurve" smooth="yes"/>
      <point x="682" y="894"/>
      <point x="706" y="905" type="qcurve" smooth="yes"/>
      <point x="718" y="912"/>
      <point x="741" y="936"/>
      <point x="752" y="952"/>
      <point x="762" y="969" type="qcurve"/>
      <point x="751" y="869"/>
      <point x="718" y="821" type="qcurve" smooth="yes"/>
      <point x="702" y="800"/>
      <point x="652" y="779"/>
      <point x="626" y="782" type="qcurve" smooth="yes"/>
      <point x="586" y="789"/>
      <point x="419" y="828"/>
      <point x="374" y="834" type="qcurve" smooth="yes"/>
      <point x="371" y="834"/>
      <point x="346" y="836"/>
      <point x="330" y="834"/>
      <point x="324" y="830" type="qcurve" smooth="yes"/>
      <point x="286" y="814"/>
      <point x="265" y="769" type="qcurve"/>
      <point x="265" y="862"/>
      <point x="311" y="915" type="qcurve" smooth="yes"/>
      <point x="346" y="955"/>
      <point x="400" y="949" type="qcurve" smooth="yes"/>
      <point x="448" y="944"/>
      <point x="618" y="906"/>
      <point x="651" y="901" type="qcurve" smooth="yes"/>
      <point x="682" y="894"/>
      <point x="706" y="905" type="qcurve" smooth="yes"/>
      <point x="718" y="912"/>
      <point x="741" y="936"/>
      <point x="752" y="952"/>
      <point x="762" y="969" type="qcurve"/>
      <point x="751" y="869"/>
      <point x="718" y="821" type="qcurve" smooth="yes"/>
      <point x="702" y="800"/>
      <point x="652" y="779"/>
      <point x="626" y="782" type="qcurve" smooth="yes"/>
      <point x="586" y="789"/>
      <point x="419" y="828"/>
      <point x="374" y="834" type="qcurve" smooth="yes"/>
      <point x="371" y="834"/>
      <point x="346" y="836"/>
      <point x="330" y="834"/>
      <point x="324" y="830" type="qcurve" smooth="yes"/>
      <point x="286" y="814"/>
      <point x="265" y="769" type="qcurve"/>
      <point x="265" y="862"/>
      <point x="311" y="915" type="qcurve" smooth="yes"/>
      <point x="346" y="955"/>
      <point x="400" y="949" type="qcurve" smooth="yes"/>
      <point x="448" y="944"/>
      <point x="618" y="906"/>
      <point x="651" y="901" type="qcurve" smooth="yes"/>
      <point x="682" y="894"/>
    </contour>
    <contour>
      <point x="408" y="712" type="qcurve" smooth="yes"/>
      <point x="610" y="728"/>
      <point x="749" y="684" type="qcurve" smooth="yes"/>
      <point x="884" y="642"/>
      <point x="943" y="537" type="qcurve" smooth="yes"/>
      <point x="1007" y="425"/>
      <point x="984" y="260" type="qcurve" smooth="yes"/>
      <point x="974" y="196"/>
      <point x="908" y="88"/>
      <point x="855" y="55" type="qcurve" smooth="yes"/>
      <point x="740" y="-18"/>
      <point x="532" y="-24" type="qcurve" smooth="yes"/>
      <point x="432" y="-24"/>
      <point x="272" y="-3"/>
      <point x="201" y="28" type="qcurve" smooth="yes"/>
      <point x="148" y="52"/>
      <point x="69" y="133"/>
      <point x="49" y="186" type="qcurve" smooth="yes"/>
      <point x="16" y="277"/>
      <point x="28" y="403" type="qcurve" smooth="yes"/>
      <point x="42" y="540"/>
      <point x="131" y="614" type="qcurve" smooth="yes"/>
      <point x="227" y="697"/>
    </contour>
    <contour>
      <point x="471" y="563" type="qcurve" smooth="yes"/>
      <point x="407" y="551"/>
      <point x="378" y="499" type="qcurve" smooth="yes"/>
      <point x="357" y="462"/>
      <point x="345" y="376"/>
      <point x="346" y="319" type="qcurve" smooth="yes"/>
      <point x="348" y="286"/>
      <point x="354" y="244"/>
      <point x="373" y="189"/>
      <point x="389" y="170" type="qcurve" smooth="yes"/>
      <point x="433" y="123"/>
      <point x="527" y="129" type="qcurve" smooth="yes"/>
      <point x="606" y="135"/>
      <point x="637" y="187" type="qcurve" smooth="yes"/>
      <point x="658" y="222"/>
      <point x="669" y="304"/>
      <point x="668" y="361" type="qcurve" smooth="yes"/>
      <point x="665" y="415"/>
      <point x="646" y="493"/>
      <point x="620" y="523" type="qcurve" smooth="yes"/>
      <point x="595" y="552"/>
      <point x="514" y="570"/>
    </contour>
    <contour>
      <point x="505" y="454" type="line"/>
      <point x="595" y="337" type="line"/>
      <point x="583" y="323"/>
      <point x="550" y="279" type="qcurve" smooth="yes"/>
      <point x="519" y="239" type="line"/>
      <point x="505" y="221" type="line" smooth="yes"/>
      <point x="505" y="220"/>
      <point x="492" y="237"/>
      <point x="471" y="265"/>
      <point x="461" y="279" type="qcurve" smooth="yes"/>
      <point x="417" y="338" type="line"/>
    </contour>
  </outline>
</glyph>
<glyph name="glyph185" format="2">
  <advance width="1015"/>
  <unicode hex="00F6"/>
  <outline>
    <contour>
      <point x="646" y="750" type="qcurve" smooth="yes"/>
      <point x="596" y="750"/>
      <point x="532" y="803"/>
      <point x="532" y="850" type="qcurve" smooth="yes"/>
      <point x="532" y="872"/>
      <point x="547" y="908"/>
      <point x="576" y="935"/>
      <point x="618" y="950"/>
      <point x="646" y="950" type="qcurve" smooth="yes"/>
      <point x="701" y="950"/>
      <point x="760" y="894"/>
      <point x="760" y="850" type="qcurve" smooth="yes"/>
      <point x="760" y="827"/>
      <point x="742" y="790"/>
      <point x="712" y="764"/>
      <point x="670" y="750"/>
    </contour>
    <contour>
      <point x="381" y="750" type="qcurve" smooth="yes"/>
      <point x="331" y="750"/>
      <point x="267" y="803"/>
      <point x="267" y="850" type="qcurve" smooth="yes"/>
      <point x="267" y="872"/>
      <point x="282" y="908"/>
      <point x="311" y="935"/>
      <point x="353" y="950"/>
      <point x="381" y="950" type="qcurve" smooth="yes"/>
      <point x="435" y="950"/>
      <point x="495" y="894"/>
      <point x="495" y="850" type="qcurve" smooth="yes"/>
      <point x="495" y="827"/>
      <point x="477" y="790"/>
      <point x="446" y="764"/>
      <point x="405" y="750"/>
    </contour>
    <contour>
      <point x="408" y="712" type="qcurve" smooth="yes"/>
      <point x="610" y="728"/>
      <point x="749" y="684" type="qcurve" smooth="yes"/>
      <point x="884" y="642"/>
      <point x="943" y="537" type="qcurve" smooth="yes"/>
      <point x="1007" y="425"/>
      <point x="984" y="260" type="qcurve" smooth="yes"/>
      <point x="974" y="196"/>
      <point x="908" y="88"/>
      <point x="855" y="55" type="qcurve" smooth="yes"/>
      <point x="740" y="-18"/>
      <point x="532" y="-24" type="qcurve" smooth="yes"/>
      <point x="432" y="-24"/>
      <point x="272" y="-3"/>
      <point x="201" y="28" type="qcurve" smooth="yes"/>
      <point x="148" y="52"/>
      <point x="69" y="133"/>
      <point x="49" y="186" type="qcurve" smooth="yes"/>
      <point x="16" y="277"/>
      <point x="28" y="403" type="qcurve" smooth="yes"/>
      <point x="42" y="540"/>
      <point x="131" y="614" type="qcurve" smooth="yes"/>
      <point x="227" y="697"/>
    </contour>
    <contour>
      <point x="471" y="563" type="qcurve" smooth="yes"/>
      <point x="407" y="551"/>
      <point x="378" y="499" type="qcurve" smooth="yes"/>
      <point x="357" y="462"/>
      <point x="345" y="376"/>
      <point x="346" y="319" type="qcurve" smooth="yes"/>
      <point x="348" y="286"/>
      <point x="354" y="244"/>
      <point x="373" y="189"/>
      <point x="389" y="170" type="qcurve" smooth="yes"/>
      <point x="433" y="123"/>
      <point x="527" y="129" type="qcurve" smooth="yes"/>
      <point x="606" y="135"/>
      <point x="637" y="187" type="qcurve" smooth="yes"/>
      <point x="658" y="222"/>
      <point x="669" y="304"/>
      <point x="668" y="361" type="qcurve" smooth="yes"/>
      <point x="665" y="415"/>
      <point x="646" y="493"/>
      <point x="620" y="523" type="qcurve" smooth="yes"/>
      <point x="595" y="552"/>
      <point x="514" y="570"/>
    </contour>
    <contour>
      <point x="505" y="454" type="line"/>
      <point x="595" y="337" type="line"/>
      <point x="583" y="323"/>
      <point x="550" y="279" type="qcurve" smooth="yes"/>
      <point x="519" y="239" type="line"/>
      <point x="505" y="221" type="line" smooth="yes"/>
      <point x="505" y="220"/>
      <point x="492" y="237"/>
      <point x="471" y="265"/>
      <point x="461" y="279" type="qcurve" smooth="yes"/>
      <point x="417" y="338" type="line"/>
    </contour>
  </outline>
</glyph>
<glyph name="ucircumflex" format="2">
  <advance width="984"/>
  <unicode hex="00FB"/>
  <outline>
    <contour>
      <point x="456" y="947" type="qcurve"/>
      <point x="459" y="947" type="line"/>
      <point x="540" y="947" type="line"/>
      <point x="684" y="750" type="line"/>
      <point x="582" y="750" type="line"/>
      <point x="569" y="768"/>
      <point x="513" y="846"/>
      <point x="498" y="866" type="qcurve"/>
      <point x="488" y="853"/>
      <point x="431" y="773"/>
      <point x="414" y="750" type="qcurve"/>
      <point x="316" y="750" type="line"/>
      <point x="336" y="779"/>
      <point x="431" y="910"/>
      <point x="456" y="947" type="qcurve"/>
      <point x="459" y="947" type="line"/>
      <point x="540" y="947" type="line"/>
      <point x="684" y="750" type="line"/>
      <point x="582" y="750" type="line"/>
      <point x="569" y="768"/>
      <point x="513" y="846"/>
      <point x="498" y="866" type="qcurve"/>
      <point x="488" y="853"/>
      <point x="431" y="773"/>
      <point x="414" y="750" type="qcurve"/>
      <point x="316" y="750" type="line"/>
      <point x="336" y="779"/>
      <point x="431" y="910"/>
      <point x="456" y="947" type="qcurve"/>
      <point x="459" y="947" type="line"/>
      <point x="540" y="947" type="line"/>
      <point x="684" y="750" type="line"/>
      <point x="582" y="750" type="line"/>
      <point x="569" y="768"/>
      <point x="513" y="846"/>
      <point x="498" y="866" type="qcurve"/>
      <point x="488" y="853"/>
      <point x="431" y="773"/>
      <point x="414" y="750" type="qcurve"/>
      <point x="316" y="750" type="line"/>
      <point x="336" y="779"/>
      <point x="431" y="910"/>
    </contour>
    <contour>
      <point x="25" y="700" type="qcurve"/>
      <point x="26" y="699"/>
      <point x="203" y="700" type="qcurve" smooth="yes"/>
      <point x="380" y="700" type="line"/>
      <point x="358" y="675"/>
      <point x="358" y="612" type="qcurve" smooth="yes"/>
      <point x="358" y="283" type="line" smooth="yes"/>
      <point x="358" y="213"/>
      <point x="400" y="180" type="qcurve" smooth="yes"/>
      <point x="447" y="143"/>
      <point x="534" y="150" type="qcurve" smooth="yes"/>
      <point x="597" y="155"/>
      <point x="625" y="202" type="qcurve" smooth="yes"/>
      <point x="644" y="234"/>
      <point x="644" y="298" type="qcurve" smooth="yes"/>
      <point x="644" y="350"/>
      <point x="644" y="560"/>
      <point x="643" y="612" type="qcurve" smooth="yes"/>
      <point x="643" y="676"/>
      <point x="619" y="700" type="qcurve"/>
      <point x="790" y="699"/>
      <point x="959" y="700" type="qcurve"/>
      <point x="909" y="669"/>
      <point x="909" y="607" type="qcurve" smooth="yes"/>
      <point x="909" y="266" type="line" smooth="yes"/>
      <point x="909" y="153"/>
      <point x="850" y="83" type="qcurve" smooth="yes"/>
      <point x="794" y="17"/>
      <point x="688" y="-6" type="qcurve" smooth="yes"/>
      <point x="582" y="-31"/>
      <point x="428" y="-24" type="qcurve" smooth="yes"/>
      <point x="252" y="-15"/>
      <point x="161" y="64" type="qcurve" smooth="yes"/>
      <point x="77" y="135"/>
      <point x="75" y="261" type="qcurve" smooth="yes"/>
      <point x="74" y="261"/>
      <point x="74" y="436" type="qcurve" smooth="yes"/>
      <point x="75" y="612" type="line" smooth="yes"/>
      <point x="73" y="670"/>
    </contour>
  </outline>
</glyph>
<glyph name="aogonek" format="2">
  <advance width="1134"/>
  <unicode hex="0105"/>
  <outline>
    <contour>
      <point x="386" y="120" type="line"/>
      <point x="385" y="118" type="line" smooth="yes"/>
      <point x="365" y="78"/>
      <point x="365" y="50" type="qcurve" smooth="yes"/>
      <point x="365" y="14"/>
      <point x="384" y="0" type="qcurve"/>
      <point x="25" y="0" type="line"/>
      <point x="85" y="50"/>
      <point x="159" y="187" type="qcurve" smooth="yes"/>
      <point x="380" y="597" type="line" smooth="yes"/>
      <point x="400" y="634"/>
      <point x="400" y="652" type="qcurve" smooth="yes"/>
      <point x="400" y="683"/>
      <point x="381" y="700" type="qcurve"/>
      <point x="700" y="700" type="line"/>
      <point x="975" y="187" type="line" smooth="yes"/>
      <point x="1049" y="49"/>
      <point x="1109" y="0" type="qcurve"/>
      <point x="931" y="0" type="line"/>
      <point x="917" y="-19"/>
      <point x="892" y="-46" type="qcurve" smooth="yes"/>
      <point x="858" y="-82"/>
      <point x="845" y="-104" type="qcurve" smooth="yes"/>
      <point x="834" y="-117"/>
      <point x="828" y="-149"/>
      <point x="837" y="-167" type="qcurve" smooth="yes"/>
      <point x="849" y="-196"/>
      <point x="900" y="-196" type="qcurve" smooth="yes"/>
      <point x="976" y="-196"/>
      <point x="1040" y="-137" type="qcurve"/>
      <point x="1040" y="-268" type="line"/>
      <point x="941" y="-329"/>
      <point x="804" y="-320" type="qcurve" smooth="yes"/>
      <point x="704" y="-311"/>
      <point x="666" y="-268" type="qcurve" smooth="yes"/>
      <point x="638" y="-240"/>
      <point x="633" y="-154"/>
      <point x="654" y="-120" type="qcurve" smooth="yes"/>
      <point x="665" y="-96"/>
      <point x="699" y="-55"/>
      <point x="722" y="-31" type="qcurve" smooth="yes"/>
      <point x="739" y="-13"/>
      <point x="750" y="0" type="qcurve"/>
      <point x="750" y="0" type="line"/>
      <point x="770" y="23"/>
      <point x="770" y="52" type="qcurve" smooth="yes"/>
      <point x="769" y="80"/>
      <point x="748" y="118" type="qcurve" smooth="yes"/>
      <point x="730" y="151" type="line"/>
    </contour>
    <contour>
      <point x="664" y="274" type="line"/>
      <point x="566" y="455" type="line"/>
      <point x="460" y="255" type="line"/>
    </contour>
  </outline>
</glyph>
<glyph name="Dcaron" format="2">
  <advance width="980"/>
  <unicode hex="010E"/>
  <outline>
    <contour>
      <point x="424" y="750" type="qcurve"/>
      <point x="427" y="750" type="line"/>
      <point x="508" y="750" type="line"/>
      <point x="652" y="947" type="line"/>
      <point x="550" y="947" type="line"/>
      <point x="537" y="929"/>
      <point x="481" y="851"/>
      <point x="466" y="830" type="qcurve"/>
      <point x="456" y="843"/>
      <point x="399" y="924"/>
      <point x="381" y="947" type="qcurve"/>
      <point x="284" y="947" type="line"/>
      <point x="304" y="918"/>
      <point x="399" y="786"/>
      <point x="424" y="750" type="qcurve"/>
      <point x="427" y="750" type="line"/>
      <point x="508" y="750" type="line"/>
      <point x="652" y="947" type="line"/>
      <point x="550" y="947" type="line"/>
      <point x="537" y="929"/>
      <point x="481" y="851"/>
      <point x="466" y="830" type="qcurve"/>
      <point x="456" y="843"/>
      <point x="399" y="924"/>
      <point x="381" y="947" type="qcurve"/>
      <point x="284" y="947" type="line"/>
      <point x="304" y="918"/>
      <point x="399" y="786"/>
      <point x="424" y="750" type="qcurve"/>
      <point x="427" y="750" type="line"/>
      <point x="508" y="750" type="line"/>
      <point x="652" y="947" type="line"/>
      <point x="550" y="947" type="line"/>
      <point x="537" y="929"/>
      <point x="481" y="851"/>
      <point x="466" y="830" type="qcurve"/>
      <point x="456" y="843"/>
      <point x="399" y="924"/>
      <point x="381" y="947" type="qcurve"/>
      <point x="284" y="947" type="line"/>
      <point x="304" y="918"/>
      <point x="399" y="786"/>
    </contour>
    <contour>
      <point x="25" y="699" type="qcurve"/>
      <point x="80" y="699"/>
      <point x="463" y="700"/>
      <point x="518" y="698" type="qcurve" smooth="yes"/>
      <point x="711" y="692"/>
      <point x="820" y="629" type="qcurve" smooth="yes"/>
      <point x="868" y="601"/>
      <point x="934" y="510"/>
      <point x="945" y="456" type="qcurve" smooth="yes"/>
      <point x="980" y="283"/>
      <point x="896" y="166" type="qcurve" smooth="yes"/>
      <point x="830" y="68"/>
      <point x="693" y="29" type="qcurve" smooth="yes"/>
      <point x="593" y="-2"/>
      <point x="414" y="0" type="qcurve" smooth="yes"/>
      <point x="25" y="0" type="line"/>
      <point x="48" y="14"/>
      <point x="75" y="63"/>
      <point x="75" y="90" type="qcurve" smooth="yes"/>
      <point x="75" y="605" type="line" smooth="yes"/>
      <point x="75" y="633"/>
      <point x="48" y="685"/>
    </contour>
    <contour>
      <point x="357" y="552" type="qcurve"/>
      <point x="358" y="484"/>
      <point x="358" y="210"/>
      <point x="358" y="141" type="qcurve"/>
      <point x="489" y="141"/>
      <point x="489" y="141" type="qcurve" smooth="yes"/>
      <point x="564" y="143"/>
      <point x="606" y="180" type="qcurve" smooth="yes"/>
      <point x="655" y="219"/>
      <point x="664" y="308" type="qcurve" smooth="yes"/>
      <point x="674" y="419"/>
      <point x="641" y="477" type="qcurve" smooth="yes"/>
      <point x="625" y="506"/>
      <point x="563" y="542"/>
      <point x="527" y="548" type="qcurve" smooth="yes"/>
      <point x="502" y="552"/>
      <point x="446" y="553"/>
      <point x="375" y="552"/>
    </contour>
  </outline>
</glyph>
<glyph name="dcroat" format="2">
  <advance width="1052"/>
  <unicode hex="0111"/>
  <outline>
    <contour>
      <point x="25" y="253" type="line"/>
      <point x="25" y="440" type="line"/>
      <point x="555" y="440" type="line"/>
      <point x="555" y="253" type="line"/>
      <point x="25" y="253" type="line"/>
      <point x="25" y="440" type="line"/>
      <point x="555" y="440" type="line"/>
      <point x="555" y="253" type="line"/>
      <point x="25" y="253" type="line"/>
      <point x="25" y="440" type="line"/>
      <point x="555" y="440" type="line"/>
      <point x="555" y="253" type="line"/>
    </contour>
    <contour>
      <point x="97" y="699" type="qcurve"/>
      <point x="152" y="699"/>
      <point x="535" y="700"/>
      <point x="590" y="698" type="qcurve" smooth="yes"/>
      <point x="783" y="692"/>
      <point x="892" y="629" type="qcurve" smooth="yes"/>
      <point x="940" y="601"/>
      <point x="1006" y="510"/>
      <point x="1017" y="456" type="qcurve" smooth="yes"/>
      <point x="1052" y="283"/>
      <point x="968" y="166" type="qcurve" smooth="yes"/>
      <point x="902" y="68"/>
      <point x="765" y="29" type="qcurve" smooth="yes"/>
      <point x="665" y="-2"/>
      <point x="486" y="0" type="qcurve" smooth="yes"/>
      <point x="97" y="0" type="line"/>
      <point x="120" y="14"/>
      <point x="147" y="63"/>
      <point x="147" y="90" type="qcurve" smooth="yes"/>
      <point x="147" y="605" type="line" smooth="yes"/>
      <point x="147" y="633"/>
      <point x="120" y="685"/>
    </contour>
    <contour>
      <point x="429" y="552" type="qcurve"/>
      <point x="430" y="484"/>
      <point x="430" y="210"/>
      <point x="430" y="141" type="qcurve"/>
      <point x="561" y="141"/>
      <point x="561" y="141" type="qcurve" smooth="yes"/>
      <point x="636" y="143"/>
      <point x="678" y="180" type="qcurve" smooth="yes"/>
      <point x="727" y="219"/>
      <point x="736" y="308" type="qcurve" smooth="yes"/>
      <point x="746" y="419"/>
      <point x="713" y="477" type="qcurve" smooth="yes"/>
      <point x="697" y="506"/>
      <point x="635" y="542"/>
      <point x="599" y="548" type="qcurve" smooth="yes"/>
      <point x="574" y="552"/>
      <point x="518" y="553"/>
      <point x="447" y="552"/>
    </contour>
  </outline>
</glyph>
<glyph name="ebreve" format="2">
  <advance width="839"/>
  <unicode hex="0115"/>
  <outline>
    <contour>
      <point x="422" y="886" type="qcurve" smooth="yes"/>
      <point x="384" y="886"/>
      <point x="347" y="922"/>
      <point x="346" y="949" type="qcurve"/>
      <point x="197" y="949" type="line"/>
      <point x="198" y="949"/>
      <point x="197" y="948" type="qcurve" smooth="yes"/>
      <point x="198" y="905"/>
      <point x="227" y="834"/>
      <point x="256" y="807" type="qcurve" smooth="yes"/>
      <point x="284" y="781"/>
      <point x="326" y="766" type="qcurve" smooth="yes"/>
      <point x="367" y="751"/>
      <point x="422" y="751" type="qcurve" smooth="yes"/>
      <point x="530" y="751"/>
      <point x="588" y="806" type="qcurve" smooth="yes"/>
      <point x="647" y="861"/>
      <point x="647" y="948" type="qcurve" smooth="yes"/>
      <point x="647" y="949"/>
      <point x="647" y="949" type="qcurve"/>
      <point x="498" y="949" type="line"/>
      <point x="499" y="921"/>
      <point x="458" y="886"/>
    </contour>
    <contour>
      <point x="25" y="701" type="qcurve"/>
      <point x="285" y="700"/>
      <point x="801" y="700" type="qcurve"/>
      <point x="802" y="664"/>
      <point x="802" y="526"/>
      <point x="802" y="490" type="qcurve"/>
      <point x="769" y="532"/>
      <point x="707" y="532" type="qcurve" smooth="yes"/>
      <point x="358" y="532" type="line"/>
      <point x="358" y="431" type="line"/>
      <point x="722" y="431" type="line"/>
      <point x="722" y="282" type="line"/>
      <point x="358" y="282" type="line"/>
      <point x="358" y="167" type="line"/>
      <point x="412" y="168"/>
      <point x="627" y="168"/>
      <point x="681" y="168" type="qcurve" smooth="yes"/>
      <point x="734" y="168"/>
      <point x="751" y="174" type="qcurve" smooth="yes"/>
      <point x="798" y="193"/>
      <point x="814" y="230" type="qcurve"/>
      <point x="814" y="0" type="line"/>
      <point x="25" y="0" type="line"/>
      <point x="75" y="31"/>
      <point x="75" y="91" type="qcurve" smooth="yes"/>
      <point x="75" y="606" type="line" smooth="yes"/>
      <point x="76" y="634"/>
      <point x="49" y="686"/>
    </contour>
  </outline>
</glyph>
<glyph name="hcircumflex" format="2">
  <advance width="1029"/>
  <unicode hex="0125"/>
  <outline>
    <contour>
      <point x="475" y="947" type="qcurve"/>
      <point x="478" y="947" type="line"/>
      <point x="559" y="947" type="line"/>
      <point x="703" y="750" type="line"/>
      <point x="601" y="750" type="line"/>
      <point x="588" y="768"/>
      <point x="532" y="846"/>
      <point x="517" y="866" type="qcurve"/>
      <point x="507" y="853"/>
      <point x="450" y="773"/>
      <point x="433" y="750" type="qcurve"/>
      <point x="335" y="750" type="line"/>
      <point x="355" y="779"/>
      <point x="450" y="910"/>
      <point x="475" y="947" type="qcurve"/>
      <point x="478" y="947" type="line"/>
      <point x="559" y="947" type="line"/>
      <point x="703" y="750" type="line"/>
      <point x="601" y="750" type="line"/>
      <point x="588" y="768"/>
      <point x="532" y="846"/>
      <point x="517" y="866" type="qcurve"/>
      <point x="507" y="853"/>
      <point x="450" y="773"/>
      <point x="433" y="750" type="qcurve"/>
      <point x="335" y="750" type="line"/>
      <point x="355" y="779"/>
      <point x="450" y="910"/>
      <point x="475" y="947" type="qcurve"/>
      <point x="478" y="947" type="line"/>
      <point x="559" y="947" type="line"/>
      <point x="703" y="750" type="line"/>
      <point x="601" y="750" type="line"/>
      <point x="588" y="768"/>
      <point x="532" y="846"/>
      <point x="517" y="866" type="qcurve"/>
      <point x="507" y="853"/>
      <point x="450" y="773"/>
      <point x="433" y="750" type="qcurve"/>
      <point x="335" y="750" type="line"/>
      <point x="355" y="779"/>
      <point x="450" y="910"/>
    </contour>
    <contour>
      <point x="27" y="700" type="qcurve"/>
      <point x="383" y="700" type="line"/>
      <point x="362" y="677"/>
      <point x="360" y="617" type="qcurve" smooth="yes"/>
      <point x="360" y="438" type="line"/>
      <point x="671" y="438" type="line"/>
      <point x="671" y="617" type="line" smooth="yes"/>
      <point x="669" y="677"/>
      <point x="648" y="700" type="qcurve"/>
      <point x="1004" y="700" type="line"/>
      <point x="980" y="686"/>
      <point x="953" y="635"/>
      <point x="954" y="607" type="qcurve" smooth="yes"/>
      <point x="954" y="96" type="line" smooth="yes"/>
      <point x="953" y="66"/>
      <point x="980" y="14"/>
      <point x="1004" y="0" type="qcurve"/>
      <point x="648" y="0" type="line"/>
      <point x="669" y="23"/>
      <point x="671" y="85" type="qcurve" smooth="yes"/>
      <point x="671" y="295" type="line"/>
      <point x="360" y="295" type="line"/>
      <point x="360" y="85" type="line" smooth="yes"/>
      <point x="362" y="22"/>
      <point x="384" y="0" type="qcurve"/>
      <point x="25" y="0" type="line"/>
      <point x="50" y="12"/>
      <point x="78" y="66"/>
      <point x="77" y="96" type="qcurve" smooth="yes"/>
      <point x="77" y="606" type="line" smooth="yes"/>
      <point x="78" y="634"/>
      <point x="51" y="686"/>
    </contour>
  </outline>
</glyph>
<glyph name="Imacron" format="2">
  <advance width="585"/>
  <unicode hex="012A"/>
  <outline>
    <contour>
      <point x="560" y="748" type="line"/>
      <point x="25" y="748" type="line"/>
      <point x="25" y="928" type="line"/>
      <point x="560" y="928" type="line"/>
    </contour>
    <contour>
      <point x="105" y="700" type="qcurve"/>
      <point x="488" y="700" type="line"/>
      <point x="464" y="686"/>
      <point x="437" y="634"/>
      <point x="438" y="606" type="qcurve" smooth="yes"/>
      <point x="438" y="95" type="line" smooth="yes"/>
      <point x="437" y="65"/>
      <point x="464" y="13"/>
      <point x="488" y="-1" type="qcurve"/>
      <point x="105" y="-1"/>
      <point x="105" y="-1" type="qcurve"/>
      <point x="155" y="30"/>
      <point x="155" y="90" type="qcurve" smooth="yes"/>
      <point x="155" y="605" type="line" smooth="yes"/>
      <point x="156" y="634"/>
      <point x="129" y="686"/>
    </contour>
  </outline>
</glyph>
<glyph name="ij" format="2">
  <advance width="1010"/>
  <unicode hex="0133"/>
  <outline>
    <contour>
      <point x="601" y="700" type="qcurve"/>
      <point x="985" y="700" type="line"/>
      <point x="952" y="680"/>
      <point x="942" y="647" type="qcurve" smooth="yes"/>
      <point x="937" y="637"/>
      <point x="933" y="610"/>
      <point x="935" y="587"/>
      <point x="934" y="574" type="qcurve" smooth="yes"/>
      <point x="934" y="233"/>
      <point x="934" y="233" type="qcurve" smooth="yes"/>
      <point x="934" y="122"/>
      <point x="880" y="59" type="qcurve" smooth="yes"/>
      <point x="826" y="-3"/>
      <point x="727" y="-19" type="qcurve" smooth="yes"/>
      <point x="638" y="-33"/>
      <point x="525" y="-15" type="qcurve"/>
      <point x="452" y="1"/>
      <point x="433" y="10" type="qcurve"/>
      <point x="433" y="200" type="line"/>
      <point x="479" y="157"/>
      <point x="531" y="153" type="qcurve" smooth="yes"/>
      <point x="596" y="147"/>
      <point x="625" y="176" type="qcurve" smooth="yes"/>
      <point x="651" y="202"/>
      <point x="651" y="254" type="qcurve" smooth="yes"/>
      <point x="651" y="254"/>
      <point x="651" y="606" type="qcurve" smooth="yes"/>
      <point x="652" y="634"/>
      <point x="625" y="686"/>
    </contour>
    <contour>
      <point x="25" y="700" type="qcurve"/>
      <point x="408" y="700" type="line"/>
      <point x="384" y="686"/>
      <point x="357" y="634"/>
      <point x="358" y="606" type="qcurve" smooth="yes"/>
      <point x="358" y="95" type="line" smooth="yes"/>
      <point x="357" y="65"/>
      <point x="384" y="13"/>
      <point x="408" y="-1" type="qcurve"/>
      <point x="25" y="-1"/>
      <point x="25" y="-1" type="qcurve"/>
      <point x="75" y="30"/>
      <point x="75" y="90" type="qcurve" smooth="yes"/>
      <point x="75" y="605" type="line" smooth="yes"/>
      <point x="76" y="634"/>
      <point x="49" y="686"/>
    </contour>
  </outline>
</glyph>
<glyph name="uni013C" format="2">
  <advance width="817"/>
  <unicode hex="013C"/>
  <outline>
    <contour>
      <point x="363" y="-69" type="qcurve"/>
      <point x="502" y="-69" type="line"/>
      <point x="442" y="-192"/>
      <point x="407" y="-269" type="qcurve"/>
      <point x="326" y="-269" type="line"/>
      <point x="332" y="-238"/>
      <point x="355" y="-131"/>
      <point x="360" y="-110" type="qcurve" smooth="yes"/>
      <point x="363" y="-97"/>
    </contour>
    <contour>
      <point x="363" y="-69" type="qcurve"/>
      <point x="502" y="-69" type="line"/>
      <point x="442" y="-192"/>
      <point x="407" y="-269" type="qcurve"/>
      <point x="326" y="-269" type="line"/>
      <point x="332" y="-238"/>
      <point x="355" y="-131"/>
      <point x="360" y="-110" type="qcurve" smooth="yes"/>
      <point x="363" y="-97"/>
    </contour>
    <contour>
      <point x="363" y="-69" type="qcurve"/>
      <point x="502" y="-69" type="line"/>
      <point x="442" y="-192"/>
      <point x="407" y="-269" type="qcurve"/>
      <point x="326" y="-269" type="line"/>
      <point x="332" y="-238"/>
      <point x="355" y="-131"/>
      <point x="360" y="-110" type="qcurve" smooth="yes"/>
      <point x="363" y="-97"/>
    </contour>
    <contour>
      <point x="25" y="700" type="qcurve"/>
      <point x="217" y="698"/>
      <point x="409" y="700" type="qcurve"/>
      <point x="358" y="670"/>
      <point x="358" y="605" type="qcurve" smooth="yes"/>
      <point x="358" y="534"/>
      <point x="358" y="250"/>
      <point x="359" y="178" type="qcurve"/>
      <point x="636" y="178" type="line" smooth="yes"/>
      <point x="682" y="176"/>
      <point x="766" y="217"/>
      <point x="792" y="255" type="qcurve"/>
      <point x="792" y="-1" type="line"/>
      <point x="25" y="-1"/>
      <point x="25" y="-1" type="qcurve"/>
      <point x="50" y="13"/>
      <point x="77" y="66"/>
      <point x="75" y="95" type="qcurve" smooth="yes"/>
      <point x="75" y="606" type="line" smooth="yes"/>
      <point x="76" y="634"/>
      <point x="49" y="686"/>
    </contour>
  </outline>
</glyph>
<glyph name="Ldot" format="2">
  <advance width="818"/>
  <unicode hex="013F"/>
  <outline>
    <contour>
      <point x="680" y="501" type="qcurve" smooth="yes"/>
      <point x="630" y="501"/>
      <point x="567" y="554"/>
      <point x="567" y="600" type="qcurve" smooth="yes"/>
      <point x="567" y="622"/>
      <point x="582" y="658"/>
      <point x="611" y="684"/>
      <point x="652" y="699"/>
      <point x="680" y="699" type="qcurve" smooth="yes"/>
      <point x="734" y="699"/>
      <point x="793" y="644"/>
      <point x="793" y="600" type="qcurve" smooth="yes"/>
      <point x="793" y="578"/>
      <point x="775" y="541"/>
      <point x="745" y="515"/>
      <point x="704" y="501"/>
    </contour>
    <contour>
      <point x="25" y="700" type="qcurve"/>
      <point x="217" y="698"/>
      <point x="409" y="700" type="qcurve"/>
      <point x="358" y="670"/>
      <point x="358" y="605" type="qcurve" smooth="yes"/>
      <point x="358" y="534"/>
      <point x="358" y="250"/>
      <point x="359" y="178" type="qcurve"/>
      <point x="636" y="178" type="line" smooth="yes"/>
      <point x="682" y="176"/>
      <point x="766" y="217"/>
      <point x="792" y="255" type="qcurve"/>
      <point x="792" y="-1" type="line"/>
      <point x="25" y="-1"/>
      <point x="25" y="-1" type="qcurve"/>
      <point x="50" y="13"/>
      <point x="77" y="66"/>
      <point x="75" y="95" type="qcurve" smooth="yes"/>
      <point x="75" y="606" type="line" smooth="yes"/>
      <point x="76" y="634"/>
      <point x="49" y="686"/>
    </contour>
  </outline>
</glyph>
<glyph name="ncaron" format="2">
  <advance width="1009"/>
  <unicode hex="0148"/>
  <outline>
    <contour>
      <point x="458" y="750" type="qcurve"/>
      <point x="461" y="750" type="line"/>
      <point x="542" y="750" type="line"/>
      <point x="685" y="947" type="line"/>
      <point x="584" y="947" type="line"/>
      <point x="571" y="929"/>
      <point x="515" y="851"/>
      <point x="500" y="830" type="qcurve"/>
      <point x="490" y="843"/>
      <point x="432" y="924"/>
      <point x="415" y="947" type="qcurve"/>
      <point x="318" y="947" type="line"/>
      <point x="338" y="918"/>
      <point x="432" y="786"/>
      <point x="458" y="750" type="qcurve"/>
      <point x="461" y="750" type="line"/>
      <point x="542" y="750" type="line"/>
      <point x="685" y="947" type="line"/>
      <point x="584" y="947" type="line"/>
      <point x="571" y="929"/>
      <point x="515" y="851"/>
      <point x="500" y="830" type="qcurve"/>
      <point x="490" y="843"/>
      <point x="432" y="924"/>
      <point x="415" y="947" type="qcurve"/>
      <point x="318" y="947" type="line"/>
      <point x="338" y="918"/>
      <point x="432" y="786"/>
      <point x="458" y="750" type="qcurve"/>
      <point x="461" y="750" type="line"/>
      <point x="542" y="750" type="line"/>
      <point x="685" y="947" type="line"/>
      <point x="584" y="947" type="line"/>
      <point x="571" y="929"/>
      <point x="515" y="851"/>
      <point x="500" y="830" type="qcurve"/>
      <point x="490" y="843"/>
      <point x="432" y="924"/>
      <point x="415" y="947" type="qcurve"/>
      <point x="318" y="947" type="line"/>
      <point x="338" y="918"/>
      <point x="432" y="786"/>
    </contour>
    <contour>
      <point x="25" y="699" type="qcurve"/>
      <point x="86" y="698"/>
      <point x="328" y="698"/>
      <point x="389" y="698" type="qcurve"/>
      <point x="662" y="354"/>
      <point x="720" y="280" type="qcurve"/>
      <point x="720" y="611" type="line" smooth="yes"/>
      <point x="720" y="675"/>
      <point x="681" y="699" type="qcurve"/>
      <point x="681" y="699"/>
      <point x="984" y="699" type="qcurve"/>
      <point x="960" y="685"/>
      <point x="932" y="633"/>
      <point x="933" y="605" type="qcurve" smooth="yes"/>
      <point x="933" y="90" type="line" smooth="yes"/>
      <point x="933" y="30"/>
      <point x="984" y="0" type="qcurve"/>
      <point x="615" y="0" type="line"/>
      <point x="289" y="411" type="line"/>
      <point x="289" y="90" type="line" smooth="yes"/>
      <point x="289" y="36"/>
      <point x="314" y="10" type="qcurve" smooth="yes"/>
      <point x="315" y="8"/>
      <point x="326" y="4"/>
      <point x="328" y="1" type="qcurve"/>
      <point x="320" y="0"/>
      <point x="303" y="0" type="qcurve" smooth="yes"/>
      <point x="25" y="0" type="line"/>
      <point x="75" y="31"/>
      <point x="75" y="90" type="qcurve" smooth="yes"/>
      <point x="75" y="605" type="line" smooth="yes"/>
      <point x="76" y="633"/>
      <point x="49" y="685"/>
    </contour>
  </outline>
</glyph>
<glyph name="eng" format="2">
  <advance width="1009"/>
  <unicode hex="014B"/>
  <outline>
    <contour>
      <point x="25" y="699" type="qcurve"/>
      <point x="86" y="698"/>
      <point x="328" y="698"/>
      <point x="389" y="698" type="qcurve"/>
      <point x="662" y="354"/>
      <point x="720" y="280" type="qcurve"/>
      <point x="720" y="611" type="line" smooth="yes"/>
      <point x="720" y="675"/>
      <point x="681" y="699" type="qcurve"/>
      <point x="984" y="699" type="line"/>
      <point x="960" y="685"/>
      <point x="946" y="659" type="qcurve" smooth="yes"/>
      <point x="933" y="635"/>
      <point x="933" y="605" type="qcurve" smooth="yes"/>
      <point x="933" y="90" type="line" smooth="yes"/>
      <point x="933" y="45"/>
      <point x="933" y="0" type="qcurve"/>
      <point x="895" y="0" type="line"/>
      <point x="895" y="-40" type="line" smooth="yes"/>
      <point x="895" y="-131"/>
      <point x="848" y="-183" type="qcurve" smooth="yes"/>
      <point x="801" y="-235"/>
      <point x="715" y="-248" type="qcurve" smooth="yes"/>
      <point x="637" y="-259"/>
      <point x="539" y="-244" type="qcurve" smooth="yes"/>
      <point x="475" y="-231"/>
      <point x="459" y="-224" type="qcurve"/>
      <point x="459" y="-67" type="line"/>
      <point x="499" y="-102"/>
      <point x="544" y="-106" type="qcurve" smooth="yes"/>
      <point x="600" y="-111"/>
      <point x="626" y="-87" type="qcurve" smooth="yes"/>
      <point x="648" y="-65"/>
      <point x="648" y="-22" type="qcurve" smooth="yes"/>
      <point x="649" y="-20"/>
      <point x="649" y="0" type="qcurve"/>
      <point x="615" y="0" type="line"/>
      <point x="289" y="411" type="line"/>
      <point x="289" y="90" type="line" smooth="yes"/>
      <point x="289" y="27"/>
      <point x="314" y="10" type="qcurve" smooth="yes"/>
      <point x="315" y="8"/>
      <point x="326" y="4"/>
      <point x="328" y="1" type="qcurve"/>
      <point x="320" y="0"/>
      <point x="303" y="0" type="qcurve" smooth="yes"/>
      <point x="25" y="0" type="line"/>
      <point x="75" y="31"/>
      <point x="75" y="90" type="qcurve" smooth="yes"/>
      <point x="75" y="605" type="line" smooth="yes"/>
      <point x="75" y="635"/>
      <point x="62" y="659" type="qcurve" smooth="yes"/>
      <point x="49" y="685"/>
    </contour>
  </outline>
</glyph>
<glyph name="Obreve" format="2">
  <advance width="1015"/>
  <unicode hex="014E"/>
  <outline>
    <contour>
      <point x="511" y="888" type="qcurve" smooth="yes"/>
      <point x="473" y="888"/>
      <point x="436" y="924"/>
      <point x="435" y="951" type="qcurve"/>
      <point x="287" y="951" type="line"/>
      <point x="287" y="951"/>
      <point x="287" y="950" type="qcurve" smooth="yes"/>
      <point x="287" y="907"/>
      <point x="316" y="836"/>
      <point x="345" y="809" type="qcurve" smooth="yes"/>
      <point x="373" y="783"/>
      <point x="415" y="768" type="qcurve" smooth="yes"/>
      <point x="456" y="753"/>
      <point x="511" y="753" type="qcurve" smooth="yes"/>
      <point x="619" y="753"/>
      <point x="677" y="808" type="qcurve" smooth="yes"/>
      <point x="736" y="863"/>
      <point x="736" y="950" type="qcurve" smooth="yes"/>
      <point x="736" y="951"/>
      <point x="736" y="951" type="qcurve"/>
      <point x="587" y="951" type="line"/>
      <point x="588" y="923"/>
      <point x="548" y="888"/>
    </contour>
    <contour>
      <point x="408" y="712" type="qcurve" smooth="yes"/>
      <point x="610" y="728"/>
      <point x="749" y="684" type="qcurve" smooth="yes"/>
      <point x="884" y="642"/>
      <point x="943" y="537" type="qcurve" smooth="yes"/>
      <point x="1007" y="425"/>
      <point x="984" y="260" type="qcurve" smooth="yes"/>
      <point x="974" y="196"/>
      <point x="908" y="88"/>
      <point x="855" y="55" type="qcurve" smooth="yes"/>
      <point x="740" y="-18"/>
      <point x="532" y="-24" type="qcurve" smooth="yes"/>
      <point x="432" y="-24"/>
      <point x="272" y="-3"/>
      <point x="201" y="28" type="qcurve" smooth="yes"/>
      <point x="148" y="52"/>
      <point x="69" y="133"/>
      <point x="49" y="186" type="qcurve" smooth="yes"/>
      <point x="16" y="277"/>
      <point x="28" y="403" type="qcurve" smooth="yes"/>
      <point x="42" y="540"/>
      <point x="131" y="614" type="qcurve" smooth="yes"/>
      <point x="227" y="697"/>
    </contour>
    <contour>
      <point x="471" y="563" type="qcurve" smooth="yes"/>
      <point x="407" y="551"/>
      <point x="378" y="499" type="qcurve" smooth="yes"/>
      <point x="357" y="462"/>
      <point x="345" y="376"/>
      <point x="346" y="319" type="qcurve" smooth="yes"/>
      <point x="348" y="286"/>
      <point x="354" y="244"/>
      <point x="373" y="189"/>
      <point x="389" y="170" type="qcurve" smooth="yes"/>
      <point x="433" y="123"/>
      <point x="527" y="129" type="qcurve" smooth="yes"/>
      <point x="606" y="135"/>
      <point x="637" y="187" type="qcurve" smooth="yes"/>
      <point x="658" y="222"/>
      <point x="669" y="304"/>
      <point x="668" y="361" type="qcurve" smooth="yes"/>
      <point x="665" y="415"/>
      <point x="646" y="493"/>
      <point x="620" y="523" type="qcurve" smooth="yes"/>
      <point x="595" y="552"/>
      <point x="514" y="570"/>
    </contour>
    <contour>
      <point x="505" y="454" type="line"/>
      <point x="595" y="337" type="line"/>
      <point x="583" y="323"/>
      <point x="550" y="279" type="qcurve" smooth="yes"/>
      <point x="519" y="239" type="line"/>
      <point x="505" y="221" type="line" smooth="yes"/>
      <point x="505" y="220"/>
      <point x="492" y="237"/>
      <point x="471" y="265"/>
      <point x="461" y="279" type="qcurve" smooth="yes"/>
      <point x="417" y="338" type="line"/>
    </contour>
  </outline>
</glyph>
<glyph name="ohungarumlaut" format="2">
  <advance width="1015"/>
  <unicode hex="0151"/>
  <outline>
    <contour>
      <point x="962" y="966" type="qcurve"/>
      <point x="656" y="966" type="line"/>
      <point x="654" y="958"/>
      <point x="644" y="930"/>
      <point x="641" y="922" type="qcurve" smooth="yes"/>
      <point x="553" y="768" type="line"/>
      <point x="731" y="768" type="line"/>
      <point x="778" y="807"/>
      <point x="942" y="950"/>
      <point x="962" y="966" type="qcurve"/>
      <point x="656" y="966" type="line"/>
      <point x="654" y="958"/>
      <point x="644" y="930"/>
      <point x="641" y="922" type="qcurve" smooth="yes"/>
      <point x="553" y="768" type="line"/>
      <point x="731" y="768" type="line"/>
      <point x="778" y="807"/>
      <point x="942" y="950"/>
      <point x="962" y="966" type="qcurve"/>
      <point x="656" y="966" type="line"/>
      <point x="654" y="958"/>
      <point x="644" y="930"/>
      <point x="641" y="922" type="qcurve" smooth="yes"/>
      <point x="553" y="768" type="line"/>
      <point x="731" y="768" type="line"/>
      <point x="778" y="807"/>
      <point x="942" y="950"/>
    </contour>
    <contour>
      <point x="628" y="966" type="qcurve"/>
      <point x="322" y="966" type="line"/>
      <point x="320" y="958"/>
      <point x="310" y="930"/>
      <point x="307" y="922" type="qcurve" smooth="yes"/>
      <point x="219" y="768" type="line"/>
      <point x="398" y="768" type="line"/>
      <point x="444" y="807"/>
      <point x="609" y="950"/>
      <point x="628" y="966" type="qcurve"/>
      <point x="322" y="966" type="line"/>
      <point x="320" y="958"/>
      <point x="310" y="930"/>
      <point x="307" y="922" type="qcurve" smooth="yes"/>
      <point x="219" y="768" type="line"/>
      <point x="398" y="768" type="line"/>
      <point x="444" y="807"/>
      <point x="609" y="950"/>
      <point x="628" y="966" type="qcurve"/>
      <point x="322" y="966" type="line"/>
      <point x="320" y="958"/>
      <point x="310" y="930"/>
      <point x="307" y="922" type="qcurve" smooth="yes"/>
      <point x="219" y="768" type="line"/>
      <point x="398" y="768" type="line"/>
      <point x="444" y="807"/>
      <point x="609" y="950"/>
    </contour>
    <contour>
      <point x="408" y="712" type="qcurve" smooth="yes"/>
      <point x="610" y="728"/>
      <point x="749" y="684" type="qcurve" smooth="yes"/>
      <point x="884" y="642"/>
      <point x="943" y="537" type="qcurve" smooth="yes"/>
      <point x="1007" y="425"/>
      <point x="984" y="260" type="qcurve" smooth="yes"/>
      <point x="974" y="196"/>
      <point x="908" y="88"/>
      <point x="855" y="55" type="qcurve" smooth="yes"/>
      <point x="740" y="-18"/>
      <point x="532" y="-24" type="qcurve" smooth="yes"/>
      <point x="432" y="-24"/>
      <point x="272" y="-3"/>
      <point x="201" y="28" type="qcurve" smooth="yes"/>
      <point x="148" y="52"/>
      <point x="69" y="133"/>
      <point x="49" y="186" type="qcurve" smooth="yes"/>
      <point x="16" y="277"/>
      <point x="28" y="403" type="qcurve" smooth="yes"/>
      <point x="42" y="540"/>
      <point x="131" y="614" type="qcurve" smooth="yes"/>
      <point x="227" y="697"/>
    </contour>
    <contour>
      <point x="471" y="563" type="qcurve" smooth="yes"/>
      <point x="407" y="551"/>
      <point x="378" y="499" type="qcurve" smooth="yes"/>
      <point x="357" y="462"/>
      <point x="345" y="376"/>
      <point x="346" y="319" type="qcurve" smooth="yes"/>
      <point x="348" y="286"/>
      <point x="354" y="244"/>
      <point x="373" y="189"/>
      <point x="389" y="170" type="qcurve" smooth="yes"/>
      <point x="433" y="123"/>
      <point x="527" y="129" type="qcurve" smooth="yes"/>
      <point x="606" y="135"/>
      <point x="637" y="187" type="qcurve" smooth="yes"/>
      <point x="658" y="222"/>
      <point x="669" y="304"/>
      <point x="668" y="361" type="qcurve" smooth="yes"/>
      <point x="665" y="415"/>
      <point x="646" y="493"/>
      <point x="620" y="523" type="qcurve" smooth="yes"/>
      <point x="595" y="552"/>
      <point x="514" y="570"/>
    </contour>
    <contour>
      <point x="505" y="454" type="line"/>
      <point x="595" y="337" type="line"/>
      <point x="583" y="323"/>
      <point x="550" y="279" type="qcurve" smooth="yes"/>
      <point x="519" y="239" type="line"/>
      <point x="505" y="221" type="line" smooth="yes"/>
      <point x="505" y="220"/>
      <point x="492" y="237"/>
      <point x="471" y="265"/>
      <point x="461" y="279" type="qcurve" smooth="yes"/>
      <point x="417" y="338" type="line"/>
    </contour>
  </outline>
</glyph>
<glyph name="sacute" format="2">
  <advance width="742"/>
  <unicode hex="015B"/>
  <outline>
    <contour>
      <point x="632" y="949" type="qcurve"/>
      <point x="326" y="949" type="line"/>
      <point x="324" y="941"/>
      <point x="313" y="913"/>
      <point x="310" y="904" type="qcurve" smooth="yes"/>
      <point x="223" y="751" type="line"/>
      <point x="401" y="751" type="line"/>
      <point x="447" y="789"/>
      <point x="612" y="932"/>
      <point x="632" y="949" type="qcurve"/>
      <point x="326" y="949" type="line"/>
      <point x="324" y="941"/>
      <point x="313" y="913"/>
      <point x="310" y="904" type="qcurve" smooth="yes"/>
      <point x="223" y="751" type="line"/>
      <point x="401" y="751" type="line"/>
      <point x="447" y="789"/>
      <point x="612" y="932"/>
      <point x="632" y="949" type="qcurve"/>
      <point x="326" y="949" type="line"/>
      <point x="324" y="941"/>
      <point x="313" y="913"/>
      <point x="310" y="904" type="qcurve" smooth="yes"/>
      <point x="223" y="751" type="line"/>
      <point x="401" y="751" type="line"/>
      <point x="447" y="789"/>
      <point x="612" y="932"/>
    </contour>
    <contour>
      <point x="154" y="667" type="qcurve" smooth="yes"/>
      <point x="264" y="721"/>
      <point x="433" y="716" type="qcurve" smooth="yes"/>
      <point x="574" y="714"/>
      <point x="673" y="674" type="qcurve"/>
      <point x="673" y="471" type="line"/>
      <point x="557" y="562"/>
      <point x="412" y="567" type="qcurve" smooth="yes"/>
      <point x="353" y="569"/>
      <point x="330" y="555" type="qcurve" smooth="yes"/>
      <point x="313" y="544"/>
      <point x="318" y="497"/>
      <point x="336" y="487" type="qcurve" smooth="yes"/>
      <point x="348" y="479"/>
      <point x="378" y="468"/>
      <point x="418" y="456"/>
      <point x="428" y="453" type="qcurve" smooth="yes"/>
      <point x="437" y="450"/>
      <point x="495" y="434"/>
      <point x="519" y="426"/>
      <point x="568" y="409"/>
      <point x="598" y="395"/>
      <point x="636" y="374"/>
      <point x="652" y="362" type="qcurve" smooth="yes"/>
      <point x="711" y="318"/>
      <point x="716" y="239" type="qcurve" smooth="yes"/>
      <point x="721" y="189"/>
      <point x="683" y="97"/>
      <point x="646" y="64" type="qcurve" smooth="yes"/>
      <point x="563" y="-10"/>
      <point x="402" y="-23" type="qcurve"/>
      <point x="195" y="-30"/>
      <point x="41" y="23" type="qcurve"/>
      <point x="41" y="227" type="line"/>
      <point x="193" y="128"/>
      <point x="349" y="121" type="qcurve" smooth="yes"/>
      <point x="364" y="121"/>
      <point x="391" y="120"/>
      <point x="421" y="127"/>
      <point x="433" y="134" type="qcurve" smooth="yes"/>
      <point x="445" y="143"/>
      <point x="450" y="171"/>
      <point x="439" y="180" type="qcurve" smooth="yes"/>
      <point x="432" y="185"/>
      <point x="418" y="193"/>
      <point x="395" y="202"/>
      <point x="392" y="203" type="qcurve" smooth="yes"/>
      <point x="359" y="214"/>
      <point x="228" y="256"/>
      <point x="196" y="268" type="qcurve" smooth="yes"/>
      <point x="100" y="304"/>
      <point x="61" y="355" type="qcurve" smooth="yes"/>
      <point x="8" y="428"/>
      <point x="34" y="531" type="qcurve" smooth="yes"/>
      <point x="45" y="575"/>
      <point x="110" y="646"/>
    </contour>
  </outline>
</glyph>
<glyph name="uni0162" format="2">
  <advance width="890"/>
  <unicode hex="0162"/>
  <outline>
    <contour>
      <point x="377" y="-50" type="qcurve"/>
      <point x="516" y="-50" type="line"/>
      <point x="456" y="-174"/>
      <point x="421" y="-250" type="qcurve"/>
      <point x="340" y="-250" type="line"/>
      <point x="346" y="-219"/>
      <point x="369" y="-113"/>
      <point x="374" y="-91" type="qcurve" smooth="yes"/>
      <point x="377" y="-78"/>
    </contour>
    <contour>
      <point x="377" y="-50" type="qcurve"/>
      <point x="516" y="-50" type="line"/>
      <point x="456" y="-174"/>
      <point x="421" y="-250" type="qcurve"/>
      <point x="340" y="-250" type="line"/>
      <point x="346" y="-219"/>
      <point x="369" y="-113"/>
      <point x="374" y="-91" type="qcurve" smooth="yes"/>
      <point x="377" y="-78"/>
    </contour>
    <contour>
      <point x="377" y="-50" type="qcurve"/>
      <point x="516" y="-50" type="line"/>
      <point x="456" y="-174"/>
      <point x="421" y="-250" type="qcurve"/>
      <point x="340" y="-250" type="line"/>
      <point x="346" y="-219"/>
      <point x="369" y="-113"/>
      <point x="374" y="-91" type="qcurve" smooth="yes"/>
      <point x="377" y="-78"/>
    </contour>
    <contour>
      <point x="26" y="701" type="qcurve"/>
      <point x="865" y="701" type="line"/>
      <point x="865" y="461"/>
      <point x="865" y="461" type="qcurve"/>
      <point x="834" y="511"/>
      <point x="774" y="511" type="qcurve" smooth="yes"/>
      <point x="774" y="511"/>
      <point x="587" y="511" type="qcurve"/>
      <point x="587" y="102" type="line" smooth="yes"/>
      <point x="585" y="71"/>
      <point x="611" y="15"/>
      <point x="637" y="0" type="qcurve"/>
      <point x="254" y="0" type="line"/>
      <point x="284" y="18"/>
      <point x="297" y="52" type="qcurve" smooth="yes"/>
      <point x="304" y="70"/>
      <point x="304" y="123" type="qcurve" smooth="yes"/>
      <point x="304" y="511" type="line"/>
      <point x="115" y="511"/>
      <point x="115" y="511" type="qcurve" smooth="yes"/>
      <point x="56" y="511"/>
      <point x="25" y="461" type="qcurve"/>
      <point x="26" y="501"/>
      <point x="26" y="661"/>
    </contour>
  </outline>
</glyph>
<glyph name="Tcaron" format="2">
  <advance width="890"/>
  <unicode hex="0164"/>
  <outline>
    <contour>
      <point x="400" y="751" type="qcurve"/>
      <point x="403" y="751" type="line"/>
      <point x="484" y="751" type="line"/>
      <point x="627" y="948" type="line"/>
      <point x="526" y="948" type="line"/>
      <point x="513" y="930"/>
      <point x="457" y="852"/>
      <point x="442" y="831" type="qcurve"/>
      <point x="432" y="844"/>
      <point x="374" y="925"/>
      <point x="357" y="948" type="qcurve"/>
      <point x="260" y="948" type="line"/>
      <point x="280" y="919"/>
      <point x="374" y="787"/>
      <point x="400" y="751" type="qcurve"/>
      <point x="403" y="751" type="line"/>
      <point x="484" y="751" type="line"/>
      <point x="627" y="948" type="line"/>
      <point x="526" y="948" type="line"/>
      <point x="513" y="930"/>
      <point x="457" y="852"/>
      <point x="442" y="831" type="qcurve"/>
      <point x="432" y="844"/>
      <point x="374" y="925"/>
      <point x="357" y="948" type="qcurve"/>
      <point x="260" y="948" type="line"/>
      <point x="280" y="919"/>
      <point x="374" y="787"/>
      <point x="400" y="751" type="qcurve"/>
      <point x="403" y="751" type="line"/>
      <point x="484" y="751" type="line"/>
      <point x="627" y="948" type="line"/>
      <point x="526" y="948" type="line"/>
      <point x="513" y="930"/>
      <point x="457" y="852"/>
      <point x="442" y="831" type="qcurve"/>
      <point x="432" y="844"/>
      <point x="374" y="925"/>
      <point x="357" y="948" type="qcurve"/>
      <point x="260" y="948" type="line"/>
      <point x="280" y="919"/>
      <point x="374" y="787"/>
    </contour>
    <contour>
      <point x="26" y="701" type="qcurve"/>
      <point x="865" y="701" type="line"/>
      <point x="865" y="461"/>
      <point x="865" y="461" type="qcurve"/>
      <point x="834" y="511"/>
      <point x="774" y="511" type="qcurve" smooth="yes"/>
      <point x="774" y="511"/>
      <point x="587" y="511" type="qcurve"/>
      <point x="587" y="102" type="line" smooth="yes"/>
      <point x="585" y="71"/>
      <point x="611" y="15"/>
      <point x="637" y="0" type="qcurve"/>
      <point x="254" y="0" type="line"/>
      <point x="284" y="18"/>
      <point x="297" y="52" type="qcurve" smooth="yes"/>
      <point x="304" y="70"/>
      <point x="304" y="123" type="qcurve" smooth="yes"/>
      <point x="304" y="511" type="line"/>
      <point x="115" y="511"/>
      <point x="115" y="511" type="qcurve" smooth="yes"/>
      <point x="56" y="511"/>
      <point x="25" y="461" type="qcurve"/>
      <point x="26" y="501"/>
      <point x="26" y="661"/>
    </contour>
  </outline>
</glyph>
<glyph name="Tbar" format="2">
  <advance width="890"/>
  <unicode hex="0166"/>
  <outline>
    <contour>
      <point x="160" y="203" type="line"/>
      <point x="160" y="376" type="line"/>
      <point x="734" y="376" type="line"/>
      <point x="734" y="203" type="line"/>
      <point x="160" y="203" type="line"/>
      <point x="160" y="376" type="line"/>
      <point x="734" y="376" type="line"/>
      <point x="734" y="203" type="line"/>
      <point x="160" y="203" type="line"/>
      <point x="160" y="376" type="line"/>
      <point x="734" y="376" type="line"/>
      <point x="734" y="203" type="line"/>
    </contour>
    <contour>
      <point x="26" y="701" type="qcurve"/>
      <point x="865" y="701" type="line"/>
      <point x="865" y="461"/>
      <point x="865" y="461" type="qcurve"/>
      <point x="834" y="511"/>
      <point x="774" y="511" type="qcurve" smooth="yes"/>
      <point x="774" y="511"/>
      <point x="587" y="511" type="qcurve"/>
      <point x="587" y="102" type="line" smooth="yes"/>
      <point x="585" y="71"/>
      <point x="611" y="15"/>
      <point x="637" y="0" type="qcurve"/>
      <point x="254" y="0" type="line"/>
      <point x="284" y="18"/>
      <point x="297" y="52" type="qcurve" smooth="yes"/>
      <point x="304" y="70"/>
      <point x="304" y="123" type="qcurve" smooth="yes"/>
      <point x="304" y="511" type="line"/>
      <point x="115" y="511"/>
      <point x="115" y="511" type="qcurve" smooth="yes"/>
      <point x="56" y="511"/>
      <point x="25" y="461" type="qcurve"/>
      <point x="26" y="501"/>
      <point x="26" y="661"/>
    </contour>
  </outline>
</glyph>
<glyph name="uhungarumlaut" format="2">
  <advance width="984"/>
  <unicode hex="0171"/>
  <outline>
    <contour>
      <point x="916" y="948" type="qcurve"/>
      <point x="610" y="948" type="line"/>
      <point x="608" y="940"/>
      <point x="598" y="912"/>
      <point x="595" y="904" type="qcurve" smooth="yes"/>
      <point x="507" y="750" type="line"/>
      <point x="685" y="750" type="line"/>
      <point x="732" y="789"/>
      <point x="896" y="932"/>
      <point x="916" y="948" type="qcurve"/>
      <point x="610" y="948" type="line"/>
      <point x="608" y="940"/>
      <point x="598" y="912"/>
      <point x="595" y="904" type="qcurve" smooth="yes"/>
      <point x="507" y="750" type="line"/>
      <point x="685" y="750" type="line"/>
      <point x="732" y="789"/>
      <point x="896" y="932"/>
      <point x="916" y="948" type="qcurve"/>
      <point x="610" y="948" type="line"/>
      <point x="608" y="940"/>
      <point x="598" y="912"/>
      <point x="595" y="904" type="qcurve" smooth="yes"/>
      <point x="507" y="750" type="line"/>
      <point x="685" y="750" type="line"/>
      <point x="732" y="789"/>
      <point x="896" y="932"/>
    </contour>
    <contour>
      <point x="582" y="948" type="qcurve"/>
      <point x="276" y="948" type="line"/>
      <point x="274" y="940"/>
      <point x="264" y="912"/>
      <point x="261" y="904" type="qcurve" smooth="yes"/>
      <point x="173" y="750" type="line"/>
      <point x="351" y="750" type="line"/>
      <point x="398" y="789"/>
      <point x="563" y="932"/>
      <point x="582" y="948" type="qcurve"/>
      <point x="276" y="948" type="line"/>
      <point x="274" y="940"/>
      <point x="264" y="912"/>
      <point x="261" y="904" type="qcurve" smooth="yes"/>
      <point x="173" y="750" type="line"/>
      <point x="351" y="750" type="line"/>
      <point x="398" y="789"/>
      <point x="563" y="932"/>
      <point x="582" y="948" type="qcurve"/>
      <point x="276" y="948" type="line"/>
      <point x="274" y="940"/>
      <point x="264" y="912"/>
      <point x="261" y="904" type="qcurve" smooth="yes"/>
      <point x="173" y="750" type="line"/>
      <point x="351" y="750" type="line"/>
      <point x="398" y="789"/>
      <point x="563" y="932"/>
    </contour>
    <contour>
      <point x="25" y="700" type="qcurve"/>
      <point x="26" y="699"/>
      <point x="203" y="700" type="qcurve" smooth="yes"/>
      <point x="380" y="700" type="line"/>
      <point x="358" y="675"/>
      <point x="358" y="612" type="qcurve" smooth="yes"/>
      <point x="358" y="283" type="line" smooth="yes"/>
      <point x="358" y="213"/>
      <point x="400" y="180" type="qcurve" smooth="yes"/>
      <point x="447" y="143"/>
      <point x="534" y="150" type="qcurve" smooth="yes"/>
      <point x="597" y="155"/>
      <point x="625" y="202" type="qcurve" smooth="yes"/>
      <point x="644" y="234"/>
      <point x="644" y="298" type="qcurve" smooth="yes"/>
      <point x="644" y="350"/>
      <point x="644" y="560"/>
      <point x="643" y="612" type="qcurve" smooth="yes"/>
      <point x="643" y="676"/>
      <point x="619" y="700" type="qcurve"/>
      <point x="790" y="699"/>
      <point x="959" y="700" type="qcurve"/>
      <point x="909" y="669"/>
      <point x="909" y="607" type="qcurve" smooth="yes"/>
      <point x="909" y="266" type="line" smooth="yes"/>
      <point x="909" y="153"/>
      <point x="850" y="83" type="qcurve" smooth="yes"/>
      <point x="794" y="17"/>
      <point x="688" y="-6" type="qcurve" smooth="yes"/>
      <point x="582" y="-31"/>
      <point x="428" y="-24" type="qcurve" smooth="yes"/>
      <point x="252" y="-15"/>
      <point x="161" y="64" type="qcurve" smooth="yes"/>
      <point x="77" y="135"/>
      <point x="75" y="261" type="qcurve" smooth="yes"/>
      <point x="74" y="261"/>
      <point x="74" y="436" type="qcurve" smooth="yes"/>
      <point x="75" y="612" type="line" smooth="yes"/>
      <point x="73" y="670"/>
    </contour>
  </outline>
</glyph>
<glyph name="Ycircumflex" format="2">
  <advance width="1095"/>
  <unicode hex="0176"/>
  <outline>
    <contour>
      <point x="504" y="948" type="qcurve"/>
      <point x="507" y="948" type="line"/>
      <point x="588" y="948" type="line"/>
      <point x="732" y="751" type="line"/>
      <point x="630" y="751" type="line"/>
      <point x="617" y="769"/>
      <point x="561" y="847"/>
      <point x="546" y="867" type="qcurve"/>
      <point x="536" y="854"/>
      <point x="479" y="774"/>
      <point x="462" y="751" type="qcurve"/>
      <point x="364" y="751" type="line"/>
      <point x="384" y="780"/>
      <point x="479" y="911"/>
      <point x="504" y="948" type="qcurve"/>
      <point x="507" y="948" type="line"/>
      <point x="588" y="948" type="line"/>
      <point x="732" y="751" type="line"/>
      <point x="630" y="751" type="line"/>
      <point x="617" y="769"/>
      <point x="561" y="847"/>
      <point x="546" y="867" type="qcurve"/>
      <point x="536" y="854"/>
      <point x="479" y="774"/>
      <point x="462" y="751" type="qcurve"/>
      <point x="364" y="751" type="line"/>
      <point x="384" y="780"/>
      <point x="479" y="911"/>
      <point x="504" y="948" type="qcurve"/>
      <point x="507" y="948" type="line"/>
      <point x="588" y="948" type="line"/>
      <point x="732" y="751" type="line"/>
      <point x="630" y="751" type="line"/>
      <point x="617" y="769"/>
      <point x="561" y="847"/>
      <point x="546" y="867" type="qcurve"/>
      <point x="536" y="854"/>
      <point x="479" y="774"/>
      <point x="462" y="751" type="qcurve"/>
      <point x="364" y="751" type="line"/>
      <point x="384" y="780"/>
      <point x="479" y="911"/>
    </contour>
    <contour>
      <point x="411" y="237" type="line"/>
      <point x="110" y="629" type="line" smooth="yes"/>
      <point x="63" y="689"/>
      <point x="25" y="701" type="qcurve"/>
      <point x="405" y="701" type="line"/>
      <point x="393" y="690"/>
      <point x="393" y="673" type="qcurve" smooth="yes"/>
      <point x="393" y="655"/>
      <point x="415" y="629" type="qcurve" smooth="yes"/>
      <point x="547" y="457" type="line"/>
      <point x="680" y="629" type="line" smooth="yes"/>
      <point x="703" y="656"/>
      <point x="703" y="673" type="qcurve" smooth="yes"/>
      <point x="703" y="689"/>
      <point x="691" y="701" type="qcurve"/>
      <point x="1070" y="701" type="line"/>
      <point x="1049" y="693"/>
      <point x="997" y="648"/>
      <point x="985" y="629" type="qcurve" smooth="yes"/>
      <point x="683" y="237" type="line"/>
      <point x="683" y="215" type="line" smooth="yes"/>
      <point x="683" y="40"/>
      <point x="742" y="1" type="qcurve"/>
      <point x="352" y="1" type="line"/>
      <point x="387" y="23"/>
      <point x="411" y="130"/>
      <point x="411" y="215" type="qcurve" smooth="yes"/>
    </contour>
  </outline>
</glyph>
<glyph name="zcaron" format="2">
  <advance width="849"/>
  <unicode hex="017E"/>
  <outline>
    <contour>
      <point x="388" y="750" type="qcurve"/>
      <point x="391" y="750" type="line"/>
      <point x="472" y="750" type="line"/>
      <point x="615" y="947" type="line"/>
      <point x="514" y="947" type="line"/>
      <point x="501" y="929"/>
      <point x="445" y="851"/>
      <point x="430" y="830" type="qcurve"/>
      <point x="420" y="843"/>
      <point x="362" y="924"/>
      <point x="345" y="947" type="qcurve"/>
      <point x="248" y="947" type="line"/>
      <point x="268" y="918"/>
      <point x="362" y="786"/>
      <point x="388" y="750" type="qcurve"/>
      <point x="391" y="750" type="line"/>
      <point x="472" y="750" type="line"/>
      <point x="615" y="947" type="line"/>
      <point x="514" y="947" type="line"/>
      <point x="501" y="929"/>
      <point x="445" y="851"/>
      <point x="430" y="830" type="qcurve"/>
      <point x="420" y="843"/>
      <point x="362" y="924"/>
      <point x="345" y="947" type="qcurve"/>
      <point x="248" y="947" type="line"/>
      <point x="268" y="918"/>
      <point x="362" y="786"/>
      <point x="388" y="750" type="qcurve"/>
      <point x="391" y="750" type="line"/>
      <point x="472" y="750" type="line"/>
      <point x="615" y="947" type="line"/>
      <point x="514" y="947" type="line"/>
      <point x="501" y="929"/>
      <point x="445" y="851"/>
      <point x="430" y="830" type="qcurve"/>
      <point x="420" y="843"/>
      <point x="362" y="924"/>
      <point x="345" y="947" type="qcurve"/>
      <point x="248" y="947" type="line"/>
      <point x="268" y="918"/>
      <point x="362" y="786"/>
    </contour>
    <contour>
      <point x="48" y="444" type="qcurve"/>
      <point x="48" y="700" type="line"/>
      <point x="798" y="700" type="line"/>
      <point x="798" y="554" type="line"/>
      <point x="723" y="480"/>
      <point x="451" y="211"/>
      <point x="407" y="168" type="qcurve"/>
      <point x="696" y="168"/>
      <point x="696" y="168" type="qcurve" smooth="yes"/>
      <point x="734" y="169"/>
      <point x="802" y="211"/>
      <point x="824" y="245" type="qcurve"/>
      <point x="824" y="0" type="line"/>
      <point x="25" y="0" type="line"/>
      <point x="25" y="134" type="line"/>
      <point x="415" y="521" type="line"/>
      <point x="375" y="520"/>
      <point x="216" y="520"/>
      <point x="176" y="520" type="qcurve" smooth="yes"/>
      <point x="138" y="519"/>
      <point x="70" y="478"/>
    </contour>
  </outline>
</glyph>
